<svg xmlns="http://www.w3.org/2000/svg" width="100" height="100" viewBox="0 0 100 100"><g transform="translate(1758 1002)"><g transform="translate(-1759.756 -1003.59)"><path d="M52.577,11.353V91.332a2.928,2.928,0,0,1-5.857,0V83.645L40.315,90.05a2.976,2.976,0,0,1-4.209-4.209L46.721,75.226V56.375L29.7,66.258,26.04,80.168A3.018,3.018,0,0,1,20.183,78.7l2.2-8.053-6.223,3.66a2.8,2.8,0,0,1-4.026-1.1,2.864,2.864,0,0,1,.732-4.392l6.223-3.66-8.053-2.013A3.018,3.018,0,1,1,12.5,57.29l13.909,3.66,16.472-9.517L26.406,41.917,12.5,45.577a3.08,3.08,0,0,1-3.66-2.2,2.993,2.993,0,0,1,2.2-3.66l8.053-2.2-6.223-3.66a2.951,2.951,0,0,1,2.928-5.124l6.223,3.66-2.2-8.053a3.018,3.018,0,1,1,5.857-1.464l3.66,13.909,17.021,9.883V27.642L35.74,17.027a3.1,3.1,0,0,1,0-4.209,3.1,3.1,0,0,1,4.209,0l6.406,6.406V11.536a2.891,2.891,0,0,1,2.928-2.928A2.859,2.859,0,0,1,52.577,11.353ZM85.52,80.168A1.834,1.834,0,0,1,83.69,82a9.534,9.534,0,0,1-4.758-1.1,7.778,7.778,0,0,0-6.589,0,10.859,10.859,0,0,1-9.517,0,7.078,7.078,0,0,0-3.111-.732,1.83,1.83,0,0,1,0-3.66,9.534,9.534,0,0,1,4.758,1.1,7.078,7.078,0,0,0,3.111.732,7.309,7.309,0,0,0,3.294-.732,10.859,10.859,0,0,1,9.517,0,7.309,7.309,0,0,0,3.294.732A1.961,1.961,0,0,1,85.52,80.168ZM58.251,22.7a1.834,1.834,0,0,1,1.83-1.83,9.534,9.534,0,0,1,4.758,1.1,7.078,7.078,0,0,0,3.111.732,7.309,7.309,0,0,0,3.294-.732,10.859,10.859,0,0,1,9.517,0,7.309,7.309,0,0,0,3.294.732,1.83,1.83,0,0,1,0,3.66,9.534,9.534,0,0,1-4.758-1.1,7.778,7.778,0,0,0-6.589,0,10.859,10.859,0,0,1-9.517,0,7.078,7.078,0,0,0-3.111-.732A2.133,2.133,0,0,1,58.251,22.7ZM93.756,62.049a1.834,1.834,0,0,1-1.83,1.83,11.074,11.074,0,0,1-6.04-1.464,10.081,10.081,0,0,0-9.151,0,12.116,12.116,0,0,1-6.04,1.464,11.074,11.074,0,0,1-6.04-1.464,9.872,9.872,0,0,0-4.575-1.1,1.83,1.83,0,0,1,0-3.66,11.074,11.074,0,0,1,6.04,1.464,10.081,10.081,0,0,0,9.151,0,12.116,12.116,0,0,1,6.04-1.464,11.074,11.074,0,0,1,6.04,1.464,9.872,9.872,0,0,0,4.575,1.1A1.729,1.729,0,0,1,93.756,62.049Zm0-18.668a1.834,1.834,0,0,1-1.83,1.83,11.074,11.074,0,0,1-6.04-1.464,10.081,10.081,0,0,0-9.151,0,12.116,12.116,0,0,1-6.04,1.464,11.074,11.074,0,0,1-6.04-1.464,9.872,9.872,0,0,0-4.575-1.1,1.83,1.83,0,0,1,0-3.66,11.074,11.074,0,0,1,6.04,1.464,10.081,10.081,0,0,0,9.151,0,12.116,12.116,0,0,1,6.04-1.464,11.074,11.074,0,0,1,6.04,1.464,9.872,9.872,0,0,0,4.575,1.1A1.961,1.961,0,0,1,93.756,43.381Z" transform="translate(0 0)"/></g><rect width="100" height="100" transform="translate(-1758 -1002)" fill="none"/></g></svg>