<svg xmlns="http://www.w3.org/2000/svg" viewBox="0 0 64 64" style="enable-background:new 0 0 64 64" xml:space="preserve"><path d="M32.7 10.1v43.7c0 .9-.7 1.6-1.6 1.6-.9 0-1.6-.7-1.6-1.6v-4.2L26 53.1c-.6.6-1.7.6-2.3 0-.6-.6-.6-1.7 0-2.3l5.8-5.8V34.7l-9.3 5.4-2 7.6c-.2.9-1.1 1.4-2 1.2-.9-.2-1.4-1.1-1.2-2l1.2-4.4-3.4 2c-.8.5-1.8.2-2.2-.6-.7-.9-.4-1.9.4-2.4l3.4-2-4.4-1.1c-.9-.2-1.4-1.1-1.2-2 .2-.9 1.1-1.4 2-1.2l7.6 2 9-5.2-9-5.2-7.6 2c-.8.2-1.8-.3-2-1.2-.2-.9.3-1.8 1.2-2l4.4-1.2-3.4-2c-.8-.5-1.1-1.5-.6-2.2.5-.8 1.5-1.1 2.2-.6l3.4 2-1.2-4.4c-.2-.9.3-1.8 1.2-2 .9-.2 1.8.3 2 1.2l2 7.6 9.3 5.4V19l-5.8-5.8c-.6-.6-.6-1.7 0-2.3s1.7-.6 2.3 0l3.5 3.5v-4.2c0-.9.7-1.6 1.6-1.6 1-.1 1.8.6 1.8 1.5zm18 37.6c0 .5-.4 1-1 1-1.3 0-2-.3-2.6-.6-.5-.2-.9-.4-1.8-.4s-1.3.2-1.8.4c-.6.3-1.3.6-2.6.6s-2-.3-2.6-.6c-.5-.2-.9-.4-1.7-.4-.5 0-1-.4-1-1 0-.5.4-1 1-1 1.3 0 2 .3 2.6.6.5.2.9.4 1.7.4.9 0 1.3-.2 1.8-.4.6-.3 1.3-.6 2.6-.6s2 .3 2.6.6c.5.2.9.4 1.8.4.6.1 1 .5 1 1zM35.8 16.3c0-.5.4-1 1-1 1.3 0 2 .3 2.6.6.5.2.9.4 1.7.4.9 0 1.3-.2 1.8-.4.6-.3 1.3-.6 2.6-.6s2 .3 2.6.6c.5.2.9.4 1.8.4.5 0 1 .4 1 1 0 .5-.4 1-1 1-1.3 0-2-.3-2.6-.6-.5-.2-.9-.4-1.8-.4s-1.3.2-1.8.4c-.6.3-1.3.6-2.6.6s-2-.3-2.6-.6c-.5-.2-.9-.4-1.7-.4-.5-.1-1-.5-1-1zm19.4 21.5c0 .5-.4 1-1 1-1.7 0-2.6-.4-3.3-.8-.7-.3-1.3-.6-2.5-.6s-1.8.3-2.5.6c-.8.4-1.7.8-3.3.8-1.7 0-2.6-.4-3.3-.8-.7-.3-1.3-.6-2.5-.6-.5 0-1-.4-1-1 0-.5.4-1 1-1 1.7 0 2.6.4 3.3.8.7.3 1.3.6 2.5.6s1.8-.3 2.5-.6c.8-.4 1.7-.8 3.3-.8 1.7 0 2.6.4 3.3.8.7.3 1.3.6 2.5.6.6 0 1 .4 1 1zm0-10.2c0 .5-.4 1-1 1-1.7 0-2.6-.4-3.3-.8-.7-.3-1.3-.6-2.5-.6s-1.8.3-2.5.6c-.8.4-1.7.8-3.3.8-1.7 0-2.6-.4-3.3-.8-.7-.3-1.3-.6-2.5-.6-.5 0-1-.4-1-1 0-.5.4-1 1-1 1.7 0 2.6.4 3.3.8.7.3 1.3.6 2.5.6s1.8-.3 2.5-.6c.8-.4 1.7-.8 3.3-.8 1.7 0 2.6.4 3.3.8.7.3 1.3.6 2.5.6.6.1 1 .5 1 1z"/><script/></svg>