<svg xmlns="http://www.w3.org/2000/svg" width="37.454" height="45.083" viewBox="0 0 37.454 45.083"><path d="M34.362,43.493a1.144,1.144,0,0,1,.178.593.885.885,0,0,1-.178.593,1.071,1.071,0,0,1-1.778,0,1.144,1.144,0,0,1-.178-.593.885.885,0,0,1,.178-.593.714.714,0,0,1,.3-.3,1,1,0,0,1,.593-.178,1.17,1.17,0,0,1,.83.356v.119h.059Zm-.119-26.316a1.118,1.118,0,0,1-1.423.178.8.8,0,0,1-.356-.415,1.094,1.094,0,0,1,.178-1.245,1,1,0,0,1,.83-.356.956.956,0,0,1,.771.356,1.094,1.094,0,0,1,.178,1.245A.318.318,0,0,1,34.243,17.177ZM45.682,38.751a.157.157,0,0,1,.178-.178h.059a.157.157,0,0,1,.178.178V49.42a.157.157,0,0,1-.178.178H45.86a.157.157,0,0,1-.178-.178ZM19.01,49.42a.157.157,0,0,1-.178.178h-.059a.157.157,0,0,1-.178-.178V38.751a.157.157,0,0,1,.178-.178h.059a.157.157,0,0,1,.178.178Zm1.363-38.941L17.706,21.622c0,.119-.119.178-.237.178H17.41c-.119,0-.178-.119-.119-.237l2.667-11.2c0-.119.119-.178.237-.119h.059C20.314,10.3,20.433,10.42,20.374,10.479Zm26.791-.059c0-.119.119-.178.237-.119h.059c.119,0,.178.119.119.237l-2.9,11.143c0,.119-.119.178-.237.119h-.059c-.119,0-.178-.119-.119-.237ZM43.015,24.052,46.749,25a1.593,1.593,0,0,0,1.956-1.126l3.5-13.336a1.593,1.593,0,0,0-1.126-1.956l-3.734-.948A1.593,1.593,0,0,0,45.386,8.76l-1.837,6.935H36.14a2.773,2.773,0,0,0-5.334,0H23.693l1.245-5.275a1.584,1.584,0,0,0-1.185-1.956l-3.734-.889A1.629,1.629,0,0,0,18.062,8.76l-3.2,13.4a1.584,1.584,0,0,0,1.185,1.956L19.781,25a1.584,1.584,0,0,0,1.956-1.185L23.4,16.88h7.35a2.645,2.645,0,0,0,2.134,2.193V41.359a2.837,2.837,0,0,0-2.074,2.075h-7.35V37.21a1.594,1.594,0,0,0-1.6-1.6H18a1.594,1.594,0,0,0-1.6,1.6v13.81a1.594,1.594,0,0,0,1.6,1.6h3.853a1.594,1.594,0,0,0,1.6-1.6V44.738h7.29a2.729,2.729,0,0,0,2.667,2.134,2.681,2.681,0,0,0,2.667-2.134h7.35v6.283a1.594,1.594,0,0,0,1.6,1.6h3.853a1.594,1.594,0,0,0,1.6-1.6V37.21a1.594,1.594,0,0,0-1.6-1.6H45.149a1.594,1.594,0,0,0-1.6,1.6v6.283H36.14a2.827,2.827,0,0,0-1.9-2.015v-22.4a2.691,2.691,0,0,0,1.9-2.134h7.053L41.83,22.1a1.711,1.711,0,0,0,1.185,1.956Z" transform="translate(-14.805 -7.538)" fill="#fff"/></svg>