<svg xmlns="http://www.w3.org/2000/svg" width="280.577" height="280.725" viewBox="0 0 280.577 280.725" aria-hidden="true" class="ase-certified-icon"><g transform="translate(-2.7 -2.66)" opacity="0.19"><path d="M38.084,80.49v4.3H27.411s-7.679.889-7.679-5.93V71.15s-.326-5.93,7.679-5.93H38.084v4.151H28.6s-2.372-.148-2.52,1.631v7.709s-.148,1.779,2.372,1.779Z" transform="translate(33.462 122.929)" fill="#004990"/><path d="M44.667,65.17v4.3H33.548v2.965H44.074v4.092H33.548v4H44.637v4.3H27.47V65.17Z" transform="translate(48.673 122.831)" fill="#004990"/><path d="M50.421,65.17a5.93,5.93,0,0,1,5.722,6.138,3.944,3.944,0,0,1,0,.83c-.3,5.93-4.6,5.485-4.892,5.633l4.892,7.116H49.62L42.5,74.213h5.337c2.817,0,2.817-1.927,2.817-1.927V71.248s0-1.779-2.965-1.779H41.17V84.887H35.24V65.17Z" transform="translate(63.941 122.831)" fill="#004990"/><path d="M60.674,65.17l-.148,4.3H54.773V84.887h-5.93V69.469H43.21v-4.3Z" transform="translate(79.602 122.831)" fill="#004990"/><rect width="5.93" height="19.717" transform="translate(143.833 188.001)" fill="#004990"/><path d="M71,65.17v4.3H59.878v2.965H70.4v4.092H59.878v8.3H53.8V65.17Z" transform="translate(100.411 122.831)" fill="#004990"/><rect width="5.93" height="19.717" transform="translate(175.559 188.001)" fill="#004990"/><path d="M81.667,65.17l.148,4.3H70.578v2.965h10.5v4.092h-10.5v4H81.667v4.3H64.5V65.17Z" transform="translate(121.436 122.831)" fill="#004990"/><path d="M93.4,69.479v9.34s0,5.93-5.04,5.93H72.05V65.18H86.727S92.953,64.676,93.4,69.479ZM87.883,78.7V71.555s0-2.075-2.52-2.075H78.247V80.6h7.709S87.883,80.479,87.883,78.7Z" transform="translate(136.272 122.821)" fill="#004990"/><path d="M282.98,133.831c.3,2.965.3,6.078.3,9.34s-.3,5.93-.3,8.895l-22.83,6.908h0c-3.558,1.038-.593,3.706-.593,3.706l19.776,13.876a131.788,131.788,0,0,1-5.93,18.205c-6.523-.3-20.755-.89-23.72-1.186-3.558-.3-1.779,3.261-1.779,3.261l14.321,20.31a138.347,138.347,0,0,1-11.415,15.121c-6.226-2.076-19.539-6.642-22.5-7.828-3.41-1.186-2.668,2.787-2.668,2.787l7.709,22.534a124.084,124.084,0,0,1-15.863,11.86c-5.189-3.854-16.485-12.3-19.272-14.528s-3.232,1.779-3.232,1.779l.267,24.135a163.279,163.279,0,0,1-17.316,5.93c-3.706-5.307-11.86-16.871-13.935-19.836s-3.706.593-3.706.593l-7.116,23.245c-3.41.3-6.968.445-10.526.445-2.668,0-5.337-.3-8.005-.3l-7.828-23.1s-2.076-2.965-3.706-.445-9.488,14.5-13.046,19.984a162.038,162.038,0,0,1-19.243-5.93l.3-23.987s-.445-4-3.41-1.779c-2.372,1.927-13.935,10.674-19.124,14.528a132.587,132.587,0,0,1-14.825-10.822l6.968-23.72s.3-3.706-2.668-2.52-15.981,6.226-22.208,8.6a126.929,126.929,0,0,1-12.156-16.752l14.113-19.954s1.779-3.558-1.779-3.261l-23.542,1.038a131.441,131.441,0,0,1-5.93-18.828l20.162-13.935s2.668-2.965-.445-3.854-17.345-5.307-23.423-7.235c-.148-2.668-.148-5.337-.148-8.005,0-3.558.3-6.968.3-10.526,6.523-1.779,19.421-5.337,22.83-6.226s.593-3.706.593-3.706L6.851,108.3a129.512,129.512,0,0,1,5.633-17.2L36,92.173c3.558.3,1.779-3.261,1.779-3.261L23.692,68.9A123.848,123.848,0,0,1,35.849,52.264c6.226,2.342,19.094,6.908,22.356,8.272s2.668-2.491,2.668-2.491L53.638,34.771A125.565,125.565,0,0,1,68.819,23.8c5.04,3.855,16.456,12.156,19.272,14.528S91.5,36.7,91.5,36.7l-.385-24.135a126.7,126.7,0,0,1,18.205-5.93c3.706,5.515,11.563,16.456,13.491,19.421s3.706-.593,3.706-.593l6.968-22.5c2.965-.3,6.226-.3,9.34-.3,3.706,0,7.264,0,10.793.3l7.116,23.1s1.631,3.558,3.706.593c1.631-2.668,9.933-14.084,13.55-19.539a137.488,137.488,0,0,1,17.345,5.6l-.3,24.165s.741,3.706,3.261,1.779,14.054-10.674,19.243-14.528a144.364,144.364,0,0,1,15.714,11.415l-8.005,23.127s-.3,3.647,2.669,2.639,17.049-5.752,22.979-7.828a128.86,128.86,0,0,1,11.237,15.566L247.9,89.03s-1.186,3.588,1.779,3.41,17.049-.889,23.72-1.186a142.556,142.556,0,0,1,5.722,18L259.557,123.78s-2.52,2.965.593,3.706S276.605,131.9,282.98,133.831ZM237.5,177.92v-22.5h-48v22.5Zm0-65.793V91.106H148.1c-.712,0-25.914.178-25.914,25.617h-3.825V91.106H77.477l-42.221,86.37,25.321.445,11.563-22.5h22.5v22.5h23.72V156.157h3.825v22.03h31.547s31.281.889,31.874-29.175c.593-25.2-30.391-26.981-30.391-26.981s-8.154-.3-8.154-6.226h0a3.973,3.973,0,0,1,4.3-3.617Zm0,32.615v-21.5h-48v21.5Zm-7.412,56.9V192.3c-.86-4.8-7.086-4.3-7.086-4.3H208.44V207.57h16.307c5.04,0,5.04-5.93,5.04-5.93ZM203.4,192.3V188H185.936v19.658H203.1v-4.3H192.014v-4h10.5v-4.092h-10.5V192.3Zm-21.911,15.418V188h-5.93v19.717ZM171.408,192.3V188h-17.2v19.658h6.078v-8.3h10.526v-4.092H160.289V192.3Zm-21.644,15.418V188h-5.93v19.717ZM140.127,192.3l.148-4.3H122.812v4.3h5.633v15.418h5.93V192.3Zm-20.043,1.838A5.93,5.93,0,0,0,114.361,188H99.092v19.717h5.93V192.3h6.523c2.965,0,2.965,1.779,2.965,1.779v1.038s0,1.927-2.817,1.927h-5.337l7.116,10.674h6.523L115.1,200.6c.3,0,4.6.3,4.892-5.633a3.943,3.943,0,0,0,.089-.83ZM93.4,192.3V188H76.2v19.658H93.369v-4.3H82.221v-4H92.747v-4.092H82.221V192.3ZM71.606,207.718v-4.3h-9.7c-2.52,0-2.372-1.779-2.372-1.779v-7.709c.148-1.779,2.52-1.631,2.52-1.631h9.488v-4.151H60.873c-8.005,0-7.679,5.93-7.679,5.93v7.709c0,6.819,7.679,5.93,7.679,5.93Z" transform="translate(0 0)" fill="#e3e5e7"/><path d="M98.662,73.432v.208a4.952,4.952,0,0,1-4.922,4.6h-.326a4.922,4.922,0,0,1-4.8-4.981h0a4.833,4.833,0,0,1,4.952-4.774h.356a4.863,4.863,0,0,1,4.744,4.952Zm-.919-.208a4.3,4.3,0,0,0-8.6-.237v.356a4.329,4.329,0,0,0,4.418,4.181h0a4.3,4.3,0,0,0,4.181-4.3Z" transform="translate(168.812 129.334)" fill="#e3e5e7"/><path d="M94.206,70.652a1.3,1.3,0,0,1-.534.978,1.661,1.661,0,0,1-.563.267H92.1l1.571,2.7H93.2l-1.631-2.52H90.114V74.6H89.64V69.17h2.609a1.987,1.987,0,0,1,.978.3,1.839,1.839,0,0,1,.593,1.186Zm-.741,0c0-.889-.741-.889-1.334-.889h-1.9v1.868h1.3a2.965,2.965,0,0,0,.86,0A1.008,1.008,0,0,0,93.465,70.652Z" transform="translate(170.836 130.691)" fill="#e3e5e7"/><path d="M90.507,70.15l1.631,2.52h-.267L90.24,70.15Z" transform="translate(172.015 132.617)" fill="#e3e5e7"/><path d="M90.845,71.179a.86.86,0,0,0,.8-.889c0-.83-.652-.889-1.216-.889h0c.593,0,1.334,0,1.334.889S91.408,71.179,90.845,71.179Z" transform="translate(172.388 131.143)" fill="#e3e5e7"/><path d="M90.717,69.185H90.48A.326.326,0,0,1,90.717,69.185Z" transform="translate(172.486 130.676)" fill="#e3e5e7"/><path d="M90.457,70v.059H90.19Z" transform="translate(171.917 132.322)" fill="#e3e5e7"/><rect width="0.267" height="5.426" transform="translate(260.328 199.861)" fill="#e3e5e7"/><path d="M113.555,54.18l.148,22.5h-48V54.18Z" transform="translate(123.794 101.236)" fill="#004990"/><path d="M158.16,32.49V53.512H72.175a3.973,3.973,0,0,0-4.3,3.617h0c0,5.93,8.154,6.226,8.154,6.226s30.984,1.779,30.391,26.981c-.593,30.065-31.874,29.175-31.874,29.175H43V97.542H74.577c2.224,0,8.154,0,7.709-7.561-.3-4.6-7.412-4.3-7.412-4.3H67.313S43,83.9,43,58.107,68.2,32.49,68.914,32.49Z" transform="translate(79.189 58.615)" fill="#004990"/><rect width="47.707" height="21.496" transform="translate(189.494 123.246)" fill="#004990"/><path d="M83.776,68.7v7.146c0,1.779-1.927,1.779-1.927,1.779H74.14v-11h7.116C83.924,66.62,83.776,68.7,83.776,68.7Z" transform="translate(140.379 125.68)" fill="#e3e5e7"/><rect width="7.116" height="0.119" transform="translate(214.519 192.182)" fill="#007dbc"/><path d="M84.821,73c.445,7.561-5.485,7.561-7.709,7.561H41.71V41.13h3.825c0,25.8,24.313,27.574,24.313,27.574h7.561S84.524,68.408,84.821,73Z" transform="translate(76.654 75.593)" fill="#e3e5e7"/><path d="M96.789,97.542V119.3H73.069V96.8h-22.5L39,119.3,13.68,118.86,55.9,32.49H96.789ZM73.069,83.606V50.547L56.643,83.606Z" transform="translate(21.576 58.615)" fill="#004990"/><path d="M44.6,38.64V71.522H28.17Z" transform="translate(50.048 70.7)" fill="#e3e5e7"/><path d="M44.6,38.58v.178L28.17,71.64Z" transform="translate(50.048 70.582)" fill="#007dbc"/></g></svg>