<svg xmlns="http://www.w3.org/2000/svg" width="94.63" height="94.68" aria-hidden="true"><path d="M23.22 67.71v1.45h-3.6s-2.59.3-2.59-2v-2.6s-.11-2 2.59-2h3.6v1.4h-3.2s-.8-.05-.85.55v2.6s-.05.6.8.6ZM30.57 62.51v1.45h-3.75v1h3.55v1.38h-3.55v1.35h3.74v1.45h-5.79v-6.63ZM37.66 62.51a2 2 0 0 1 1.93 2.07 1.33 1.33 0 0 1 0 .28c-.1 2-1.55 1.85-1.65 1.9l1.65 2.4h-2.2l-2.4-3.6h1.8c.95 0 .95-.65.95-.65v-.35s0-.6-1-.6h-2.2v5.2h-2v-6.65ZM46.4 62.51l-.05 1.45h-1.94v5.2h-2v-5.2h-1.9v-1.45ZM47.6 62.51h2v6.65h-2zM56.9 62.51v1.45h-3.75v1h3.55v1.38h-3.55v2.8H51.1v-6.63ZM58.3 62.51h2v6.65h-2zM67.59 62.51l.05 1.45h-3.79v1h3.54v1.38h-3.54v1.35h3.74v1.45H61.8v-6.63ZM76.55 63.96v3.15s0 2-1.7 2h-5.5v-6.6h4.95s2.1-.17 2.25 1.45Zm-1.86 3.11v-2.41s0-.7-.85-.7h-2.4v3.75h2.6s.65-.04.65-.64Z" fill="#fff"/><path d="M94.53 44.24c.1 1 .1 2.05.1 3.15s-.1 2-.1 3l-7.7 2.33c-1.2.35-.2 1.25-.2 1.25l6.67 4.68a44.449 44.449 0 0 1-2 6.14c-2.2-.1-7-.3-8-.4-1.2-.1-.6 1.1-.6 1.1l4.83 6.85a46.66 46.66 0 0 1-3.85 5.1c-2.1-.7-6.59-2.24-7.59-2.64-1.15-.4-.9.94-.9.94l2.6 7.6a41.85 41.85 0 0 1-5.35 4c-1.75-1.3-5.56-4.15-6.5-4.9s-1.09.6-1.09.6l.09 8.14a55.069 55.069 0 0 1-5.84 2c-1.25-1.79-4-5.69-4.7-6.69s-1.25.2-1.25.2l-2.4 7.84c-1.15.1-2.35.15-3.55.15-.9 0-1.8-.1-2.7-.1l-2.64-7.79s-.7-1-1.25-.15-3.2 4.89-4.4 6.74a54.649 54.649 0 0 1-6.49-2l.1-8.09s-.15-1.35-1.15-.6c-.8.65-4.7 3.6-6.45 4.9a44.718 44.718 0 0 1-5-3.65l2.35-8s.1-1.25-.9-.85-5.39 2.1-7.49 2.9a42.81 42.81 0 0 1-4.1-5.65l4.76-6.73s.6-1.2-.6-1.1l-7.94.35a44.331 44.331 0 0 1-2-6.35l6.8-4.7s.9-1-.15-1.3-5.85-1.79-7.9-2.44c-.05-.9-.05-1.8-.05-2.7 0-1.2.1-2.35.1-3.55 2.2-.6 6.55-1.8 7.7-2.1s.2-1.25.2-1.25l-6.6-4.84a43.68 43.68 0 0 1 1.9-5.8l7.93.36c1.2.1.6-1.1.6-1.1l-4.75-6.75a41.77 41.77 0 0 1 4.1-5.61c2.1.79 6.44 2.33 7.54 2.79s.9-.84.9-.84l-2.44-7.85a42.349 42.349 0 0 1 5.12-3.7c1.7 1.3 5.55 4.1 6.5 4.9s1.15-.55 1.15-.55l-.13-8.14a42.731 42.731 0 0 1 6.14-2c1.25 1.86 3.9 5.55 4.55 6.55s1.25-.2 1.25-.2L44.11.1c1-.1 2.1-.1 3.15-.1 1.25 0 2.45 0 3.64.1l2.4 7.79s.55 1.2 1.25.2c.55-.9 3.35-4.75 4.57-6.59a46.371 46.371 0 0 1 5.85 1.89l-.1 8.15s.25 1.25 1.1.6 4.74-3.6 6.49-4.9a48.689 48.689 0 0 1 5.3 3.85l-2.7 7.8s-.1 1.23.9.89 5.75-1.94 7.75-2.64a43.461 43.461 0 0 1 3.79 5.25l-4.8 6.74s-.4 1.21.6 1.15 5.75-.3 8-.4a48.081 48.081 0 0 1 1.93 6.07l-6.6 4.9s-.85 1 .2 1.25 5.55 1.49 7.7 2.14ZM79.19 59.11v-7.59H63v7.59Zm0-22.19v-7.09H49.04c-.24 0-8.74.06-8.74 8.64h-1.29v-8.64H25.22L10.98 58.96l8.54.15 3.9-7.59h7.59v7.59h8v-7.34h1.29v7.43h10.64s10.55.3 10.75-9.84c.2-8.5-10.25-9.1-10.25-9.1s-2.75-.1-2.75-2.1a1.34 1.34 0 0 1 1.45-1.22Zm0 11v-7.25H63v7.25Zm-2.5 19.19v-3.15c-.29-1.62-2.39-1.45-2.39-1.45h-4.91v6.6h5.5c1.7 0 1.7-2 1.7-2Zm-9-3.15v-1.45H61.8v6.63h5.79v-1.45h-3.74v-1.35h3.54v-1.38h-3.54v-1Zm-7.39 5.2v-6.65h-2v6.65Zm-3.4-5.2v-1.45h-5.8v6.63h2.05v-2.8h3.55v-1.38h-3.55v-1Zm-7.3 5.2v-6.65h-2v6.65Zm-3.25-5.2.05-1.45h-5.89v1.45h1.9v5.2h2v-5.2Zm-6.76.62a2 2 0 0 0-1.93-2.07h-5.15v6.65h2v-5.2h2.2c1 0 1 .6 1 .6v.35s0 .65-.95.65h-1.8l2.4 3.6h2.2l-1.65-2.4c.1 0 1.55.1 1.65-1.9a1.33 1.33 0 0 0 .03-.28Zm-9-.62v-1.45h-5.8v6.63h5.79v-1.45h-3.76v-1.35h3.55v-1.38h-3.55v-1Zm-7.35 5.2v-1.45h-3.27c-.85 0-.8-.6-.8-.6v-2.6c.05-.6.85-.55.85-.55h3.2v-1.4h-3.6c-2.7 0-2.59 2-2.59 2v2.6c0 2.3 2.59 2 2.59 2Z" fill="#004990"/><path d="M89.3 67.49v.07a1.67 1.67 0 0 1-1.66 1.55h-.11a1.66 1.66 0 0 1-1.62-1.68 1.63 1.63 0 0 1 1.67-1.61h.12a1.64 1.64 0 0 1 1.6 1.67Zm-.31-.07a1.451 1.451 0 1 0-2.9-.08v.12a1.46 1.46 0 0 0 1.49 1.41 1.45 1.45 0 0 0 1.41-1.45Z" fill="#0079c0"/><path d="M88.48 67.01a.44.44 0 0 1-.18.33.56.56 0 0 1-.19.09h-.34l.53.91h-.16l-.55-.85h-.49v.85h-.16v-1.83h.88a.67.67 0 0 1 .33.1.62.62 0 0 1 .2.4Zm-.25 0c0-.3-.25-.3-.45-.3h-.64v.63h.44a1 1 0 0 0 .29 0 .34.34 0 0 0 .36-.33Z" fill="#0079c0"/><path d="m87.63 67.49.55.85h-.09l-.55-.85ZM87.87 67.34a.29.29 0 0 0 .27-.3c0-.28-.22-.3-.41-.3.2 0 .45 0 .45.3s-.12.3-.31.3ZM87.86 66.51h-.08a.11.11 0 0 1 .08 0ZM87.58 67.34v.02h-.09ZM86.89 66.51h.09v1.83h-.09z" fill="#0079c0"/><path d="m79.14 51.52.05 7.59H63v-7.59Z" fill="#fff"/><path d="M79.14 29.83v7.09h-29a1.34 1.34 0 0 0-1.45 1.22c0 2 2.75 2.1 2.75 2.1s10.45.6 10.25 9.1c-.2 10.14-10.75 9.84-10.75 9.84H40.3v-7.41h10.65c.75 0 2.75 0 2.6-2.55-.1-1.55-2.5-1.45-2.5-1.45H48.5s-8.2-.6-8.2-9.3 8.5-8.64 8.74-8.64Z" fill="#fff"/><path fill="#fff" d="M63 40.67h16.09v7.25H63z"/><path d="M74.69 64.66v2.41c0 .6-.65.6-.65.6h-2.6v-3.71h2.4c.9 0 .85.7.85.7Z" fill="#004990"/><path fill="#007dbc" d="M71.44 63.92h2.4v.04h-2.4z"/><path d="M53.55 49.22c.15 2.55-1.85 2.55-2.6 2.55H39.01v-13.3h1.29c0 8.7 8.2 9.3 8.2 9.3h2.55s2.4-.1 2.5 1.45Z" fill="#004990"/><path d="M39.01 51.77v7.34h-8v-7.59h-7.59l-3.9 7.59-8.54-.15 14.24-29.13h13.79Zm-8-4.7V35.92l-5.54 11.15Z" fill="#fff"/><path d="M31.01 35.98v11.09h-5.54Z" fill="#004990"/><path d="M31.01 35.92v.06l-5.54 11.09Z" fill="#007dbc"/></svg>