<svg xmlns="http://www.w3.org/2000/svg" width="51.54" height="47.482" viewBox="0 0 51.54 47.482"><path d="M12.645,7.729l-1.2-1.2a23.741,23.741,0,1,1,.362,34.756l1.2-1.2a22.045,22.045,0,1,0-.363-32.36ZM27.809,36.011a12.27,12.27,0,1,0-12.323-12.27A12.3,12.3,0,0,0,27.809,36.011Zm0,1.7A13.966,13.966,0,1,1,41.827,23.741,13.992,13.992,0,0,1,27.809,37.707Zm-.055-10.142a3.89,3.89,0,1,0-3.912-3.89A3.9,3.9,0,0,0,27.753,27.565Zm0,1.7a5.586,5.586,0,1,1,5.607-5.586A5.6,5.6,0,0,1,27.753,29.261Zm.73-13.784a1.131,1.131,0,1,1,.414-1.544A1.131,1.131,0,0,1,28.483,15.476ZM35.358,20.1a1.131,1.131,0,1,1,1.544-.414A1.131,1.131,0,0,1,35.358,20.1Zm-.565,8.265a1.131,1.131,0,1,1,1.131,1.131A1.131,1.131,0,0,1,34.793,28.363Zm-7.44,3.643a1.131,1.131,0,1,1-.414,1.544A1.131,1.131,0,0,1,27.353,32.006Zm-6.875-4.622a1.131,1.131,0,1,1-1.544.414A1.131,1.131,0,0,1,20.478,27.384Zm.565-8.265a1.131,1.131,0,1,1-1.131-1.131A1.131,1.131,0,0,1,21.043,19.119Zm-6.013-6.127a15.321,15.321,0,0,0,0,21.725L7.6,42.124a25.767,25.767,0,0,1,0-36.538Z" transform="translate(0)" fill="#fff"/></svg>