<svg xmlns="http://www.w3.org/2000/svg" viewBox="0 0 64 64" style="enable-background:new 0 0 64 64" xml:space="preserve" aria-hidden="true"><path d="M9.8 27.1h2.1c-1.4 1.5-2.3 3.5-2.3 5.7L9 39.9v.2c0 1.7 1 3.2 2.4 3.9v3.9c0 1.2 1 2.2 2.2 2.2h4.8c1.2 0 2.2-1 2.2-2.2v-3.3h22.8v3.3c0 1.2 1 2.2 2.2 2.2h4.8c1.2 0 2.2-1 2.2-2.2v-3.8c1.4-.7 2.4-2.2 2.4-3.9V40l-.5-7.1c0-2.2-.9-4.2-2.3-5.7h2.1c.5 0 .9-.4.9-.9l.4-2.5c0-.5-.4-.9-.9-.9h-5.2L48 18.4c-1-2.9-3.3-4.6-6.3-4.6H22.3c-4 0-5.9 3-6.3 4.7l-1.5 4.4H9.4c-.5 0-.9.4-.9.9l.4 2.5c0 .4.4.8.9.8zm9.1-7.7s.6-2.5 3.4-2.5h19.3c1.7 0 2.8.9 3.4 2.5l2.3 6.9H16.7l2.2-6.9zm-6.7 19 .5-4.7c0-2.3 1.4-4.9 3.4-5.7h31.7c2.1.8 3.6 3.4 3.6 5.8l.4 4.8.1 1.7c0 .7-.6 1.3-1.3 1.3H13.4c-.7 0-1.3-.6-1.3-1.3l.1-1.9zm3.5-2.7c0-1.8-.2-3.2 2.3-3.2 5.2 0 5.7 1.4 5.7 3.2 0 1.5 0 2.8-3.7 3.1-.6 0-1.2.1-1.9.1-.9 0-1.5-.3-1.8-.9-.4-.6-.6-1.4-.6-2.3zm25.7 0c0-1.8.5-3.2 5.7-3.2 2.5 0 2.3 1.4 2.3 3.2 0 .9-.2 1.7-.5 2.3-.4.6-1 .9-1.8.9-1.3 0-2.3-.1-3.1-.2-.9-.2-1.5-.4-1.8-.7-.8-.6-.8-1.4-.8-2.3zm-16.5 2.2c.3-.8.3-1.6.3-2.2h14.6c0 .7 0 1.5.4 2.2H24.9z"/><script/></svg>