<svg xmlns="http://www.w3.org/2000/svg" width="241.171" height="156" viewBox="0 0 241.171 156"><path d="M382.2,70.665H380.6s-71.573-1.138-77.2-1.138c-51.7,0-88.36,31.655-88.36,79.479,0,35.983,25.049,75.38,82.439,75.38,2.634,0,9.586-.379,9.586-.379l-2.945-7.971s-3.245-.3-5.048-.3c-34.156-.161-58.526-28.924-58.526-71.282,0-34.389,19.812-66.273,56.933-66.273,14.268,0,25.158,3.465,32.892,11.708C313.977,104.841,305,126.791,305,149.463c0,23.295,9.312,43.355,24.346,57.018a37.238,37.238,0,0,1-13.641,8.8l3.185,6.83c5.061-1.36,11.351-5.178,17.864-9.754a74.869,74.869,0,0,0,42.941,13.171c41.9,0,76.519-30.064,76.519-79.253C456.212,100.725,421.6,70.665,382.2,70.665Zm-42.129,85.273c0,11.5-.268,20.524-1.31,28.236-5.285-11.5-8.256-25.384-8.256-40.636,0-15.946,3.2-29.046,8.524-39.182.363.964.714,1.952,1.043,2.976Zm44.406,61.16c-13.565,0-25.408-5.831-34.524-15.774,8.8-10.045,11.3-22.387,11.3-40.432V93.956c0-1.317.02-2.518.059-3.637.712-1.108,9.488-13.872,30.911-8.94,22.257,7.242,38.49,31.64,38.49,71.044C430.706,195.92,409.072,217.1,384.473,217.1Z" transform="translate(-215.041 -69.527)" fill="#9f8a58"/></svg>