<svg xmlns="http://www.w3.org/2000/svg" width="100" height="100" viewBox="0 0 100 100" aria-hidden="true"><g transform="translate(1687 984)"><g transform="translate(-1684.4 -984.5)"><path d="M12.4,88.436a2.663,2.663,0,0,0,2.713,2.713h8.319a2.663,2.663,0,0,0,2.713-2.713V82.83h6.33v8.5a1.426,1.426,0,0,0,1.447,1.447h6.872A1.426,1.426,0,0,0,42.24,91.33v-.181l2.17,1.989a1.381,1.381,0,0,0,.9.362h4.34c.362,0,.543-.181.9-.362l2.713-2.17v.181A1.426,1.426,0,0,0,54.719,92.6h6.872a1.426,1.426,0,0,0,1.447-1.447v-8.5h6.511v5.606a2.663,2.663,0,0,0,2.713,2.713H80.4a2.663,2.663,0,0,0,2.713-2.713V71.436A2.663,2.663,0,0,0,80.4,68.723H72.081a2.663,2.663,0,0,0-2.713,2.713v5.606H62.857V73.968a1.426,1.426,0,0,0-1.447-1.447h-4.16V69.628c0-.362,0-.543-.181-.723L54,64.564v-7.6a2.294,2.294,0,0,0-.181-1.085l-1.447-3.436a3.549,3.549,0,0,0-1.628-1.628V39.606h1.266a1.447,1.447,0,0,0,0-2.894H44.049a1.447,1.447,0,1,0,0,2.894h1.085V50.819a1.963,1.963,0,0,0-1.447,1.447L42.06,55.7a2.614,2.614,0,0,0-.362,1.266v7.415l-3.074,4.7a1.087,1.087,0,0,0-.181.723V72.7h-4.16a1.426,1.426,0,0,0-1.447,1.447v3.074h-6.33V71.617A2.663,2.663,0,0,0,23.794,68.9h-8.5a2.663,2.663,0,0,0-2.713,2.713V88.436ZM55.8,75.6h4.16V89.883H55.8ZM49.113,90.787H46.219l-2.894-2.532h9.043Zm-4.7-33.638,1.628-3.436h3.8l1.447,3.436v5.426H44.591V57.149Zm.181,8.138H51.1l2.17,3.255H42.421Zm-3.436,5.968H54.538V72.7a1.426,1.426,0,0,0-1.447,1.447V85.362H42.6V74.149A1.426,1.426,0,0,0,41.155,72.7V71.255ZM35.549,75.6h4.16V89.883h-4.16ZM12.4,11.213V28.032a2.663,2.663,0,0,0,2.713,2.713h8.319a2.663,2.663,0,0,0,2.713-2.713V22.426H37.9a2.781,2.781,0,0,0,2.713,2.713h1.266a6.172,6.172,0,0,0,2.713,3.979v2.351H43.506a1.447,1.447,0,1,0,0,2.894h7.957a1.447,1.447,0,0,0,0-2.894H50.2V29.3a5.589,5.589,0,0,0,2.713-3.979h2.17a2.663,2.663,0,0,0,2.713-2.713H69.368v5.606a2.663,2.663,0,0,0,2.713,2.713H80.4a2.663,2.663,0,0,0,2.713-2.713v-17A2.663,2.663,0,0,0,80.4,8.5H72.081a2.663,2.663,0,0,0-2.713,2.713v5.606H57.794a2.663,2.663,0,0,0-2.713-2.713H41.155a2.663,2.663,0,0,0-2.713,2.713H26.687V11.213A2.663,2.663,0,0,0,23.974,8.5H15.294A2.822,2.822,0,0,0,12.4,11.213Zm28.574,5.606H54.9v5.606H50.56v1.809a1.087,1.087,0,0,1-.181.723H44.953c0-.181-.181-.543-.181-.723V22.426H40.794V16.819Z" transform="translate(0 0)"/></g><rect width="100" height="100" transform="translate(-1687 -984)" fill="none"/></g></svg>