<svg xmlns="http://www.w3.org/2000/svg" width="63.495" height="76.324"><path d="M0 71.777a2.392 2.392 0 0 0 2.436 2.436h7.47a2.392 2.392 0 0 0 2.436-2.436v-5.034h5.684v7.632a1.281 1.281 0 0 0 1.3 1.3H25.5a1.281 1.281 0 0 0 1.3-1.3v-.162L28.743 76a1.24 1.24 0 0 0 .812.325h3.9c.325 0 .487-.162.812-.325l2.433-1.949v.162a1.281 1.281 0 0 0 1.3 1.3h6.171a1.281 1.281 0 0 0 1.3-1.3v-7.632h5.846v5.034a2.392 2.392 0 0 0 2.436 2.436h7.308a2.392 2.392 0 0 0 2.439-2.436v-15.1a2.392 2.392 0 0 0-2.436-2.436h-7.47a2.392 2.392 0 0 0-2.436 2.436v5.034h-5.851v-2.763a1.281 1.281 0 0 0-1.3-1.3h-3.734v-2.6c0-.325 0-.487-.162-.65l-2.761-3.9v-6.82a2.06 2.06 0 0 0-.162-.974l-1.3-3.085A3.186 3.186 0 0 0 34.427 38V27.931h1.137a1.3 1.3 0 1 0 0-2.6h-7.145a1.3 1.3 0 1 0 0 2.6h.974V38a1.762 1.762 0 0 0-1.3 1.3l-1.462 3.085a2.347 2.347 0 0 0-.325 1.137v6.658l-2.759 4.22a.976.976 0 0 0-.162.65v2.6h-3.736a1.281 1.281 0 0 0-1.3 1.3v2.761h-5.682v-5.036a2.392 2.392 0 0 0-2.436-2.436H2.6a2.392 2.392 0 0 0-2.436 2.436v15.1Zm38.974-11.53h3.735v12.829h-3.735Zm-6.008 13.641h-2.6l-2.6-2.273h8.12Zm-4.222-30.2L30.2 40.6h3.41l1.3 3.085v4.872h-6.004v-4.873Zm.162 7.308h5.846l1.948 2.918h-9.743ZM25.82 56.35h12.017v1.3a1.281 1.281 0 0 0-1.3 1.3v10.067H27.12V58.948a1.281 1.281 0 0 0-1.3-1.3v-1.3Zm-5.034 3.9h3.735v12.826h-3.735ZM0 2.436v15.1a2.392 2.392 0 0 0 2.436 2.436h7.47a2.392 2.392 0 0 0 2.436-2.436V12.5H22.9a2.5 2.5 0 0 0 2.436 2.436h1.134a5.542 5.542 0 0 0 2.436 3.573v2.111h-.974a1.3 1.3 0 1 0 0 2.6h7.145a1.3 1.3 0 1 0 0-2.6H33.94v-1.945a5.019 5.019 0 0 0 2.436-3.575h1.949a2.392 2.392 0 0 0 2.436-2.436h10.393V17.7a2.392 2.392 0 0 0 2.436 2.436h7.47A2.392 2.392 0 0 0 63.5 17.7V2.436A2.392 2.392 0 0 0 61.059 0h-7.47a2.392 2.392 0 0 0-2.436 2.436V7.47H40.76a2.392 2.392 0 0 0-2.436-2.436H25.82a2.392 2.392 0 0 0-2.436 2.436H12.829V2.436A2.392 2.392 0 0 0 10.393 0H2.6A2.534 2.534 0 0 0 0 2.436ZM25.658 7.47h12.5v5.03h-3.9v1.624a.976.976 0 0 1-.162.65h-4.865c0-.162-.162-.487-.162-.65V12.5H25.5V7.47Z" fill="#004990"/></svg>