<svg xmlns="http://www.w3.org/2000/svg" width="29.703" height="21.672" viewBox="0 0 29.703 21.672"><path d="M17.018,20.233A7.563,7.563,0,0,1,17.8,18.6a18.167,18.167,0,0,1,1.519-2.1h0l-1.881-.759a1.943,1.943,0,0,1,.588-.154,2.12,2.12,0,0,1,1.079.219,1.377,1.377,0,0,1,.776,1.007,4.542,4.542,0,0,1-.605,2.487,4.434,4.434,0,0,1-2.46,2.37A3.232,3.232,0,0,1,17.018,20.233ZM.543,14.21C.148,14.048.115,13.4.239,12.8L.33,12.4l14.73,6.567a8.531,8.531,0,0,1,.69-1.5,4.712,4.712,0,0,1,.755-1.051l1.272.51a.366.366,0,0,1-.025.038,10.187,10.187,0,0,0-.775,1.129,9.56,9.56,0,0,0-.944,1.989h0l-.019.057a1.569,1.569,0,0,0-.071.258c-.014.077-.026.151-.038.213-.091.477-.038.833.175.995Zm-.514-3a3.759,3.759,0,0,1,.243-.793c.476-1.12,1.341-1.8,1.944-1.546l16.228,5.793.047.018c-1.186-.315-2.727.655-3.6,2.346a5.84,5.84,0,0,0-.3.67ZM16.5,16.417h0Zm.357-3.359h-.008L6.418,9.336V6.3l9.776,2.319L22.6,6.443v5.012c0,.6-1.319,1.169-3.353,1.466a20.683,20.683,0,0,1-2.361.137ZM.026,11.2h0v0Zm26.319-2.4v-.82a1.162,1.162,0,0,1,.691-1.065h0V4.941l.969-.323v2.3a1.16,1.16,0,0,1,.683,1.066v.818a1.172,1.172,0,1,1-2.343,0ZM6.418,5.3,0,3.785,13.812,0,29.7,3.015,22.6,5.426,16.148,7.608Z" fill="#fff"/></svg>