<svg xmlns="http://www.w3.org/2000/svg" width="100" height="100" viewBox="0 0 100 100"><g transform="translate(1758 1002)"><g transform="translate(-1758.5 -1001.7)"><path d="M14.843,87.907H87.338a2.863,2.863,0,0,0,2.9-2.9V38.067H93.5V24.293H84.982v-5.8c0-2.9-1.631-7.793-12.324-7.793s-12.324,4.893-12.324,7.793v5.8H41.485v-5.8c0-2.9-1.631-7.793-12.324-7.793s-12.324,4.893-12.324,7.793v5.8H8.5V38.067h3.262v46.94A3.15,3.15,0,0,0,14.843,87.907Zm7.974-69.414c0-1.269,3.262-1.812,6.343-1.812,3.262,0,6.343.544,6.343,1.812v5.8H22.818ZM17.743,38.067h66.7V81.926h-66.7Zm34.8,15.768h9.424L42.391,75.945l5.8-15.768H40.216L46.56,44.772H56.89Z" transform="translate(0 0)" fill="#004990"/></g><rect width="100" height="100" transform="translate(-1758 -1002)" fill="none"/></g></svg>