<svg xmlns="http://www.w3.org/2000/svg" width="98.997" height="67" viewBox="0 0 98.997 67" aria-hidden="true"><path d="M27.111,72.246h-13.5a3,3,0,0,1-3-3V53.439H4.715V65.544a2,2,0,0,1-2,2H2a2,2,0,0,1-2-2V34.281a2,2,0,0,1,2-2h.715a2,2,0,0,1,2,2V47.561h5.894V39.982a3,3,0,0,1,3-3h6.744l3.553-6.643a3,3,0,0,1,2.645-1.585h9.99V21.7H27.933a2,2,0,0,1-2-2V19a2,2,0,0,1,2-2H59.3a2,2,0,0,1,2,2v.7a2,2,0,0,1-2,2H50.687v7.053H63.034a3,3,0,0,1,2.645,1.585l3.553,6.643h4.387a3,3,0,0,1,3,3v6.4h5.894V41.158a3,3,0,0,1,3-3h8.471a3,3,0,0,1,2.98,2.656l2.013,17.433a3,3,0,0,1,0,.665L96.947,77.795a3,3,0,0,1-2.983,2.679H85.513a3,3,0,0,1-3-3V72.246H76.426V81a3,3,0,0,1-3,3H39.054a3,3,0,0,1-2.227-.99Zm-12.5-4H28.889L39.5,80H72.426V68.246H86.513v8.228h6.553l1.925-17.879-1.9-16.437h-6.58v8.228H72.619v-9.4H66.836l-4.4-8.228H46.687V21H40.542V32.754H27.151l-4.4,8.228H14.609ZM43.45,46H55.8l-5.678,9.659H57L45.247,70V59.254H38Z" transform="translate(0 -17)"/></svg>