<svg xmlns="http://www.w3.org/2000/svg" viewBox="0 0 64 64" style="enable-background:new 0 0 64 64" xml:space="preserve"><path d="M55 22.8V12.4h-8.1V9.7H34.1v2.7H20.9V8.5H10.6v3.9H9v10.5h1.5v19.3H9v10.5h8.1v2.8h8.5v-2.8h12.8v2.8h8.5v-2.8H55V42.2h-1.5V22.8H55zM13.6 11.6h4.3v2.3h-4.3v-2.3zm38.3 38H12.1v-4.4h39.8v4.4zm-34.8-7.3c.4 0 .8-.3.8-.8V21.3h7v20.2c0 .4.3.8.8.8.4 0 .8-.3.8-.8V21.3h7v20.2c0 .4.3.8.8.8s.8-.3.8-.8V21.3h7v20.2c0 .4.3.8.8.8s.8-.3.8-.8V21.3h7v22.4H48V23.6c0-.4-.3-.8-.8-.8-.4 0-.8.3-.8.8v20.1h-7V23.6c0-.4-.3-.8-.8-.8s-.8.3-.8.8v20.1h-7V23.6c0-.4-.3-.8-.8-.8-.4 0-.8.3-.8.8v20.1h-7V23.6c0-.4-.3-.8-.8-.8-.4 0-.8.3-.8.8v20.1h-7V21.3h2.7v20.2c0 .4.4.8.8.8zm34.8-22.5H12.1v-4.4h39.8v4.4z"/><script/></svg>