<svg xmlns="http://www.w3.org/2000/svg" width="100" height="100" viewBox="0 0 100 100"><g transform="translate(1708 990)"><rect width="100" height="100" transform="translate(-1708 -990)" fill="none"/><g transform="translate(-1628.345 -1011.9)"><g transform="translate(-65.655 26.9)"><path d="M93.311,132.142a2.91,2.91,0,1,0,3.954-4.271h0l33.058-36.38h0a2.91,2.91,0,1,0,3.954-4.271l-17.162-15.58h0L128.742,58.83,120.121,51,108.5,63.812h0l-4.271-3.875a2.91,2.91,0,0,0-3.954,4.271l-33.058,36.38h0a2.91,2.91,0,1,0-3.954,4.271l17.162,15.58h0L68.794,133.25,77.336,141l11.626-12.812h0ZM73.3,133.17l9.649-10.6,3.875,3.559-9.649,10.6Zm47.056-77.663,3.875,3.559-9.648,10.6-3.875-3.559ZM69.585,102.8l33.058-36.38,25.308,22.935-33.058,36.38Z" transform="translate(-62.345 -51)" fill="#004990"/></g></g></g></svg>