<svg xmlns="http://www.w3.org/2000/svg" width="20.001" height="16" viewBox="0 0 20.001 16" aria-hidden="true"><path d="M15.751,11.025H4.263a.251.251,0,0,0-.25.25l0,1.5a.251.251,0,0,0,.25.25H15.751a.251.251,0,0,0,.25-.25v-1.5A.251.251,0,0,0,15.751,11.025Zm0,3H4.253a.251.251,0,0,0-.25.25l0,1.5a.251.251,0,0,0,.25.25h11.5a.251.251,0,0,0,.25-.25v-1.5A.251.251,0,0,0,15.751,14.025Zm0-6H4.269a.251.251,0,0,0-.25.25l0,1.5a.251.251,0,0,0,.25.25H15.751a.251.251,0,0,0,.25-.25v-1.5A.251.251,0,0,0,15.751,8.025Zm3.328-4.344L10.576.14a1.5,1.5,0,0,0-1.153,0L.922,3.681A1.5,1.5,0,0,0,0,5.065v10.71a.251.251,0,0,0,.25.25h2.5a.251.251,0,0,0,.25-.25V8.025a1.011,1.011,0,0,1,1.019-1H15.982a1.011,1.011,0,0,1,1.019,1v7.75a.251.251,0,0,0,.25.25h2.5a.251.251,0,0,0,.25-.25V5.065A1.5,1.5,0,0,0,19.079,3.681Z" transform="translate(0 -0.025)" fill="#004990"/></svg>