<svg xmlns="http://www.w3.org/2000/svg" viewBox="0 0 1797.383 395.579" class="mt-swoosh"><g transform="translate(2778.297 -2571.362)"><path d="M1792.2,213.511,0,212.455c.027-.014.191-.052.488-.12,10.446-2.4,67.009-15.249,154.891-33.076,89.584-18.173,231.931-45.595,401.333-73.031,190.4-30.838,375.475-55.409,550.08-73.031C1325.047,11.169,1527.461,0,1708.412,0c28.29,0,56.481.275,83.789.818l3.354.068v211.8c-2.1.521-3.26.8-3.349.823h-.006Z" transform="translate(-2777.67 2744.32)" fill="#fff"/><path d="M0,372l0-.006v0H0V309.484c106.824-38.5,219-74.3,333.4-106.389,137.359-38.526,279.626-72.169,422.847-100,79.913-15.525,161.512-29.5,242.529-41.542,86.441-12.849,174.582-23.842,261.973-32.676,92.7-9.371,187.049-16.564,280.439-21.382C1625.222,3.166,1710.8.642,1795.561,0V151.72C1062.175,157.494,414.334,274.7,0,372Z" transform="translate(-2776.975 2594.066)" fill="#003a7f" stroke="rgba(0,0,0,0)" stroke-miterlimit="10" stroke-width="1"/><path d="M0,366.039H0l0-65.77c106.985-37.816,219.045-72.88,333.07-104.221C469,158.686,609.641,126.1,751.095,99.191c78.729-14.976,159-28.439,238.593-40.014,84.9-12.349,171.4-22.908,257.106-31.382,90.749-8.978,183.173-15.871,274.705-20.489C1612.222,2.732,1704.429.274,1795.559,0V151.715C1064.3,154.791,415.5,269.963,0,366.039Z" transform="translate(-2776.974 2571.863)" fill="#ffd400" stroke="rgba(0,0,0,0)" stroke-miterlimit="10" stroke-width="1"/></g></svg>