<svg xmlns="http://www.w3.org/2000/svg" width="437.811" height="97.068" viewBox="0 0 437.811 97.068" class="mt-swoosh"><g transform="translate(2778.81 -2571.362)"><path d="M435.186,86.757,0,86.5c.007,0,.046-.013.118-.029,2.537-.582,16.271-3.7,37.611-8.032,21.753-4.413,56.318-11.071,97.452-17.734,46.234-7.488,91.174-13.455,133.572-17.734,53-5.349,102.148-8.061,146.087-8.061,6.87,0,13.715.067,20.346.2l.815.017v51.43l-.813.2h0Z" transform="translate(-2777.67 2578.827)" fill="#fff"/><path d="M0,331.585v0H0V316.4c25.939-9.35,53.177-18.041,80.957-25.834,33.354-9.355,67.9-17.524,102.677-24.281,19.4-3.77,39.219-7.164,58.891-10.087,20.99-3.12,42.392-5.789,63.613-7.934,22.509-2.275,45.42-4.022,68.1-5.192,20.4-1.052,41.185-1.665,61.766-1.821V278.1c-178.082,1.4-335.392,29.861-436,53.489Z" transform="translate(-2777.5 2336)" fill="#003a7f" stroke="rgba(0,0,0,0)" stroke-miterlimit="10" stroke-width="1"/><path d="M53.5,88.882h0V72.912c25.978-9.183,53.189-17.7,80.877-25.307,33.005-9.072,67.157-16.985,101.5-23.519C255,20.449,274.49,17.18,293.817,14.369c20.615-3,41.62-5.562,62.431-7.62,22.036-2.18,44.479-3.854,66.7-4.975C444.982.663,467.372.067,489.5,0V36.84C311.933,37.587,154.392,65.553,53.5,88.882Z" transform="translate(-2831 2571.863)" fill="#ffd400" stroke="rgba(0,0,0,0)" stroke-miterlimit="10" stroke-width="1"/></g></svg>