<svg xmlns="http://www.w3.org/2000/svg" width="200.501" height="559" viewBox="0 0 200.501 559"><g transform="translate(1255 -2875.5)"><path d="M955.946,558H818.717l-.012-.072-.012-.072c-9.539-58.193-17.882-117.455-24.8-176.138-3.584-30.415-6.86-61.31-9.737-91.829-2.943-31.239-5.551-62.955-7.751-94.265-2.249-32.013-4.136-64.53-5.608-96.647C769.3,66.187,768.185,32.887,767.493,0H915.459c1.134,59.129,3.362,119.571,6.623,179.649,3.119,57.44,7.265,116.062,12.324,174.237,4.821,55.447,10.6,111.961,17.177,167.972,1.4,11.936,2.869,24.1,4.362,36.14Z" transform="translate(-2011 2876)" fill="#004990" stroke="rgba(0,0,0,0)" stroke-miterlimit="10" stroke-width="1"/><rect width="152" height="558" transform="translate(-1255 2876)" fill="#004990"/></g></svg>