<svg xmlns="http://www.w3.org/2000/svg" width="1921" height="101.479" viewBox="0 0 1921 101.479" aria-hidden="true"><g transform="translate(476.5 -146.067)"><rect width="1920" height="41" transform="translate(-476 206)" fill="#fff"/><g transform="translate(5238 -7495)"><path d="M3840,253.047h0c-34.072-1.473-68.735-2.905-103.028-4.258-157.785-6.219-316.275-11.06-471.065-14.387-83.219-1.789-167.018-3.175-249.07-4.121-85.776-.988-172.042-1.523-256.4-1.588-3.715,0-7.519,0-11.306,0-100.393,0-210.655,1.011-318.866,2.925-119.594,2.113-232.626,5.214-335.957,9.216-62.8,2.431-121.447,5.185-174.309,8.186v-69.94c7.415-.377,14.786-.743,21.91-1.088,70.377-3.411,147.454-6.332,229.09-8.682,86.665-2.494,180.8-4.41,279.778-5.694,104.553-1.356,217.437-2.044,335.514-2.044,93.342,0,187.811.7,280.782,2.069,88.922,1.314,178.84,3.283,267.255,5.851,84.289,2.449,169.441,5.508,253.091,9.091,79.447,3.4,159.622,7.371,238.3,11.792,4.766.267,9.571.539,14.281.807v61.87Z" transform="translate(-7634 7489)" fill="#003a7f" stroke="rgba(0,0,0,0)" stroke-miterlimit="10" stroke-width="1"/><path d="M3840,253.047h0c-34.072-1.473-68.735-2.905-103.028-4.258-157.785-6.219-316.275-11.06-471.065-14.387-83.219-1.789-167.018-3.175-249.07-4.121-85.776-.988-172.042-1.523-256.4-1.588-3.715,0-7.519,0-11.306,0-100.393,0-210.655,1.011-318.866,2.925-119.594,2.113-232.626,5.214-335.957,9.216-62.8,2.431-121.447,5.185-174.309,8.186v-69.94c7.415-.377,14.786-.743,21.91-1.088,70.377-3.411,147.454-6.332,229.09-8.682,86.665-2.494,180.8-4.41,279.778-5.694,104.553-1.356,217.437-2.044,335.514-2.044,93.342,0,187.811.7,280.782,2.069,88.922,1.314,178.84,3.283,267.255,5.851,84.289,2.449,169.441,5.508,253.091,9.091,79.447,3.4,159.622,7.371,238.3,11.792,4.766.267,9.571.539,14.281.807v61.87Z" transform="translate(-7634 7480)" fill="#ffde00" stroke="rgba(0,0,0,0)" stroke-miterlimit="10" stroke-width="1"/></g></g></svg>