<svg xmlns="http://www.w3.org/2000/svg" width="484.282" height="645.066" viewBox="0 0 484.282 645.066"><path d="M803.618,879.475H670.046V857.487H447.62v-153h66.82V486.435H477.825V398.483h63.159V265.639h22.882V234.409l16.226,7.9,141.66,37.82,17.229,27.787L780.174,324.1l13.574,119.937,17.778,17.3,16.921,11.407L814.23,498.881l-21.939,17.551-27.325,53.5-16.6,27.181,1.23,21.1,17.286,4.413,13.97-21.475,17.958-8.409,10.721-26.322,23.226-19.821L866.64,501.63,919.4,430.759l9.621-5.339,2.884,11.84-3.733,26.689L890.246,541.44l-34.924,64.793-7.775,37-8.575,29.94,8.523,15.643-3.977,31.351-23.594,26.814L813,767.655l4.791,42.33,4.911,40-19.054,29.391-.033.1Z" transform="translate(-447.62 -234.409)" fill="#e3e5e7"/></svg>