<svg xmlns="http://www.w3.org/2000/svg" width="253.283" height="337.065" viewBox="0 0 253.283 337.065" aria-hidden="true"><path d="M186.189,337.065H116.33V325.576H0V245.629H34.947V131.691H15.8V85.733H48.83V16.318H60.8V0l8.486,4.126,74.089,19.762,9.011,14.52,21.544,8.458,7.1,62.671,9.3,9.038,8.85,5.961-7.435,13.658-11.474,9.171-14.291,27.957-8.684,14.2.643,11.028,9.041,2.306,7.306-11.221,9.392-4.394,5.607-13.754,12.147-10.357,17.723-23.5L246.742,102.6l5.032-2.79,1.508,6.187L251.33,119.94,231.5,160.432l-18.266,33.856-4.066,19.332-4.485,15.645,4.458,8.174-2.08,16.382-12.34,14.011-3.62,10.8,2.506,22.118,2.569,20.9-9.966,15.358-.017.052Zm-69.262-87.633-2.685,26.782,1.535,7.9,3.162,7.952v12.454h3.832l1.916-1.533,5.651-13.6.863-33.817Z" fill="#e3e5e7"/></svg>