<svg xmlns="http://www.w3.org/2000/svg" width="52.593" height="21.617" viewBox="0 0 52.593 21.617" aria-hidden="true"><path d="M47.084,34.174l1.757,1.32,1.388-1.445-2.257-1.883L37.1,35.82c-3.211,1.079-7.1.9-9.976.73l-15.807-.08,3.022,13.224H32.546l4.566-6.654a27.307,27.307,0,0,1,8.5-7.988ZM6.248,38.023,9.82,39.036l-.7-3.006a3.525,3.525,0,0,0-2.31-2.54l-2.379-.8a1.31,1.31,0,0,0-.251-.024,1.261,1.261,0,0,0-.945.429,1.318,1.318,0,0,0-.287,1.16A4.432,4.432,0,0,0,6.248,38.023Zm46.8-4.131-4,4.163-2.086-1.568a27.31,27.31,0,0,0-8.5,7.988l-4.9,7.141H12.8L10.421,41.2,6.1,39.994c-2.234-.745-3.687-1.308-4.631-3.437L1.08,34.724a3.322,3.322,0,0,1,.622-2.8,3.193,3.193,0,0,1,3.193-1.1l.094.027,3.448,1.16a3.526,3.526,0,0,1,2.309,2.54l9.553.009V32.867H17.6a1.247,1.247,0,1,1,0-2.494h7.325a1.247,1.247,0,1,1,0,2.494h-2.7v1.693l4.755.011c3.354.039,6.765.349,9.976-.73L48.378,30Zm-1.928,4.92c.581.744,2.477,3.286,2.477,4.758a3.235,3.235,0,1,1-6.47,0c0-1.472,1.9-4.014,2.478-4.758l.758-.97Z" transform="translate(-1 -30)" fill="#fff" fill-rule="evenodd"/></svg>