<svg xmlns="http://www.w3.org/2000/svg" width="52.593" height="21.617"><path d="m46.084 4.174 1.757 1.32 1.388-1.445-2.257-1.883L36.1 5.82c-3.211 1.079-7.1.9-9.976.73l-15.807-.08 3.022 13.224h18.207l4.566-6.654a27.307 27.307 0 0 1 8.5-7.988ZM5.248 8.023 8.82 9.036l-.7-3.006a3.525 3.525 0 0 0-2.31-2.54l-2.379-.8a1.31 1.31 0 0 0-.251-.024 1.261 1.261 0 0 0-.945.429 1.318 1.318 0 0 0-.287 1.16 4.432 4.432 0 0 0 3.3 3.768Zm46.8-4.131-4 4.163-2.086-1.568a27.31 27.31 0 0 0-8.5 7.988l-4.9 7.141H11.8L9.421 11.2 5.1 9.994C2.866 9.249 1.413 8.686.469 6.557L.08 4.724a3.322 3.322 0 0 1 .622-2.8 3.193 3.193 0 0 1 3.193-1.1l.094.027 3.448 1.16a3.526 3.526 0 0 1 2.309 2.54l9.553.009V2.867H16.6a1.247 1.247 0 1 1 0-2.494h7.325a1.247 1.247 0 1 1 0 2.494h-2.7V4.56l4.755.011c3.354.039 6.765.349 9.976-.73L47.378 0Zm-1.928 4.92c.581.744 2.477 3.286 2.477 4.758a3.235 3.235 0 1 1-6.47 0c0-1.472 1.9-4.014 2.478-4.758l.758-.97Z" fill-rule="evenodd"/></svg>