<svg xmlns="http://www.w3.org/2000/svg" xmlns:xlink="http://www.w3.org/1999/xlink" width="25px" height="19px" viewBox="0 0 25 19">
    <title>“</title>
    <g id="Page-1" stroke="none" stroke-width="1" fill-rule="evenodd">
        <g id="Page-Blocks:-Testimonials" transform="translate(-682.000000, -1388.000000)" fill-rule="nonzero">
            <g id="Group" transform="translate(658.000000, 1360.000000)">
                <path d="M43.7509766,46.4570312 C44.711263,46.4570312 45.5942383,46.2169596 46.3999023,45.7368164 C47.2055664,45.2566732 47.832194,44.6259766 48.2797852,43.8447266 C48.7273763,43.0634766 48.9511719,42.2333984 48.9511719,41.3544922 C48.9511719,38.8805339 47.6653646,37.2773438 45.09375,36.5449219 L45.09375,36.5449219 L45.09375,36.0566406 C45.09375,34.5917969 45.3826497,33.2775065 45.9604492,32.1137695 C46.5382487,30.9500326 47.5351562,30.0996094 48.9511719,29.5625 L48.9511719,29.5625 L48.9511719,28 C46.9817708,28.2604167 45.2361654,28.764974 43.7143555,29.5136719 C42.1925456,30.2623698 40.9799805,31.141276 40.0766602,32.1503906 C39.1733398,33.1595052 38.5100911,34.237793 38.0869141,35.3852539 C37.663737,36.5327148 37.4521484,37.6516927 37.4521484,38.7421875 C37.4521484,40.7278646 37.9973958,42.5100911 39.0878906,44.0888672 C40.1783854,45.6676432 41.7327474,46.4570312 43.7509766,46.4570312 Z M30.2988281,46.4570312 C31.2591146,46.4570312 32.1420898,46.2169596 32.9477539,45.7368164 C33.753418,45.2566732 34.3800456,44.6259766 34.8276367,43.8447266 C35.2752279,43.0634766 35.4990234,42.2333984 35.4990234,41.3544922 C35.4990234,38.8805339 34.2132161,37.2773438 31.6416016,36.5449219 L31.6416016,36.5449219 L31.6416016,36.0566406 C31.6416016,34.5917969 31.9305013,33.2775065 32.5083008,32.1137695 C33.0861003,30.9500326 34.0830078,30.0996094 35.4990234,29.5625 L35.4990234,29.5625 L35.4990234,28 C33.5296224,28.2604167 31.7840169,28.764974 30.262207,29.5136719 C28.7403971,30.2623698 27.527832,31.141276 26.6245117,32.1503906 C25.7211914,33.1595052 25.0579427,34.237793 24.6347656,35.3852539 C24.2115885,36.5327148 24,37.6516927 24,38.7421875 C24,40.7278646 24.5452474,42.5100911 25.6357422,44.0888672 C26.726237,45.6676432 28.280599,46.4570312 30.2988281,46.4570312 Z" id="“"/>
            </g>
        </g>
    </g>
</svg>