<svg xmlns="http://www.w3.org/2000/svg" width="98.167" height="98.169" viewBox="0 0 98.167 98.169" aria-hidden="true"><path d="M55.822,98.169a6.472,6.472,0,0,1-3.674-1.139,5.427,5.427,0,0,0-6.128,0,6.513,6.513,0,0,1-8.838-1.4,5.425,5.425,0,0,0-5.828-1.894,6.509,6.509,0,0,1-7.973-4.063,5.393,5.393,0,0,0-4.957-3.6A6.52,6.52,0,0,1,12.1,79.745a5.393,5.393,0,0,0-3.6-4.957,6.518,6.518,0,0,1-4.063-7.974,5.394,5.394,0,0,0-1.894-5.827,6.517,6.517,0,0,1-1.4-8.838,5.4,5.4,0,0,0,0-6.128,6.519,6.519,0,0,1,1.4-8.839,5.392,5.392,0,0,0,1.894-5.827,6.519,6.519,0,0,1,4.063-7.973,5.391,5.391,0,0,0,3.6-4.957A6.519,6.519,0,0,1,18.423,12.1a5.391,5.391,0,0,0,4.957-3.6,6.509,6.509,0,0,1,7.973-4.063,5.409,5.409,0,0,0,1.53.22,5.462,5.462,0,0,0,4.3-2.114,6.513,6.513,0,0,1,8.838-1.4,5.4,5.4,0,0,0,3.064.948,5.409,5.409,0,0,0,3.064-.948,6.514,6.514,0,0,1,8.839,1.4,5.459,5.459,0,0,0,4.3,2.114,5.418,5.418,0,0,0,1.53-.22,6.509,6.509,0,0,1,7.973,4.063,5.389,5.389,0,0,0,4.957,3.6,6.517,6.517,0,0,1,6.328,6.328,5.389,5.389,0,0,0,3.6,4.957,6.517,6.517,0,0,1,4.063,7.973,5.389,5.389,0,0,0,1.894,5.827,6.519,6.519,0,0,1,1.4,8.839,5.392,5.392,0,0,0,0,6.128,6.518,6.518,0,0,1-1.4,8.838,5.391,5.391,0,0,0-1.894,5.827,6.518,6.518,0,0,1-4.063,7.974,5.391,5.391,0,0,0-3.6,4.957,6.52,6.52,0,0,1-6.328,6.328,5.391,5.391,0,0,0-4.957,3.6A6.528,6.528,0,0,1,68.653,94h-.009a6.479,6.479,0,0,1-1.829-.266,5.424,5.424,0,0,0-5.827,1.894A6.474,6.474,0,0,1,55.822,98.169ZM49.5,9A40.5,40.5,0,1,0,90,49.5,40.546,40.546,0,0,0,49.5,9Zm0,78a37.377,37.377,0,1,1,14.6-2.947A37.262,37.262,0,0,1,49.5,87ZM34.361,45.218,29,50.938,46.352,67.2,69.861,34.584,63.5,30,45.206,55.382,34.361,45.218Z" transform="translate(0)" fill="#fff"/></svg>