<svg xmlns="http://www.w3.org/2000/svg" width="87.84" height="85.441" viewBox="0 0 87.84 85.441" aria-hidden="true"><path d="M93.84,15.63v6H85.21v8.63h-6V21.63H70.58v-6h8.63V7h6v8.63ZM84.32,33.26A41.268,41.268,0,1,1,67.58,15.39v9.24h8.63v8.63ZM67.75,51.08A1.821,1.821,0,0,1,67,52.559a1.977,1.977,0,0,1-1.76.3l-9.1-2.87a1.956,1.956,0,0,1-1.27-1.25,1.928,1.928,0,0,1,.26-1.77l5.51-7.71a1.934,1.934,0,0,1,1.57-.82h.01a2,2,0,0,1,1.64.84,20.139,20.139,0,0,1,3.89,11.76l1.44-.01ZM63.98,63.01a22.351,22.351,0,0,1-2.04,2.44A20.159,20.159,0,0,1,54,70.44a1.966,1.966,0,0,1-2.61-1.85l-.08-9.49a1.935,1.935,0,0,1,.79-1.6,1.958,1.958,0,0,1,1.17-.39,1.742,1.742,0,0,1,.59.1l9.06,2.849a1.983,1.983,0,0,1,1.3,1.281A1.837,1.837,0,0,1,63.98,63.01ZM47.43,54.39a3.436,3.436,0,1,1,3.43-3.43A3.438,3.438,0,0,1,47.43,54.39ZM43.01,70.26a1.92,1.92,0,0,1-1.73.29,20.581,20.581,0,0,1-10.13-7.27,1.845,1.845,0,0,1-.27-1.66,1.977,1.977,0,0,1,1.28-1.3l8.99-3.011a2,2,0,0,1,1.77.261,1.97,1.97,0,0,1,.82,1.59l.08,9.49A1.945,1.945,0,0,1,43.01,70.26ZM27.93,52.89a1.825,1.825,0,0,1-.77-1.5,20.042,20.042,0,0,1,3.69-11.831,2,2,0,0,1,1.64-.869h.02a1.9,1.9,0,0,1,1.56.79l5.64,7.63A1.888,1.888,0,0,1,40,48.86a1.934,1.934,0,0,1-1.25,1.27L29.7,53.16A1.942,1.942,0,0,1,27.93,52.89ZM39.86,33.23a1.975,1.975,0,0,1,1.31-1.31,20.188,20.188,0,0,1,12.24-.1,2.022,2.022,0,0,1,1.33,1.28,1.916,1.916,0,0,1-.26,1.75l-5.51,7.73a1.939,1.939,0,0,1-1.58.82,2.057,2.057,0,0,1-1.6-.8l-5.64-7.63A1.91,1.91,0,0,1,39.86,33.23Zm7.6-9.88h-.24A27.857,27.857,0,0,0,31.15,73.8a27.612,27.612,0,0,0,16.3,5.28h.24A27.859,27.859,0,0,0,75.32,51.21v-.23A27.891,27.891,0,0,0,47.46,23.35Z" transform="translate(-6 -7)" fill-rule="evenodd"/></svg>