<svg xmlns="http://www.w3.org/2000/svg" width="90.897" height="102.113" viewBox="0 0 90.897 102.113" aria-hidden="true"><path d="M53.948,67.057v20a1.992,1.992,0,0,1-.461,1.277,11.5,11.5,0,1,1-16.079,0,1.992,1.992,0,0,1-.461-1.277v-20h-1a2,2,0,0,1-2-2v-50a2,2,0,0,1,2-2h.782a11.5,11.5,0,1,1,17.436,0h.782a2,2,0,0,1,2,2v50a2,2,0,0,1-2,2Zm-2.668-54a9.5,9.5,0,1,0-11.663,0Zm.668,54h-13v20h13Zm-13,22-1.539-.723A2,2,0,0,0,38.948,89.057Zm.668,0a9.5,9.5,0,1,0,11.663,0H39.617Zm5.832-77a6.5,6.5,0,1,1,6.5-6.5A6.5,6.5,0,0,1,45.448,12.057Zm0-2a4.5,4.5,0,1,0-4.5-4.5A4.5,4.5,0,0,0,45.448,10.057Zm0,93a6.5,6.5,0,1,1,6.5-6.5A6.5,6.5,0,0,1,45.448,103.057Zm0-2a4.5,4.5,0,1,0-4.5-4.5A4.5,4.5,0,0,0,45.448,101.057Zm-7.5-84v40h2v-40Z" transform="matrix(0.766, -0.643, 0.643, 0.766, -22.185, 41.159)"/></svg>