<svg xmlns="http://www.w3.org/2000/svg" width="32" height="32" viewBox="3 3 34 34" aria-hidden="true"><path d="M14.707 21.982l4.239 3.19-2.71 2.71.874.874c.525.437.525 1.18 0 1.704l-.743.743-7.123-7.123.743-.743c.437-.524 1.18-.524 1.704 0l.83.83 2.186-2.185zm10.368-1.092l1.049 1.18c1.048 1.092 1.048 2.797 0 3.845-.918.918-2.404 1.05-3.453.306l-10.313-6.73a.133.133 0 00-.175 0 .133.133 0 000 .175l1.267 1.268-1.748 1.748-1.267-1.268c-1.005-1.049-1.005-2.753 0-3.758.874-.918 2.36-1.049 3.409-.306l3.146 2.098 2.71-2.71 4.195 3.19-2.404 2.404 2.71 1.748c.13.044.262.044.306 0 .043-.087.043-.219 0-.262l-1.18-1.18 1.748-1.748zm7.08-14.29c.393 0 .699.13.96.393.263.262.394.568.394.961 0 .7-.568 1.311-1.311 1.311-.7 0-1.311-.611-1.311-1.31-.044-.744.612-1.355 1.267-1.355m0 5.156A3.824 3.824 0 0036 7.911a3.805 3.805 0 00-1.136-2.71 3.914 3.914 0 00-2.71-1.136 3.851 3.851 0 00-3.845 3.846c0 .437.043.874.262 1.31l-1.53 1.53c-.524-.437-1.267-.437-1.704.044l-3.103 3.103.044.043-3.19-2.141c-1.05-.743-2.535-.612-3.409.306-1.005 1.005-1.005 2.71 0 3.758l1.267 1.268 1.748-1.748-1.18-1.224a.133.133 0 010-.175.133.133 0 01.175 0l10.314 6.73c1.049.743 2.534.612 3.452-.306 1.049-1.049 1.049-2.753 0-3.846l-1.18-1.18-1.748 1.749 1.18 1.18c.044.043.044.174 0 .262-.044.043-.175.043-.306 0l-2.71-1.748 2.317-2.317c.437-.437.524-1.18.044-1.704l1.442-1.442c.568.262 1.092.393 1.66.393M7.89 33.606c-.699 0-1.31-.611-1.31-1.31 0-.394.13-.7.393-.962.262-.262.568-.393.961-.393s.7.131.962.393c.262.263.393.568.393.962-.044.655-.7 1.31-1.399 1.31zm-.174-8.39c-.437.437-.612 1.136-.525 1.748.046.318.279.785.7 1.399h-.044c-1.005 0-2.01.393-2.71 1.136A3.805 3.805 0 004 32.209c0 1.004.393 2.01 1.136 2.709a3.805 3.805 0 002.71 1.136 3.824 3.824 0 003.845-3.846l1.442.612c.577.215 1.21.006 1.604-.474l.145-.225-7.036-7.01-.131.105z"/></svg>