<svg xmlns="http://www.w3.org/2000/svg" width="51.482" height="45.112" viewBox="0 0 51.482 45.112"><path d="M26.743,16.191A18.461,18.461,0,1,1,8.285,34.651,18.481,18.481,0,0,1,26.743,16.191Zm24.516,9.489,2.223-.359L51.336,32.2l-4-5.882,2.207-.356A24.03,24.03,0,0,0,3.681,27.249a.856.856,0,0,1-.823.624.867.867,0,0,1-.233-.032.856.856,0,0,1-.592-1.057,25.744,25.744,0,0,1,49.227-1.1Zm-15.32,8.91a.815.815,0,0,1-.336.663.891.891,0,0,1-.789.134L30.74,34.1a.88.88,0,0,1-.453-1.349l2.467-3.456a.858.858,0,0,1,.7-.368h0a.9.9,0,0,1,.735.377,9.035,9.035,0,0,1,1.743,5.269l.642-.007Zm-1.689,5.34a9.5,9.5,0,0,1-.917,1.095,9,9,0,0,1-3.552,2.234.892.892,0,0,1-.8-.117.875.875,0,0,1-.367-.71l-.038-4.252a.879.879,0,0,1,.879-.889.9.9,0,0,1,.264.041l4.06,1.28a.88.88,0,0,1,.58.573A.82.82,0,0,1,34.251,39.93Zm-7.413-3.858a1.539,1.539,0,1,1,1.538-1.538A1.54,1.54,0,0,1,26.837,36.072Zm-1.98,7.108a.855.855,0,0,1-.773.127,9.19,9.19,0,0,1-4.537-3.254.821.821,0,0,1-.12-.744.881.881,0,0,1,.57-.58l4.029-1.35a.876.876,0,0,1,1.156.828l.038,4.248A.88.88,0,0,1,24.857,43.18Zm-7.1-8.453a9,9,0,0,1,1.651-5.3.9.9,0,0,1,.734-.388h.01a.851.851,0,0,1,.7.353l2.526,3.415a.861.861,0,0,1,.134.786.874.874,0,0,1-.563.57L18.9,35.52a.871.871,0,0,1-.793-.12A.818.818,0,0,1,17.759,34.727Zm5.687-8.135a.9.9,0,0,1,.587-.586,9.066,9.066,0,0,1,5.481-.045.905.905,0,0,1,.6.577A.86.86,0,0,1,30,27.32l-2.468,3.46a.864.864,0,0,1-.707.367.908.908,0,0,1-.717-.357l-2.526-3.415A.866.866,0,0,1,23.446,26.593Zm3.4-4.423h-.11a12.481,12.481,0,0,0,.1,24.961h.11A12.48,12.48,0,0,0,39.33,34.648v-.106A12.493,12.493,0,0,0,26.851,22.169Z" transform="translate(-2 -8)" fill="#fff" fill-rule="evenodd"/></svg>