<svg xmlns="http://www.w3.org/2000/svg" width="67.66" height="65.859" viewBox="0 0 67.66 65.859" aria-hidden="true"><path d="M68.181,55.459a1.462,1.462,0,0,1-.62,1.21,1.63,1.63,0,0,1-1.45.25l-7.46-2.359a1.622,1.622,0,0,1-1.05-1.021,1.593,1.593,0,0,1,.22-1.45l4.52-6.33a1.584,1.584,0,0,1,1.29-.68h.01a1.643,1.643,0,0,1,1.34.691,16.543,16.543,0,0,1,3.2,9.659Zm-3.1,9.79a16.786,16.786,0,0,1-1.68,2,16.527,16.527,0,0,1-6.51,4.1,1.611,1.611,0,0,1-1.47-.22,1.593,1.593,0,0,1-.67-1.3l-.07-7.79a1.578,1.578,0,0,1,.65-1.309,1.628,1.628,0,0,1,.96-.321,1.558,1.558,0,0,1,.48.08l7.45,2.34a1.633,1.633,0,0,1,1.06,1.05A1.489,1.489,0,0,1,65.081,65.249ZM51.5,58.819a3.46,3.46,0,1,1,3.45-3.46A3.463,3.463,0,0,1,51.5,58.819ZM47.871,71.2a1.573,1.573,0,0,1-1.42.24,16.755,16.755,0,0,1-8.31-5.97,1.494,1.494,0,0,1-.22-1.36,1.6,1.6,0,0,1,1.04-1.06l7.39-2.48a1.618,1.618,0,0,1,2.12,1.52l.06,7.79A1.568,1.568,0,0,1,47.871,71.2ZM35.5,56.949a1.519,1.519,0,0,1-.64-1.24A16.484,16.484,0,0,1,37.891,46a1.637,1.637,0,0,1,1.34-.71h.02a1.554,1.554,0,0,1,1.28.65l4.63,6.26a1.6,1.6,0,0,1-.79,2.48l-7.42,2.49A1.623,1.623,0,0,1,35.5,56.949Zm9.78-16.139a1.66,1.66,0,0,1,1.08-1.08,16.536,16.536,0,0,1,10.04-.081,1.653,1.653,0,0,1,1.1,1.05,1.573,1.573,0,0,1-.22,1.44l-4.52,6.341a1.576,1.576,0,0,1-1.29.669,1.682,1.682,0,0,1-1.32-.65l-4.63-6.26A1.592,1.592,0,0,1,45.281,40.81Zm6.04-8.111a22.865,22.865,0,0,0-13.18,41.41,22.635,22.635,0,0,0,13.37,4.33h.2a22.857,22.857,0,0,0,22.68-22.87v-.2A22.881,22.881,0,0,0,51.521,32.7Zm0-10.96a33.875,33.875,0,0,1,33.84,33.83c0,9.18-2.1,16.58-7.28,21.72l-.03.03c-.61.73-1.61,2.13-1.25,3.15a.672.672,0,0,1,.04.24,2.7,2.7,0,0,1-1.72,4.79,123.364,123.364,0,0,1-24.24,2.1,169.977,169.977,0,0,1-27.11-2.1,6.034,6.034,0,0,1-1.3-.13,1.463,1.463,0,0,1-.37-2.71s5.13-1.54,3.48-4.75c-5.57-5.17-7.88-12.79-7.88-22.34A33.865,33.865,0,0,1,51.321,21.739Z" transform="translate(-17.501 -21.739)" fill-rule="evenodd"/></svg>