<svg xmlns="http://www.w3.org/2000/svg" width="63" height="63" viewBox="0 0 63 63"><g transform="translate(-8.5 -8.5)"><path d="M40,8.5A31.5,31.5,0,1,0,71.5,40,31.464,31.464,0,0,0,40,8.5Zm0,54.287A22.787,22.787,0,1,1,62.787,40,22.768,22.768,0,0,1,40,62.787Zm0-43.564A20.777,20.777,0,1,0,60.777,40,20.794,20.794,0,0,0,40,19.223Zm0,4.155a16.476,16.476,0,0,1,6.3,1.206C44.96,32.091,40,34.37,40,34.37s-4.96-2.145-6.3-9.785A16.476,16.476,0,0,1,40,23.379ZM23.379,41.072V40A16.44,16.44,0,0,1,27.4,29.143c6.7,3.619,7.238,8.981,7.238,8.981S31.019,42.145,23.379,41.072Zm12.6,15.013a16.866,16.866,0,0,1-10.187-7.372c5.5-5.228,10.857-4.155,10.857-4.155S39.33,49.249,35.979,56.085Zm4.021-13A3.083,3.083,0,1,1,43.083,40,3.033,3.033,0,0,1,40,43.083Zm3.887,13c-3.351-6.836-.536-11.528-.536-11.528s5.228-1.072,10.723,4.155A15.886,15.886,0,0,1,43.887,56.085Zm1.474-17.828s.536-5.362,7.372-8.981A16.681,16.681,0,0,1,56.621,40v1.206C48.981,42.279,45.362,38.257,45.362,38.257Z" fill="#004990"/></g></svg>