<svg xmlns="http://www.w3.org/2000/svg" width="559.817" height="595.754" viewBox="0 0 559.817 595.754" aria-hidden="true"><g transform="translate(6831.363 -7030.454)"><path d="M306.374,601.394l-77.355-4.054-3.785-9.36L207.7,584.618l-15.422-8.748L179.448,552.6l-.678-22.023,13.107-17.025-2.6-8.687-12.089-14.07-3.819-20.356-1.484-41.61-11.993-15.9-41.2-29.643-21.422-34.1-20.39-7.176L64.377,324.25l-19.491-1.021L28.275,302.2l-.97-39.75,1.822-23.114,10.126-18.4L35.4,201.19,21.068,183.336,33.755,151.02l32.886-21.486,10.352-11.062,1.367-49.4,2.112-16.991L95.984,35.793l5.869,4.583,17.5,3.972,17.855-2.729,46.1-17.129,18.27-10.647,13.046-4.2,11.093,9.743-7.051,6.349L206.1,44.007l-4.262,11.381,5.9,3.973,11.283-5.516,6.764-.868,16.19,5.735,3.3,6.892,6.637,1.569,4.005-6.508L278.6,94.225l49.563,9.927L377.4,120.169l15.485,7.53,74.089,19.762,9.011,14.52,21.544,8.458,7.1,62.671,9.3,9.038,8.85,5.961-7.435,13.658-11.474,9.171-14.291,27.958-8.684,14.2.643,11.028,9.04,2.306,7.306-11.221,9.392-4.394,5.606-13.754L525.03,286.7l17.723-23.5,27.592-37.032,5.032-2.79,1.508,6.187-1.952,13.945L555.1,284l-18.265,33.856-4.067,19.332-4.484,15.645,4.457,8.174-2.079,16.381L518.321,391.4l-3.62,10.8,2.506,22.118,2.569,20.9-9.966,15.358-5.8,17.409-7.081,18.563,5.934,14.969,1.707,37.346,8.31,27.92L510.7,595l-97.421,5.889ZM440.268,371.731l-2.685,26.781,1.534,7.9,3.162,7.951v12.454h3.832l1.916-1.533,5.652-13.6.862-33.817Z" transform="translate(-6848.432 7024.813)" fill="#004990"/><path d="M306.374,601.394l-77.355-4.054-3.785-9.36L207.7,584.618l-15.422-8.748L179.448,552.6l-.678-22.023,13.107-17.025-2.6-8.687-12.089-14.07-3.819-20.356-1.484-41.61-11.993-15.9-41.2-29.643-21.422-34.1-20.39-7.176L64.377,324.25l-19.491-1.021L28.275,302.2l-.97-39.75,1.822-23.114,10.126-18.4L35.4,201.19,21.068,183.336,33.755,151.02l32.886-21.486,10.352-11.062,1.367-49.4,2.112-16.991L95.984,35.793l5.869,4.583,17.5,3.972,17.855-2.729,46.1-17.129,18.27-10.647,13.046-4.2,11.093,9.743-7.051,6.349L206.1,44.007l-4.262,11.381,5.9,3.973,11.283-5.516,6.764-.868,16.19,5.735,3.3,6.892,6.637,1.569,4.005-6.508L278.6,94.225l49.563,9.927L377.4,120.169l15.485,7.53,74.089,19.762,9.011,14.52,21.544,8.458,7.1,62.671,9.3,9.038,8.85,5.961-7.435,13.658-11.474,9.171-14.291,27.958-8.684,14.2.643,11.028,9.04,2.306,7.306-11.221,9.392-4.394,5.606-13.754L525.03,286.7l17.723-23.5,27.592-37.032,5.032-2.79,1.508,6.187-1.952,13.945L555.1,284l-18.265,33.856-4.067,19.332-4.484,15.645,4.457,8.174-2.079,16.381L518.321,391.4l-3.62,10.8,2.506,22.118,2.569,20.9-9.966,15.358-5.8,17.409-7.081,18.563,5.934,14.969,1.707,37.346,8.31,27.92L510.7,595l-97.421,5.889ZM440.268,371.731l-2.685,26.781,1.534,7.9,3.162,7.951v12.454h3.832l1.916-1.533,5.652-13.6.862-33.817Z" transform="translate(-6852.432 7020.813)" fill="#ffde00"/></g></svg>