<svg xmlns="http://www.w3.org/2000/svg" width="557.476" height="586.141" viewBox="0 0 557.476 586.141"><path d="M602.592,140.5l17.688,3.05,17.688-3.66L683.1,120.368l17.688-11.589L713.6,103.9l11.589,9.149-6.709,6.709-11.589,18.908-3.659,11.589,6.1,3.66,10.979-6.1,6.709-1.22,16.468,4.879,3.659,6.709,6.709,1.22,3.66-6.709,24.4,32.326,50.014,7.319,50.014,13.418,15.858,6.709,75.021,15.858,9.758,14.028,21.957,7.319,10.369,62.213,9.759,8.539,9.149,5.489-6.709,14.028-10.978,9.759-12.809,28.667-7.929,14.638,1.22,10.979,9.149,1.83,6.709-11.589,9.149-4.879,4.879-14.028,11.589-10.979,16.468-24.4,25.617-38.425,4.879-3.05,1.83,6.1-1.22,14.028-17.688,41.475L1051.5,394.836l-3.049,19.518-3.66,15.858,4.879,7.929-1.22,16.468-11.589,14.638-3.049,10.979,3.659,21.957,3.66,20.738-9.149,15.858-4.879,17.688-6.1,18.908,6.709,14.638,3.66,37.206,9.759,27.447-1.22,18.3-96.979,10.979-106.738,6.1H758.733l-4.27-9.149-17.688-2.44-15.858-7.929-14.028-22.567L705.059,626l12.2-17.688-3.05-8.539L701.4,586.353l-4.879-20.128-3.66-41.475L680.053,509.5l-42.7-27.447L614.18,449.119l-20.738-6.1-13.418-17.078H560.506l-17.688-20.128-3.05-39.645.609-23.177,9.149-18.908-4.879-19.518L529.4,287.488l10.979-32.936,31.716-23.177,9.759-11.589-1.22-49.4,1.22-17.078,14.638-17.078Z" transform="translate(-529.4 -103.9)" fill="#e3e5e7"/></svg>