<svg xmlns="http://www.w3.org/2000/svg" viewBox="0 0 64 64" style="enable-background:new 0 0 64 64" xml:space="preserve"><path d="m54.2 26.9 1.3.6-8.2 21.6-1.4-.7c-4.1-1.8-8.3-2.8-12.5-3l-2.6-2.9h2.1c4.4.1 8.8.9 12.9 2.6l6.1-16c-12.8-5.4-26.7-5.4-39.4 0l6.1 16c1.4-.5 2.8-1 4.2-1.4l2 2.5c-2.2.5-4.3 1.2-6.4 2.2l-1.4.7-8.5-21.6 1.3-.6c14.1-6.4 30.3-6.4 44.4 0zM32 28.7c.4 0 .7-.3.7-.7v-.7c0-.4-.3-.7-.7-.7-.4 0-.7.3-.7.7v.7c0 .4.3.7.7.7zm-.7 4.3c0 .4.3.7.7.7.4 0 .7-.3.7-.7v-1.3c0-.4-.3-.7-.7-.7-.4 0-.7.3-.7.7V33zm0 5c0 .4.3.7.7.7.4 0 .7-.3.7-.7v-1.3c0-.4-.3-.7-.7-.7-.4 0-.7.3-.7.7V38zm1.4 3.8c0-.4-.3-.7-.7-.7-.4 0-.7.3-.7.7v.7h1.5v-.7zm13.1-27.6c-.2.4 0 .8.3 1 .4.2.9.5 1.2.7.1.1.3.1.4.1.2 0 .5-.1.6-.3.2-.3.2-.8-.2-1-.4-.3-.9-.6-1.4-.9-.2-.1-.7 0-.9.4zm-10.2-.4c-.5.3-1 .6-1.4.9-.3.2-.4.7-.2 1 .1.2.4.3.6.3.2 0 .3 0 .4-.1.4-.3.8-.5 1.2-.7.4-.2.5-.6.3-1-.1-.4-.5-.5-.9-.4zm5.6-1.2h-.8c-.4 0-.7.4-.7.8s.4.7.8.7H42c.4 0 .7-.3.7-.7 0-.4-.3-.8-.7-.8h-.8zm9.1 5.8c-.4.1-.7.4-.6.9v.6c0 .4.3.7.7.7s.7-.3.7-.7c0-.3 0-.6-.1-.9.1-.4-.3-.7-.7-.6zm-36.6 0c-.4-.1-.8.2-.9.6 0 .3-.1.6-.1.9 0 .4.3.7.7.7.4 0 .7-.3.7-.7v-.6c.3-.5 0-.8-.4-.9zm13.7-4.2c-.2.4 0 .8.3 1 .4.2.9.5 1.2.7.1.1.3.1.4.1.2 0 .5-.1.6-.3.2-.3.2-.8-.2-1-.4-.3-.9-.6-1.4-.9-.3-.1-.7 0-.9.4zm-4.6-1.6H22c-.4 0-.7.4-.7.8s.4.7.8.7h1.5c.4 0 .7-.3.7-.7 0-.4-.3-.8-.7-.8h-.8zm-5.6 1.2c-.5.3-1 .6-1.4.9-.3.2-.4.7-.2 1 .1.2.4.3.6.3.2 0 .3 0 .4-.1.4-.3.8-.5 1.2-.7.4-.2.5-.6.3-1-.1-.4-.6-.5-.9-.4zM32 18.4h-.2c-.4.1-.7.4-.6.9v.6c0 .4.3.7.7.7.4 0 .7-.3.7-.7v-.6c.1-.4-.2-.8-.6-.9.1 0 .1 0 0 0zm-2.1 32.3c.2.2.5.4.7.5.7.3 1.5.2 2.2-.2.1-.1.2-.1.3-.2.5-.4.7-1 .7-1.6 0-.5-.1-.9-.4-1.3-.1-.1-.1-.2-.2-.3l-2-2.2-2.5-2.8-10.4-11.5c-.3-.3-.6-.4-1-.5-.4 0-.7.1-1 .3-.3.3-.5.6-.6 1v.6c0 .2.1.4.3.5l7.3 9.3.8 1 2 2.6 3.7 4.6c.1.1.1.1.1.2z"/><script/></svg>