<svg xmlns="http://www.w3.org/2000/svg" width="79.958" height="80" viewBox="0 0 79.958 80"><g transform="translate(-2.7 -2.66)"><path d="M24.8,69.436v1.187H21.85s-2.12.246-2.12-1.637V66.857s-.09-1.637,2.12-1.637H24.8v1.146h-2.62s-.655-.041-.7.45v2.129s-.041.491.655.491Z" transform="translate(-2.609 -9.577)" fill="#fff"/><path d="M32.218,65.17v1.187h-3.07v.819h2.906v1.13H29.148v1.105H32.21V70.6H27.47V65.17Z" transform="translate(-3.798 -9.569)" fill="#fff"/><path d="M39.432,65.17a1.637,1.637,0,0,1,1.58,1.695,1.089,1.089,0,0,1,0,.229c-.082,1.637-1.269,1.515-1.351,1.556l1.351,1.965h-1.8l-1.965-2.947h1.474c.778,0,.778-.532.778-.532v-.287s0-.491-.819-.491h-1.8v4.257H35.24V65.17Z" transform="translate(-4.976 -9.568)" fill="#fff"/><path d="M48.032,65.17l-.041,1.187H46.4v4.257H44.766V66.357H43.21V65.17Z" transform="translate(-6.21 -9.568)" fill="#fff"/><rect width="1.637" height="5.444" transform="translate(42.947 55.602)" fill="#fff"/><path d="M58.548,65.17v1.187h-3.07v.819h2.906v1.13H55.478V70.6H53.8V65.17Z" transform="translate(-7.835 -9.569)" fill="#fff"/><rect width="1.637" height="5.444" transform="translate(51.994 55.602)" fill="#fff"/><path d="M69.24,65.17l.041,1.187h-3.1v.819h2.9v1.13h-2.9v1.105H69.24V70.6H64.5V65.17Z" transform="translate(-9.475 -9.569)" fill="#fff"/><path d="M77.945,66.356v2.579s0,1.637-1.392,1.637h-4.5v-5.4H76.1S77.822,65.03,77.945,66.356ZM76.422,68.9V66.929s0-.573-.7-.573H73.761v3.07H75.89S76.422,69.394,76.422,68.9Z" transform="translate(-10.603 -9.568)" fill="#fff"/><path d="M82.573,40.041c.084.845.084,1.732.084,2.662s-.084,1.69-.084,2.535l-6.506,1.969h0c-1.014.3-.169,1.056-.169,1.056l5.636,3.954a37.557,37.557,0,0,1-1.69,5.188c-1.859-.084-5.915-.253-6.76-.338-1.014-.084-.507.929-.507.929l4.081,5.788a39.426,39.426,0,0,1-3.253,4.309c-1.774-.591-5.568-1.893-6.413-2.231-.972-.338-.76.794-.76.794l2.2,6.422a35.361,35.361,0,0,1-4.52,3.38c-1.479-1.1-4.7-3.507-5.492-4.14s-.921.507-.921.507l.076,6.878a46.531,46.531,0,0,1-4.935,1.69c-1.056-1.512-3.38-4.808-3.971-5.653s-1.056.169-1.056.169l-2.028,6.624c-.972.084-1.986.127-3,.127-.76,0-1.521-.084-2.281-.084L38.07,75.993s-.591-.845-1.056-.127S34.31,80,33.3,81.562a46.177,46.177,0,0,1-5.484-1.69l.084-6.836s-.127-1.141-.972-.507c-.676.549-3.971,3.042-5.45,4.14a37.785,37.785,0,0,1-4.225-3.084l1.986-6.76s.084-1.056-.76-.718-4.554,1.774-6.329,2.45a36.172,36.172,0,0,1-3.464-4.774L12.7,58.1s.507-1.014-.507-.929l-6.709.3A37.458,37.458,0,0,1,3.8,52.1l5.746-3.971s.76-.845-.127-1.1-4.943-1.512-6.675-2.062c-.042-.76-.042-1.521-.042-2.281,0-1.014.084-1.986.084-3,1.859-.507,5.534-1.521,6.506-1.774s.169-1.056.169-1.056l-5.577-4.09a36.908,36.908,0,0,1,1.605-4.9l6.7.3c1.014.084.507-.929.507-.929l-4.014-5.7a35.294,35.294,0,0,1,3.464-4.74c1.774.668,5.441,1.969,6.371,2.357s.76-.71.76-.71l-2.062-6.633a35.783,35.783,0,0,1,4.326-3.126c1.436,1.1,4.689,3.464,5.492,4.14s.972-.465.972-.465L27.9,5.482a36.106,36.106,0,0,1,5.188-1.69c1.056,1.572,3.3,4.689,3.845,5.534s1.056-.169,1.056-.169l1.986-6.413c.845-.084,1.774-.084,2.662-.084,1.056,0,2.07,0,3.076.084l2.028,6.582s.465,1.014,1.056.169c.465-.76,2.831-4.014,3.861-5.568a39.181,39.181,0,0,1,4.943,1.6l-.084,6.886s.211,1.056.929.507,4.005-3.042,5.484-4.14A41.14,41.14,0,0,1,68.4,12.031l-2.281,6.591s-.084,1.039.76.752,4.858-1.639,6.548-2.231a36.722,36.722,0,0,1,3.2,4.436l-4.056,5.695s-.338,1.022.507.972,4.858-.253,6.76-.338a40.626,40.626,0,0,1,1.631,5.129L75.9,37.176s-.718.845.169,1.056S80.757,39.491,82.573,40.041ZM69.612,52.605V46.192H55.932v6.413Zm0-18.749V27.865H44.136c-.2,0-7.385.051-7.385,7.3h-1.09v-7.3H24.01L11.978,52.478l7.216.127,3.3-6.413H28.9v6.413h6.76V46.4h1.09v6.278h8.99s8.914.253,9.083-8.314c.169-7.182-8.661-7.689-8.661-7.689s-2.324-.084-2.324-1.774h0a1.132,1.132,0,0,1,1.225-1.031Zm0,9.294V37.024H55.932V43.15ZM67.5,59.365V56.7c-.245-1.369-2.019-1.225-2.019-1.225H61.331v5.577h4.647c1.436,0,1.436-1.69,1.436-1.69Zm-7.6-2.662V55.478H54.918v5.6H59.81V59.855H56.65V58.714h2.991V57.548H56.65V56.7ZM53.651,61.1V55.478h-1.69V61.1ZM50.778,56.7V55.478h-4.9v5.6h1.732V58.714h3V57.548h-3V56.7ZM44.61,61.1V55.478H42.92V61.1ZM41.864,56.7l.042-1.225H36.929V56.7h1.605V61.1h1.69V56.7Zm-5.712.524a1.69,1.69,0,0,0-1.631-1.749H30.169V61.1h1.69V56.7h1.859c.845,0,.845.507.845.507v.3s0,.549-.8.549H32.24L34.267,61.1h1.859l-1.394-2.028c.084,0,1.31.084,1.394-1.605a1.124,1.124,0,0,0,.025-.237Zm-7.6-.524V55.478h-4.9v5.6h4.892V59.855H25.362V58.714h3V57.548h-3V56.7ZM22.337,61.1V59.872H19.574c-.718,0-.676-.507-.676-.507v-2.2c.042-.507.718-.465.718-.465h2.7V55.52H19.278c-2.281,0-2.188,1.69-2.188,1.69v2.2c0,1.943,2.188,1.69,2.188,1.69Z" transform="translate(0)" fill="#004990"/><path d="M91.385,69.847V69.9a1.367,1.367,0,0,1-1.359,1.269h-.09A1.359,1.359,0,0,1,88.61,69.8h0a1.334,1.334,0,0,1,1.367-1.318h.1A1.343,1.343,0,0,1,91.385,69.847Zm-.254-.057a1.188,1.188,0,1,0-2.374-.065v.1a1.2,1.2,0,0,0,1.22,1.154h0a1.187,1.187,0,0,0,1.154-1.187Z" transform="translate(-13.091 -10.143)" fill="#0079c0"/><path d="M90.9,69.579a.36.36,0,0,1-.147.27.459.459,0,0,1-.156.074H90.32l.434.745h-.131l-.45-.7h-.4v.7H89.64v-1.5h.72a.549.549,0,0,1,.27.082.508.508,0,0,1,.164.327Zm-.2,0c0-.246-.2-.246-.368-.246H89.8v.516h.36a.819.819,0,0,0,.237,0A.278.278,0,0,0,90.7,69.579Z" transform="translate(-13.278 -10.278)" fill="#0079c0"/><path d="M90.314,70.15l.45.7H90.69l-.45-.7Z" transform="translate(-13.387 -10.448)" fill="#0079c0"/><path d="M90.545,69.891a.237.237,0,0,0,.221-.246c0-.229-.18-.246-.336-.246h0c.164,0,.368,0,.368.246S90.7,69.891,90.545,69.891Z" transform="translate(-13.421 -10.337)" fill="#0079c0"/><path d="M90.545,69.169H90.48A.09.09,0,0,1,90.545,69.169Z" transform="translate(-13.43 -10.311)" fill="#0079c0"/><path d="M90.264,70v.016H90.19Z" transform="translate(-13.378 -10.441)" fill="#0079c0"/><rect width="0.074" height="1.498" transform="translate(76.321 58.892)" fill="#0079c0"/><path d="M78.914,54.18l.041,6.214H65.7V54.18Z" transform="translate(-9.427 -7.87)" fill="#fff"/><path d="M74.8,32.49v5.8H51.056a1.1,1.1,0,0,0-1.187,1h0c0,1.637,2.251,1.719,2.251,1.719s8.555.491,8.392,7.45c-.164,8.3-8.8,8.056-8.8,8.056H43V50.452h8.719c.614,0,2.251,0,2.129-2.088C53.766,47.1,51.8,47.178,51.8,47.178H49.713S43,46.686,43,39.564s6.959-7.074,7.155-7.074Z" transform="translate(-5.512 -4.273)" fill="#fff"/><rect width="13.173" height="5.936" transform="translate(56.271 37.113)" fill="#fff"/><path d="M76.8,67.193v1.973c0,.491-.532.491-.532.491H74.14V66.62H76.1C76.842,66.62,76.8,67.193,76.8,67.193Z" transform="translate(-11.01 -9.848)" fill="#004990"/><rect width="1.965" height="0.033" transform="translate(63.112 56.67)" fill="#007dbc"/><path d="M53.614,49.931c.123,2.088-1.515,2.088-2.129,2.088H41.71V41.13h1.056c0,7.123,6.713,7.614,6.713,7.614h2.088S53.532,48.662,53.614,49.931Z" transform="translate(-5.862 -5.8)" fill="#004990"/><path d="M36.628,50.452v6.009h-6.55V50.248H23.865l-3.193,6.214-6.992-.123L25.338,32.49h11.29ZM30.079,46.6V37.476L25.543,46.6Z" transform="translate(-1.991 -4.275)" fill="#fff"/><path d="M32.706,38.64v9.079H28.17Z" transform="translate(-3.908 -5.453)" fill="#004990"/><path d="M32.706,38.58v.049L28.17,47.709Z" transform="translate(-3.908 -5.443)" fill="#007dbc"/></g></svg>