<svg xmlns="http://www.w3.org/2000/svg" width="429.448" height="64.957" viewBox="0 0 429.448 64.957"><g transform="translate(1.55)"><path d="M76.29,44.8" transform="translate(-1.55)" fill="#ed1b2e"/><path d="M285.48,45H272l1.48-5.89h-.29c-2.81,4.89-7.33,6-13.1,6-9.77,0-14.44-3.35-12.21-12l1.93-7.44c2.57-9.91,7.84-13.87,18.91-13.87,4.85,0,9.1.81,10.16,5h.53L284.06.4h13.43Zm-18.53-8c5.46,0,7.42-1.05,9.34-8.42,1.63-6.32,2-8.48-5-8.48-6.62,0-7.3,2-9,8.48C260.31,36.48,261.41,37,266.95,37Z" transform="translate(-1.55)" fill="#004785"/><path d="M332.69,45.02h-13.6l8.8-33.03H341.5Z" fill="#004785"/><path d="M342.43,8.49H328.89L331.01.35h13.62Z" fill="#004785"/><path d="M380,31.78c-1.58,6.07-3.75,9.41-7.37,11.21s-8.48,2.17-15.64,2.17c-15.61,0-18.33-3.78-15-16.6,2.86-11,7.09-16.66,23.63-16.66,11.61,0,19.28,1,16.28,12.57H368.66c.53-1.73.57-2.79-.18-3.47s-2.22-.93-5-.93c-4.69,0-6.35,1.05-8.27,8.48-2,7.62-1.11,8.42,3.89,8.42,6,0,6.61-1.18,7.66-5.2Z" transform="translate(-1.55)" fill="#004785"/><path d="M146.41,14.2c1.3-4.52-3.53-4.45-8-4.45-10.66,0-11.66,2.61-13.76,9.8l-2,7.25c-2.14,7.91,1,8.73,8.74,8.73S141.37,34.17,143,28H132.7l2.3-8.27h25.35l-2.11,7.79c-4.07,15-9.55,17.76-29.39,17.76-17.47,0-25.7-2.38-21.79-16.82l3.12-11.53C114.13,2.2,124.8,0,141.08,0c14.36,0,24.56.06,20.36,14.2Z" transform="translate(-1.55)" fill="#004785"/><path d="M399.91,18.34h.34c3.26-5.14,7.6-6.44,13.83-6.44,8.93,0,12.12,3.41,10.3,10.4L418.33,45H405.19l5.32-20.26c.74-3.16.07-4.7-4.24-4.7-5.92,0-7.66,2.85-8.69,6.81L392.76,45H379.7L391.77.4h13.06Z" transform="translate(-1.55)" fill="#004785"/><path d="M201.8,28.56c-3.47,13.38-7.48,16.6-24.54,16.6-16.54,0-19.22-3.59-15.84-16.6,3.46-13.32,7.63-16.66,24.48-16.66S205.36,14.8,201.8,28.56Zm-27.15,0c-1.84,7.06-1.42,8.42,5,8.42,6.15,0,7.12-1.36,9-8.42s1.59-8.48-4.57-8.48c-6.46-.01-7.6,1.41-9.43,8.48Z" transform="translate(-1.55)" fill="#004785"/><path d="M245.64,28.56c-3.47,13.38-7.77,16.6-24.54,16.6-16.54,0-19.22-3.59-15.84-16.6,3.46-13.32,7.63-16.66,24.48-16.66S249.2,14.8,245.64,28.56Zm-27.15,0c-1.83,7.06-1.41,8.42,5,8.42,6.15,0,7.12-1.36,9-8.42s1.59-8.48-4.57-8.48c-6.47-.01-7.6,1.41-9.44,8.48Z" transform="translate(-1.55)" fill="#004785"/><path d="M18.93.39H48.14c11,0,17.09,1.72,14.45,11.47-1.53,5.65-3.93,9.33-11.52,10.28l-.13.47c8.1.42,8.43,4.4,6.92,10C54.91,43.53,48.14,45,36.37,45H6.89Zm10,17.89H39.62c5.18,0,6.63-.71,7.6-4.28.72-2.67.48-3.68-3.63-3.8H31.12Zm-4.57,17H35.53c4.81,0,7-.89,8-4.52s-.56-4.22-5.37-4.22H26.69Z" transform="translate(-1.55)" fill="#ed1b2e"/><path d="M79.65,18.84H102.3l-2.62,9.74H77.07L72.7,45.04H57.84L69.91.39h39.32l-2.64,9.72H82.01Z" fill="#ed1b2e"/><path d="M308.64,25.49,303.49,45H289.91l8.85-32.92h13.07l-1.43,5.35s3.46-5.33,12-5.33h3.92l-2.23,8.34h-8.92C312.14,20.56,309.7,21.71,308.64,25.49Z" transform="translate(-1.55)" fill="#004785"/><path d="M358.53,64.86l2.69-9.94H2.68L0,64.86Z" fill="#004785"/><path d="M217,60" transform="translate(-1.55)" fill="#004785"/><path d="M0,64.91" transform="translate(-1.55)" fill="#004785"/><path d="M368.3,50.51h7c2.67,0,2.8,1.87,2.13,4.33-.35,1.28-1.22,4.41-4.58,4.41h-5.4L366,64.82h-1.57Zm1.18,1.43-1.6,5.88h4.06c2.09,0,3.15,0,3.91-2.77s.37-3.11-1.57-3.11Z" transform="translate(-1.55)" fill="#004785"/><path d="M379.79,56h0a3.73,3.73,0,0,1,3.35-1.33c2.49,0,3.5.69,2.71,3.48l-1.82,6.66h-1.45L384.45,58c.5-1.83-.1-2.13-1.75-2.13-2.38,0-3.1.76-3.73,3.07l-1.59,5.84h-1.46l2.72-10h1.46Z" transform="translate(-1.55)" fill="#004785"/><path d="M394.78,61.78l-.1.36c-.72,2.66-2.73,2.79-4.89,2.79-3.78,0-4-1.3-3-5.11,1.13-4.16,2.28-5.13,5.75-5.13,3.14,0,3.93.74,2.92,4.45l-.28,1h-7c-.87,3.17-.75,3.58,1.87,3.58,2,0,2.67-.14,3.06-1.55l.1-.38ZM394,58.92c.7-2.84.41-3-1.8-3-2.63,0-2.91.7-3.66,3Z" transform="translate(-1.55)" fill="#004785"/><path d="M402.46,63.48h0A3.81,3.81,0,0,1,399,64.93c-2.56,0-3.17-1.07-2.46-3.7l1.75-6.43h1.45L398,61.23c-.44,1.62-.57,2.48,1.32,2.48,2,0,3.19-.35,3.84-2.73l1.69-6.18h1.45l-2.72,10H402.1Z" transform="translate(-1.55)" fill="#004785"/><path d="M415.24,57.41h-1.51l.11-.38c.27-1-.46-1-2-1-1.83,0-2.71,0-3,1.23-.48,1.79,0,1.66,1.52,1.73,2.45.15,4.83-.25,3.94,3-.77,2.83-2.68,2.94-4.84,2.94s-4.27-.11-3.66-2.35l.26-.93h1.52l-.21.78c-.26,1,.25,1.16,2.47,1.16,1,0,2.46.23,2.94-1.54s-.34-1.53-2.08-1.64c-2.06-.16-4.24.08-3.47-2.77s2.41-3,5-3c1.7,0,3.76.07,3.14,2.35Z" transform="translate(-1.55)" fill="#004785"/><path d="M423.85.89h0L422.3,5.25h-.63L420.1.89h0V5.25h-.67V.41h1.2l1.4,4h0l1.37-4h1.12V5.25h-.67Z" transform="translate(-1.55)" fill="#004785"/><path d="M426.19,1h1a1.38,1.38,0,0,1,1.23.55,2.15,2.15,0,0,1,.37,1.29,2.15,2.15,0,0,1-.37,1.3,1.39,1.39,0,0,1-1.23.55h-1Zm-.67,4.27h1.61A2.55,2.55,0,0,0,428.44,5a2.38,2.38,0,0,0,1-2.13,2.37,2.37,0,0,0-1-2.13,2.55,2.55,0,0,0-1.32-.3h-1.61Z" transform="translate(-1.55)" fill="#004785"/></g></svg>