<svg xmlns="http://www.w3.org/2000/svg" width="862.052" height="114.96" viewBox="0 0 862.052 114.96"><g transform="translate(-164.588 -326.47)"><path d="M524.7,438.48c-17.27,0-26.26-2.52-31-8.67-6.05-7.81-4.25-20.84.89-40.72,10.28-39.74,19.13-47.77,52.64-47.77,13.56,0,22.44,3,27.17,9.07,4.09,5.28,4.82,12.69,2.24,22.67l-.49,1.88h-29.5l1-3.22c1.45-4.88,1.61-8.14.46-9.68-.82-1.1-2.59-1.66-5.25-1.66-7.81,0-11.42,2.58-18.51,30l-.63,2.42c-3.24,12.51-5.38,20.78-3.45,23.28,1,1.28,3.79,1.86,9.07,1.86,2.19,0,3.84-.12,5.2-.24l8.14-29.9h29.45l-12.64,47.42-1.56.28A156.563,156.563,0,0,1,524.7,438.48Z" fill="#fff"/><path d="M547.21,343.82c28.29,0,30.91,13.44,27,28.62H550c2.43-8.13,2.35-14.56-7.18-14.56-9.91,0-14,4.91-20.93,31.84-6.7,25.9-8.46,30.68,7.41,30.68a66.066,66.066,0,0,0,7.16-.41l8.09-29.73h24.29L557.45,433a150.432,150.432,0,0,1-32.75,3c-34.06,0-37.17-9.7-27.71-46.26,10.15-39.26,18.71-45.9,50.22-45.9m0-5c-15.94,0-27.6,1.59-36.45,9.5s-13.86,21.79-18.61,40.15c-2.92,11.29-4.38,19.06-4.71,25.17-.43,7.77.93,13.4,4.26,17.7,5.3,6.84,14.86,9.64,33,9.64,16.83,0,23.88-1.28,33.64-3.06l3.12-.57.82-3.06,11.39-42.74,1.68-6.29H540.73l-1,3.69-7.17,26.35c-.93.06-2,.1-3.25.1-5.83,0-6.94-.76-7.11-.91,0,0-.53-.93.15-5.15.62-3.8,2-9.16,3.76-15.95l.63-2.42c7.27-28.09,10.59-28.09,16.09-28.09,2.27,0,3.11.47,3.25.65s1,1.39-.86,7.48l-1.92,6.43h34.78l1-3.75c2.79-10.78,1.91-18.9-2.68-24.83-5.23-6.76-14.77-10-29.15-10Z" fill="#fff"/><path d="M587.22,437.57c-6.33,0-10.72-1.66-13.43-5.09-3.15-4-3.69-10.1-1.64-18.69l11.2-43c6-23.43,10.9-28.17,28.81-28.17h40.9l-4.94,19.11H620.25c-3.39,0-5.55,1.71-6.42,5.06L611,378h32.39l-5,19.11H606l-5,19.62a2.154,2.154,0,0,0-.06.29,6.609,6.609,0,0,0,1.3.1h36.28l-4,10.28c-2.5,6.58-7.77,10.21-14.84,10.21Z" fill="#fff"/><path d="M649.83,345.08l-3.65,14.11H620.25c-5.21,0-7.87,3.19-8.84,6.94l-3.68,14.33h32.39l-3.65,14.11H604.09l-5.49,21.5c-.59,2.55.51,3.51,3.67,3.51H634.9l-2.67,6.88a12.57,12.57,0,0,1-12.51,8.61h-32.5c-11.79,0-16.08-6.27-12.64-20.7l11.18-43c6.08-23.51,10.78-26.3,26.4-26.3h37.67m6.46-5H612.16c-7.44,0-14.58.43-20.19,5.68-4.51,4.21-7.6,11.05-11.05,24.37l-11.18,43v.05h0c-2.23,9.38-1.54,16.19,2.12,20.82,3.17,4,8.34,6,15.39,6h32.5a17.58,17.58,0,0,0,17.18-11.83l2.66-6.85,2.64-6.81H604.14l3.84-15h32.36l1-3.75L645,381.71l1.62-6.25h-32.4l2.08-8.09c.72-2.79,2.34-3.18,4-3.18h29.8l1-3.74,3.65-14.12,1.62-6.25Z" fill="#fff"/><path d="M957.52,437.57c-6.32,0-10.71-1.66-13.42-5.09-3.15-4-3.69-10.1-1.64-18.69l11.19-43c6.06-23.43,10.9-28.17,28.82-28.17h40.9l-5,19.11H990.56c-3.39,0-5.55,1.71-6.42,5.06L981.27,378h32.38l-4.94,19.11H976.34l-5,19.62a2.511,2.511,0,0,0-.06.29,6.608,6.608,0,0,0,1.3.1h36.29l-4,10.28A15,15,0,0,1,990,437.57Z" fill="#fff"/><path d="M1020.14,345.08l-3.66,14.11H990.56c-5.2,0-7.87,3.19-8.84,6.94l-3.67,14.33h32.37l-3.65,14.11H974.4l-5.5,21.5c-.59,2.55.52,3.51,3.67,3.51h32.64l-2.67,6.88a12.57,12.57,0,0,1-12.5,8.61H957.52c-11.78,0-16.06-6.27-12.63-20.7l11.18-43c6.07-23.51,10.77-26.3,26.4-26.3h37.67m6.46-5H982.47c-7.44,0-14.59.43-20.2,5.68-4.5,4.21-7.6,11-11,24.36l-11.18,43v.1c-2.24,9.38-1.55,16.19,2.11,20.82,3.17,4,8.34,6,15.38,6H990a17.58,17.58,0,0,0,17.17-11.83l2.66-6.85,2.64-6.81H974.45l3.83-15h32.36l1-3.75,3.65-14.1,1.62-6.26H984.49l2.08-8.09c.72-2.79,2.34-3.18,4-3.18h29.79l1-3.74,3.66-14.12,1.62-6.25Z" fill="#fff"/><path d="M407.12,437.57a4.5,4.5,0,0,1-3.61-1.71,4.7,4.7,0,0,1-.76-4.11l23.06-89.17h34.34c15.83,0,25.11,2.85,30.07,9.27,5.56,7.17,5.7,18.32.49,38.47-9.91,38.3-16.14,47.25-54.73,47.25Zm32.26-20.37c10.93,0,14.72-1.28,21.66-28.14,3.4-13.13,5.63-22.66,3.38-25.56-1-1.3-3.56-1.88-8.29-1.88-3.15,0-4.59,0-5.74.06h-.06L436,417.2Z" fill="#fff"/><path d="M460.15,345.08c31.45,0,36.78,11.2,28.14,44.61-10,38.45-16.06,45.38-52.31,45.38H407.12a2,2,0,0,1-1.95-2.7l22.57-87.29h32.41M432.74,419.7h6.64c13.36,0,17.3-3.78,24.08-30,6.7-25.92,6.72-30.57-7.33-30.57-5,0-5.74.08-7.75.09L432.74,419.7m27.41-79.62H423.87l-1,3.74-22.57,87.3a7.22,7.22,0,0,0,1.2,6.27,7,7,0,0,0,5.59,2.68H436c18.17,0,30.44-1.56,39.36-9.54,8.26-7.41,12.63-19.63,17.79-39.59,5.43-21,5.16-32.76-.93-40.62-5.49-7.09-15.37-10.24-32.05-10.24Zm-7.88,24.07h3.86c5.55,0,6.29.88,6.32.91s.72,1,.15,5.47a163.924,163.924,0,0,1-4,17.94c-6.79,26.26-9.92,26.26-19.24,26.26h-.19l13.08-50.55Z" fill="#fff"/><path d="M905.63,437.57a4.5,4.5,0,0,1-3.61-1.71,4.73,4.73,0,0,1-.76-4.11l15.23-58.87c.86-3.31,1.84-7.91.51-9.64-.89-1.15-3.25-1.7-7.21-1.7-1.73,0-3.46,0-5,.1H903.6L884,437.57H860.4a4.5,4.5,0,0,1-3.61-1.71,4.7,4.7,0,0,1-.75-4.11l23.08-89.26,2,.09c1,0,2.26.07,3.86.07,2.06,0,4.56,0,7.65-.08,5-.07,11.78-.17,20.82-.17,16.06,0,25.37,2.77,30.17,9,4,5.12,4.61,12.56,2,22.76L929.21,437.6Z" fill="#fff"/><path d="M913.48,344.9c25.87,0,35.24,7.28,29.73,28.6l-15.93,61.57H905.63a2,2,0,0,1-2-2.7l15.23-58.87c2.78-10.72,1.39-14.46-9.12-14.46-3.08,0-6.12.16-8.12.17L882,435.07H860.4a2,2,0,0,1-1.94-2.7L881,345.08c1.12.05,2.43.07,4,.07,5.45,0,13.93-.25,28.47-.25m-36.27-5-1,3.92-22.59,87.3a7.231,7.231,0,0,0,1.2,6.27,7,7,0,0,0,5.59,2.68h25.52l1-3.74,18.68-72.21c1.33,0,2.78-.08,4.22-.08,4,0,5.06.62,5.23.74.14.3.53,1.78-.95,7.47l-15.23,58.87a7.2,7.2,0,0,0,1.21,6.27,7,7,0,0,0,5.58,2.68h25.52l1-3.74,15.93-61.58c2.84-11,2.05-19.14-2.42-24.91-5.33-6.87-15.24-9.94-32.15-9.94-9.05,0-15.88.1-20.86.17-3.11,0-5.57.08-7.61.08-1.56,0-2.76,0-3.75-.07l-4-.18Z" fill="#fff"/><path d="M725.15,437.57a4.54,4.54,0,0,1-3.61-1.7,4.72,4.72,0,0,1-.76-4.12l15.78-60.89a23.85,23.85,0,0,1,4.15-8.66H719l5-19.62h74.75L795.19,352c-2.68,6.9-7.7,10.25-15.35,10.25h-10l-19.53,75.37Z" fill="#fff"/><path d="M795.12,345.08l-2.27,6c-2.26,5.84-6.33,8.64-13,8.64H767.92l-19.53,75.37H725.15a2,2,0,0,1-1.95-2.7l15.8-60.9a20.27,20.27,0,0,1,7.3-11.32c.22-.17.21-.47,0-.47h-24l3.74-14.62h69.18m7.25-5H722.06l-1,3.76-3.74,14.62-1.59,6.24H736.2a27.638,27.638,0,0,0-2.06,5.53l-15.78,60.89a7.21,7.21,0,0,0,1.21,6.28,7,7,0,0,0,5.58,2.67h27.11l1-3.74,18.56-71.63h8.05c8.68,0,14.63-4,17.67-11.83l2.29-6,2.57-6.77Z" fill="#fff"/><path d="M365.92,437.57a4.52,4.52,0,0,1-3.6-1.7,4.73,4.73,0,0,1-.76-4.12l23.06-89.17h24.83a4.48,4.48,0,0,1,3.6,1.71,4.75,4.75,0,0,1,.77,4.12l-23.07,89.16Z" fill="#fff"/><path d="M409.45,345.08a2,2,0,0,1,1.95,2.7l-22.59,87.29H365.92a2,2,0,0,1-1.94-2.7l22.58-87.29h22.89m0-5H382.69l-1,3.74-22.58,87.3a7.25,7.25,0,0,0,1.2,6.28,7,7,0,0,0,5.58,2.67h26.76l1-3.74L416.24,349a7.2,7.2,0,0,0-1.21-6.27,7,7,0,0,0-5.58-2.68Z" fill="#fff"/><path d="M808.41,438.82c-14.31,0-22.84-2.77-27.66-9-5.81-7.51-6-19.58-.63-40.37,10.65-41.17,22.38-48.13,52.21-48.13,13.62,0,22.64,3.1,27.56,9.46,7.28,9.4,4.65,24.74.73,39.92C850,431.87,838.25,438.82,808.41,438.82Zm20.29-78.44c-6.78,0-12.27,4.95-18.64,29.61-3.21,12.4-5.85,24.29-3.5,27.32.76,1,2.48,1.4,5.76,1.4,5.74,0,12-3.63,18.79-30,3.1-12,5.62-23.5,3.06-26.8-.56-.7-1.68-1.53-5.47-1.53Z" fill="#fff"/><path d="M832.33,343.83c31.9,0,33.44,17,25.87,46.25-10.45,40.45-21.59,46.24-49.79,46.24-27.7,0-35.14-10.37-25.87-46.24,10.71-41.39,22.53-46.25,49.79-46.25m-20,77.38c8,0,14.58-6.19,21.21-31.85,6.7-25.9,5.56-31.48-4.83-31.48-9.26,0-15,8.14-21.06,31.48-7.25,28.06-5.71,31.85,4.68,31.85m20-82.38c-14.66,0-25.51,1.47-34.29,8.76-8.63,7.15-14.71,19.49-20.34,41.24s-5.27,34.35,1.07,42.53c5.34,6.89,14.48,10,29.64,10,30.78,0,43.66-7.55,54.63-50,4.08-15.79,6.77-31.82-1.17-42.07-5.43-7-15.1-10.43-29.54-10.43Zm-23.8,76.93c-.11-.19-.67-1.39-.17-5.81.48-4.2,1.75-10.16,4.12-19.34,5.95-23,10.79-27.73,16.22-27.73,3,0,3.49.58,3.49.58s.84,1.23.39,5.89c-.4,4.1-1.64,10.06-3.89,18.76-7.26,28.1-13.41,28.1-16.37,28.1S808.68,415.85,808.53,415.76Z" fill="#fff"/><path d="M184.42,394.13a3.23,3.23,0,0,1-2.56-1.26,3.19,3.19,0,0,1-.53-2.78l14.11-49.47c1.7-6.34,8.46-11.53,15.07-11.53h43.11a3.19,3.19,0,0,1,3.06,2.25,3.23,3.23,0,0,1-1.24,3.63,480.636,480.636,0,0,0-68.67,58.15,3.21,3.21,0,0,1-2.35,1.01Z" fill="#fff"/><path d="M253.62,331.59a.73.73,0,0,1,.4,1.32A482.005,482.005,0,0,0,185,391.39a.75.75,0,0,1-.55.24.67.67,0,0,1-.67-.88l14.09-49.45c1.37-5.08,7-9.71,12.67-9.71h43.11m0-5H210.51A18.87,18.87,0,0,0,193,340l-14.08,49.41v.06a5.65,5.65,0,0,0,1,4.95,5.74,5.74,0,0,0,8.71.45A478.4,478.4,0,0,1,256.84,337a5.73,5.73,0,0,0-3.22-10.45Z" fill="#fff"/><path d="M170.27,437.57a3.14,3.14,0,0,1-2.87-1.77,3.39,3.39,0,0,1,.42-3.53c15.85-19.95,41-46,61.12-63.29a3.32,3.32,0,0,1,2.14-.81,3.23,3.23,0,0,1,3.08,4.15l-13,45.62h5.54c3.29,0,7-2.92,8-6.23l23.56-82.51,1.76-.11c.76,0,1.52-.07,2.27-.07,8.79,0,16.41,3.28,20.89,9,2.87,3.66,5.79,10.06,3.4,19.75-3.39,13.72-11.75,19.45-20.28,22.18a23,23,0,0,1,9.16,8.33c3.5,5.71,4.25,12.87,2.14,20.7-5.3,19.78-19.75,28.59-46.86,28.59Z" fill="#fff"/><path d="M262.21,331.52c14.16,0,25.89,9.31,21.86,25.65-3.91,15.85-14.87,20.23-25.73,22.09-.44.07-.23.5,0,.55,12.84,2.7,20.89,13.17,16.77,28.53-5.05,18.85-19,26.73-44.45,26.73H170.27a.73.73,0,0,1-.49-1.25c15.5-19.5,40.26-45.29,60.79-62.95a.79.79,0,0,1,.51-.2.72.72,0,0,1,.67,1l-13.95,48.8h8.86c4.44,0,9.11-3.67,10.36-8.05l23.08-80.8c.71,0,1.41-.07,2.11-.07m0-5c-.8,0-1.62,0-2.43.08l-3.52.22-1,3.39L232.21,411c-.63,2.23-3.38,4.42-5.55,4.42h-2.23L236.56,373a5.72,5.72,0,0,0-9.25-5.92c-20.24,17.4-45.51,43.57-61.44,63.62a5.89,5.89,0,0,0-.72,6.18,5.63,5.63,0,0,0,5.12,3.18h60.39c28,0,43.71-9.67,49.28-30.44,2.28-8.51,1.44-16.35-2.43-22.66a24.451,24.451,0,0,0-5.85-6.5c7.33-3.46,14.24-9.82,17.26-22.1,2.63-10.67-.64-17.79-3.85-21.89-5-6.33-13.29-10-22.86-10Z" fill="#fff"/><path d="M338.1,437.57c-5.9,0-9.14-2.43-10.51-7.88L318.76,387l-13.07,50.53H282.1a4.48,4.48,0,0,1-3.6-1.71,4.7,4.7,0,0,1-.76-4.11l23.06-89.17h36.59c13.09,0,22.78,3.56,28,10.31,4,5.14,5.08,11.75,3.18,19.11-2.77,10.68-9,17.78-19,21.63a26.179,26.179,0,0,1,1.81,4.63v.16l9.12,39.15ZM324.19,383c7.68,0,13.47-4.64,15.48-12.42.51-2,.81-4.73-.67-6.63s-4.38-2.35-6.54-2.35c-3.18,0-5.14,0-6.68.06h-.46L319.8,383Z" fill="#fff"/><path d="M337.39,345.08c23.31,0,32.54,11.65,28.76,26.29-2.87,11.07-9.64,17.61-20,20.8-.3.1-.26.37-.09.58a17.9,17.9,0,0,1,3,6.23l8.4,36.09H338.1c-4.88,0-7-1.75-8.09-6l-9-43.56h3.19c8.44,0,15.53-5.14,17.9-14.3,1.8-7-1.29-12.1-9.63-12.1-5,0-7,.08-9.09.09l-19.61,75.86H282.1a2,2,0,0,1-1.94-2.7l22.58-87.29h34.65m0-5H298.87l-1,3.74-22.58,87.3a7.17,7.17,0,0,0,1.2,6.27,7,7,0,0,0,5.58,2.68H307.6l1-3.74,9.89-38.26,6.63,32v.21c1.65,6.58,5.88,9.77,12.93,9.77h25.63l-1.43-6.13-8.4-36.09v-.16l-.05-.15c-.28-.94-.58-1.81-.89-2.61,9.28-4.34,15.35-11.82,18.07-22.3,2.1-8.14.85-15.5-3.62-21.28-4-5.14-12.42-11.27-30-11.27Zm-10.13,24.08h5.2c2.26,0,3.89.5,4.57,1.38s.74,2.48.22,4.47c-1.71,6.61-6.59,10.55-13.06,10.55H323l4.23-16.36Z" fill="#fff"/><path d="M670.84,438.94c-15,0-25-3.61-29.75-10.74-4.06-6.11-4-14.38.3-24.58l.65-1.53H670l-1,3.24c-2.31,7.36-1.51,10.65-.43,12.11s2.79,2,5.46,2c6.12,0,9-2.49,10.77-9.19,1-3.7.45-5.68-1.86-7.29-2.94-2-6.88-3.53-11.06-5.1-7.29-2.76-15.55-5.88-19.68-13-3.08-5.26-3.42-13.19-2.18-18,4.57-17.7,17.48-26.31,39.45-26.31,13.62,0,22.93,3.33,27.68,9.91,3.82,5.28,4.39,12.44,1.66,20.7l-.57,1.71H691.36l1.11-3.29c1.38-4.1,1.55-6.92.49-8.38s-3.84-1.84-6-1.84c-5.19,0-8.2,2.29-9.47,7.22s.66,6.56,1.29,7.15c2,1.86,6.09,3.4,10.42,5,6.75,2.53,14.4,5.4,19.62,11.07,4.71,5.12,6.34,13.36,4.23,21.51C707.15,434.33,692.52,438.94,670.84,438.94Z" fill="#fff"/><path d="M689.43,343.07c25.39,0,32,12,27,27.32H694.84c2.47-7.33,2.21-13.51-7.83-13.51-6.41,0-10.37,3.21-11.89,9.1-.83,3.2-.86,6.93,2,9.59,5.62,5.24,21.6,6.93,29.91,16,4.29,4.66,5.46,12.19,3.65,19.18-5.29,20.44-17.62,25.72-39.84,25.72-24.35,0-36.31-9.93-27.14-31.85h22.88c-4.13,13.13.2,17.32,7.41,17.32,7.49,0,11.25-3.57,13.19-11.07,1-3.86.88-7.36-2.86-10-8.6-6-24.14-7.23-30-17.27-2.64-4.51-3.06-11.69-1.92-16.1,4.14-16.05,15.67-24.44,37-24.44m0-5c-22.95,0-37,9.48-41.87,28.19-1.4,5.41-1,14,2.44,19.87,4.28,7.33,12.15,10.68,19.43,13.46H640.37l-1.28,3.07c-4.61,11-4.64,20.08-.08,26.92,5.24,7.87,16,11.86,31.83,11.86,22.24,0,38.35-5,44.68-29.47,2.32-9,.47-18.09-4.81-23.82-5.62-6.11-13.91-9.22-20.58-11.72-3.91-1.47-8-3-9.6-4.51-.35-.33-1.44-1.34-.57-4.69,1-3.8,3-5.35,7-5.35,2.75,0,3.76.57,3.92.8,0,0,.82,1.22-.83,6.12l-2.22,6.59H720l1.14-3.43c3-9,2.3-17-2-22.95-5.24-7.26-15.23-10.94-29.7-10.94ZM674,416.91c-.83,0-2.82-.09-3.45-.94-.27-.37-1.49-2.57.81-9.89l1.62-5.15a41.358,41.358,0,0,1,8.5,4.06c.94.65,1.75,1.21.87,4.6C681.07,414.59,679.49,416.91,674,416.91Z" fill="#fff"/><path d="M544.55,390.26,536.46,420a66.079,66.079,0,0,1-7.16.41c-15.87,0-14.11-4.78-7.41-30.68,7-26.93,11-31.84,20.93-31.84,9.53,0,9.61,6.43,7.18,14.56h24.2c3.92-15.18,1.3-28.62-27-28.62-31.51,0-40.07,6.64-50.22,45.9C487.53,426.28,490.64,436,524.7,436c16.14,0,22.91-1.19,32.75-3l11.39-42.74Z" fill="#231f20"/><path d="M602.27,419.58c-3.16,0-4.26-1-3.67-3.51l5.49-21.5h32.38l3.65-14.11H607.73l3.68-14.33c1-3.75,3.63-6.94,8.84-6.94h25.93l3.65-14.11H612.16c-15.62,0-20.32,2.79-26.4,26.3l-11.18,43c-3.44,14.43.85,20.7,12.64,20.7h32.5a12.57,12.57,0,0,0,12.51-8.61l2.67-6.88Z" fill="#231f20"/><path d="M972.57,419.58c-3.15,0-4.26-1-3.67-3.51l5.5-21.5h32.37l3.65-14.11H978.05l3.67-14.33c1-3.75,3.64-6.94,8.84-6.94h25.92l3.66-14.11H982.47c-15.63,0-20.33,2.79-26.4,26.3l-11.18,43c-3.43,14.43.85,20.7,12.63,20.7H990a12.57,12.57,0,0,0,12.5-8.61l2.67-6.88Z" fill="#231f20"/><path d="M460.15,345.08H427.74l-22.57,87.29a2,2,0,0,0,1.95,2.7H436c36.25,0,42.36-6.93,52.31-45.38C496.93,356.28,491.6,345.08,460.15,345.08ZM439.38,419.7h-6.64l15.64-60.49c2,0,2.77-.09,7.75-.09,14.05,0,14,4.65,7.33,30.57C456.68,415.92,452.74,419.7,439.38,419.7Z" fill="#231f20"/><path d="M913.48,344.9c-18.67,0-27.34.41-32.44.18l-22.58,87.29a2,2,0,0,0,1.94,2.7h21.65l19.62-75.86c2,0,5-.17,8.12-.17,10.51,0,11.9,3.74,9.12,14.46l-15.23,58.87a2,2,0,0,0,2,2.7h21.65l15.93-61.57C948.72,352.18,939.35,344.9,913.48,344.9Z" fill="#231f20"/><path d="M725.94,345.08,722.2,359.7h24c.24,0,.25.3,0,.47a20.27,20.27,0,0,0-7.3,11.32l-15.7,60.88a2,2,0,0,0,1.95,2.7h23.24l19.53-75.37h11.92c6.68,0,10.75-2.8,13-8.64l2.27-6Z" fill="#231f20"/><path d="M388.81,435.07l22.59-87.29a2,2,0,0,0-1.95-2.7H386.56L364,432.37a2,2,0,0,0,1.94,2.7Z" fill="#231f20"/><path d="M832.33,343.83c-27.26,0-39.08,4.86-49.79,46.25-9.27,35.87-1.83,46.24,25.87,46.24,28.2,0,39.34-5.79,49.79-46.24C865.77,360.81,864.23,343.83,832.33,343.83Zm-20,77.38c-10.39,0-11.93-3.79-4.68-31.85,6-23.34,11.8-31.48,21.06-31.48,10.39,0,11.53,5.58,4.83,31.48-6.64,25.64-13.19,31.85-21.22,31.85Z" fill="#231f20"/><path d="M183.75,390.75l14.09-49.45c1.37-5.08,7-9.71,12.67-9.71h43.11a.73.73,0,0,1,.4,1.32A482.005,482.005,0,0,0,185,391.39a.7.7,0,0,1-1.25-.64Z" fill="#ee3124"/><path d="M217.8,420.44l13.95-48.8a.72.72,0,0,0-1.18-.77c-20.53,17.66-45.29,43.45-60.79,62.95a.73.73,0,0,0,.49,1.25h60.39c25.46,0,39.4-7.88,44.45-26.73,4.12-15.36-3.93-25.83-16.77-28.53-.23-.05-.44-.48,0-.55,10.86-1.86,21.82-6.24,25.73-22.09,4.23-17.15-8.89-26.55-24-25.58L237,412.39c-1.25,4.38-5.92,8.05-10.36,8.05Z" fill="#231f20"/><path d="M349,399a17.9,17.9,0,0,0-3-6.23c-.17-.21-.21-.48.09-.58,10.35-3.19,17.12-9.73,20-20.8,3.78-14.64-5.45-26.29-28.76-26.29H302.74l-22.58,87.29a2,2,0,0,0,1.94,2.7h21.66l19.61-75.86c2.1,0,4.1-.09,9.09-.09,8.34,0,11.43,5.15,9.63,12.1-2.37,9.16-9.46,14.3-17.9,14.3H321l9,43.56c1.07,4.24,3.21,6,8.09,6h19.33Z" fill="#231f20"/><path d="M643.7,404.59c-9.17,21.92,2.79,31.85,27.14,31.85,22.22,0,34.55-5.28,39.84-25.72,1.81-7,.64-14.52-3.65-19.18-8.31-9-24.29-10.73-29.91-16-2.86-2.66-2.83-6.39-2-9.59,1.52-5.89,5.48-9.1,11.89-9.1,10,0,10.3,6.18,7.83,13.51h21.55c5.07-15.31-1.57-27.32-27-27.32-21.36,0-32.89,8.39-37,24.44-1.14,4.41-.72,11.59,1.92,16.1,5.86,10,21.4,11.29,30,17.27,3.74,2.6,3.86,6.1,2.86,10-1.94,7.5-5.7,11.07-13.19,11.07-7.21,0-11.54-4.19-7.41-17.32Z" fill="#231f20"/></g></svg>