<svg xmlns="http://www.w3.org/2000/svg" width="610.658" height="395" viewBox="0 0 610.658 395"><path d="M638.287,72.409h-4.034s-181.228-2.882-195.48-2.882c-130.9,0-223.732,80.153-223.732,201.245,0,91.11,63.426,190.867,208.741,190.867,6.669,0,24.272-.959,24.272-.959L440.6,440.5s-8.218-.75-12.781-.766c-86.486-.408-148.192-73.236-148.192-180.489,0-87.075,50.165-167.807,144.158-167.807,36.128,0,63.7,8.774,83.284,29.646-41.512,37.864-64.247,93.441-64.247,150.849,0,58.984,23.578,109.777,61.646,144.372-8.691,9.066-20.045,16.639-34.54,22.277l8.063,17.295c12.814-3.445,28.742-13.112,45.232-24.7,30.566,21.2,67.929,33.35,108.73,33.35,106.1,0,193.75-76.124,193.75-200.672C825.7,148.523,738.05,72.409,638.287,72.409ZM531.613,288.326c0,29.112-.678,51.967-3.318,71.495-13.382-29.122-20.9-64.275-20.9-102.893,0-40.377,8.113-73.545,21.583-99.212.92,2.442,1.808,4.944,2.64,7.534ZM644.052,443.187c-34.348,0-64.335-14.765-87.417-39.941,22.272-25.435,28.6-56.685,28.6-102.375V131.382c0-3.334.05-6.377.149-9.21,1.8-2.805,24.025-35.124,78.268-22.636,56.355,18.337,97.459,80.114,97.459,179.888C761.115,389.56,706.337,443.187,644.052,443.187Z" transform="translate(-215.041 -69.527)" fill="#211d1e"/></svg>