<svg class="main-dav-logo" version="1.1" xmlns="http://www.w3.org/2000/svg" xmlns:xlink="http://www.w3.org/1999/xlink" x="0px" y="0px" viewBox="0 0 136.86 68.61" style="enable-background:new 0 0 136.86 68.61;" xml:space="preserve" aria-labelledby="title">
    <title id="title">Disabled American Veterans</title>
    <desc>Disabled American Veterans logo</desc>
    <style type="text/css">
        .st0{fill:#5D5C5A;}
        .st1{fill:#B5BD00;}
        .st2{display:none;}
    </style>
    <g id="Keeping_Our_Promise_To__x28_390_bottom_x29__-_FINAL">
        <g>
            <path class="st0" d="M21.56,58.23H20.7v-6.66h0.86V58.23z M22.74,54.84l2.64,3.39h-1.03l-2.58-3.39l2.4-3.27h1.01L22.74,54.84z"></path>
            <path class="st0" d="M26.24,51.57h3.92v0.77H27.1v2.09h2.84v0.77H27.1v2.26h3.07v0.77h-3.93V51.57z"></path>
            <path class="st0" d="M31.52,51.57h3.92v0.77h-3.06v2.09h2.84v0.77h-2.84v2.26h3.07v0.77h-3.93V51.57z"></path>
            <path class="st0" d="M36.79,51.57h2.41c1.43,0,1.93,0.62,1.93,1.64v0.99c0,1.03-0.5,1.65-1.93,1.65h-1.55v2.38h-0.86V51.57z
                    M39.17,52.34h-1.52v2.74h1.52c0.82,0,1.1-0.23,1.1-0.88v-0.98C40.27,52.56,39.99,52.34,39.17,52.34z"></path>
            <path class="st0" d="M43.28,58.23h-0.86v-6.66h0.86V58.23z"></path>
            <path class="st0" d="M45.71,52.56v5.67h-0.82v-6.66h1.18l2.9,5.7v-5.7h0.82v6.66h-1.18L45.71,52.56z"></path>
            <path class="st0" d="M52.09,56.32c0,0.85,0.25,1.23,1.39,1.23c0.35,0,0.79-0.03,1.25-0.12v-2.26h0.83v2.87
                c-0.65,0.19-1.42,0.29-2.11,0.29c-1.7,0-2.22-0.73-2.22-1.96v-2.93c0-1.35,0.67-1.97,2.33-1.97c0.57,0,1.23,0.07,1.85,0.21
                l-0.1,0.74c-0.64-0.11-1.24-0.17-1.79-0.17c-1.1,0-1.43,0.33-1.43,1.23V56.32z"></path>
            <path class="st0" d="M63.6,56.31c0,1.11-0.69,2.02-2.41,2.02c-1.72,0-2.41-0.91-2.41-2.02v-2.82c0-1.11,0.69-2.02,2.41-2.02
                c1.72,0,2.41,0.91,2.41,2.02V56.31z M59.64,56.29c0,0.82,0.5,1.28,1.55,1.28s1.55-0.46,1.55-1.28v-2.78c0-0.82-0.5-1.28-1.55-1.28
                s-1.55,0.46-1.55,1.28V56.29z"></path>
            <path class="st0" d="M69.7,51.57v4.79c0,1.09-0.63,1.97-2.36,1.97s-2.36-0.88-2.36-1.97v-4.79h0.86v4.74
                c0,0.82,0.45,1.25,1.5,1.25s1.5-0.43,1.5-1.25v-4.74H69.7z"></path>
            <path class="st0" d="M73.69,55.82h-1.63v2.41H71.2v-6.66h2.54c1.43,0,1.93,0.62,1.93,1.64v0.96c0,0.79-0.29,1.33-1.06,1.55
                l1.73,2.51h-0.99L73.69,55.82z M73.71,52.34h-1.65v2.72h1.65c0.82,0,1.1-0.23,1.1-0.88v-0.96C74.81,52.56,74.53,52.34,73.71,52.34
                z"></path>
            <path class="st0" d="M79.29,51.57h2.41c1.43,0,1.93,0.62,1.93,1.64v0.99c0,1.03-0.5,1.65-1.93,1.65h-1.55v2.38h-0.86V51.57z
                    M81.67,52.34h-1.52v2.74h1.52c0.82,0,1.1-0.23,1.1-0.88v-0.98C82.77,52.56,82.49,52.34,81.67,52.34z"></path>
            <path class="st0" d="M87.34,55.82h-1.63v2.41h-0.86v-6.66h2.54c1.43,0,1.93,0.62,1.93,1.64v0.96c0,0.79-0.29,1.33-1.06,1.55
                l1.73,2.51H89L87.34,55.82z M87.36,52.34h-1.65v2.72h1.65c0.82,0,1.1-0.23,1.1-0.88v-0.96C88.46,52.56,88.18,52.34,87.36,52.34z"></path>
            <path class="st0" d="M95.5,56.31c0,1.11-0.69,2.02-2.41,2.02s-2.41-0.91-2.41-2.02v-2.82c0-1.11,0.69-2.02,2.41-2.02
                s2.41,0.91,2.41,2.02V56.31z M91.55,56.29c0,0.82,0.5,1.28,1.55,1.28c1.05,0,1.55-0.46,1.55-1.28v-2.78c0-0.82-0.5-1.28-1.55-1.28
                c-1.05,0-1.55,0.46-1.55,1.28V56.29z"></path>
            <path class="st0" d="M97.73,52.83l-0.13,5.4h-0.83L97,51.57h1.09l1.92,5.15l1.92-5.15h1.09l0.23,6.66h-0.83l-0.13-5.4l-1.7,4.54
                h-1.16L97.73,52.83z"></path>
            <path class="st0" d="M105.61,58.23h-0.86v-6.66h0.86V58.23z"></path>
            <path class="st0" d="M108.95,58.33c-0.64,0-1.41-0.12-1.98-0.35l0.14-0.7c0.61,0.19,1.25,0.29,1.86,0.29
                c1.07,0,1.29-0.28,1.29-1.04c0-0.9-0.01-0.98-1.38-1.29c-1.61-0.36-1.8-0.67-1.8-2.05c0-1.16,0.48-1.72,2.13-1.72
                c0.58,0,1.27,0.08,1.8,0.22l-0.07,0.73c-0.53-0.12-1.16-0.19-1.71-0.19c-1.09,0-1.29,0.22-1.29,0.99c0,0.92,0,0.96,1.32,1.29
                c1.77,0.44,1.86,0.7,1.86,2C111.12,57.67,110.78,58.33,108.95,58.33z"></path>
            <path class="st0" d="M112.43,51.57h3.92v0.77h-3.06v2.09h2.84v0.77h-2.84v2.26h3.07v0.77h-3.93V51.57z"></path>
            <path class="st0" d="M120.94,52.34h-1.99v-0.77h4.84v0.77h-1.99v5.89h-0.86V52.34z"></path>
            <path class="st0" d="M129.54,56.31c0,1.11-0.69,2.02-2.41,2.02c-1.72,0-2.41-0.91-2.41-2.02v-2.82c0-1.11,0.69-2.02,2.41-2.02
                c1.72,0,2.41,0.91,2.41,2.02V56.31z M125.58,56.29c0,0.82,0.5,1.28,1.55,1.28c1.05,0,1.55-0.46,1.55-1.28v-2.78
                c0-0.82-0.5-1.28-1.55-1.28c-1.05,0-1.55,0.46-1.55,1.28V56.29z"></path>
        </g>
        <g>
            <path class="st1" d="M27.33,68.61H25.5l-0.42-1.53h-2.62l-0.42,1.53H20.2l2.38-7.83h2.35L27.33,68.61z M22.86,65.62h1.8
                l-0.89-3.28L22.86,65.62z"></path>
            <path class="st1" d="M29.84,64.27l-0.12,4.35h-1.7l0.33-7.83h1.76l1.88,4.98l1.88-4.98h1.76l0.33,7.83h-1.7l-0.12-4.35l-1.36,3.34
                h-1.57L29.84,64.27z"></path>
            <path class="st1" d="M37.08,68.61v-7.83H42v1.56h-3.16v1.43h2.91v1.56h-2.91v1.7H42v1.56H37.08z"></path>
            <path class="st1" d="M45.92,66.18h-1.03v2.43h-1.76v-7.83h3.25c1.9,0,2.61,0.75,2.61,2.22v0.96c0,0.97-0.35,1.63-1.14,1.96
                l1.89,2.68h-2.09L45.92,66.18z M47.22,63.17c0-0.59-0.22-0.82-0.94-0.82h-1.4v2.3h1.4c0.75,0,0.94-0.27,0.94-0.86V63.17z"></path>
            <path class="st1" d="M50.44,68.61v-7.83h1.76v7.83H50.44z"></path>
            <path class="st1" d="M55.02,66.05c0,0.68,0.22,1.08,1.09,1.08c0.56,0,1.34-0.07,2.02-0.19l0.25,1.54
                c-0.78,0.16-1.48,0.25-2.27,0.25c-1.97,0-2.85-0.97-2.85-2.4v-3.27c0-1.42,0.88-2.4,2.85-2.4c0.79,0,1.49,0.08,2.27,0.25
                l-0.25,1.54c-0.68-0.12-1.46-0.19-2.02-0.19c-0.87,0-1.09,0.4-1.09,1.08V66.05z"></path>
            <path class="st1" d="M66.08,68.61h-1.83l-0.42-1.53H61.2l-0.42,1.53h-1.83l2.38-7.83h2.35L66.08,68.61z M61.6,65.62h1.8
                l-0.89-3.28L61.6,65.62z"></path>
            <path class="st1" d="M66.49,64.25l-0.76-0.43l0.67-1.32h-0.56v-1.95h1.69v2.07L66.49,64.25z"></path>
            <path class="st1" d="M70.86,68.73c-0.9,0-1.86-0.2-2.53-0.5l0.29-1.36c0.72,0.22,1.44,0.38,2.26,0.38c0.91,0,1.08-0.18,1.08-0.83
                c0-0.71-0.04-0.79-1.32-1.07c-1.89-0.41-2.17-0.79-2.17-2.48c0-1.56,0.55-2.19,2.7-2.19c0.68,0,1.5,0.07,2.37,0.26l-0.18,1.48
                c-0.89-0.15-1.47-0.22-2.17-0.22c-0.79,0-0.96,0.14-0.96,0.72c0,0.75,0.04,0.76,1.27,1.06c2.11,0.5,2.22,0.92,2.22,2.46
                C73.72,67.97,73.22,68.73,70.86,68.73z"></path>
            <path class="st1" d="M80.8,68.61h-2.51l-2.21-7.83h1.81l1.66,6.23l1.66-6.23H83L80.8,68.61z"></path>
            <path class="st1" d="M83.77,68.61v-7.83h4.92v1.56h-3.16v1.43h2.91v1.56h-2.91v1.7h3.16v1.56H83.77z"></path>
            <path class="st1" d="M93.3,62.35v6.26h-1.76v-6.26h-2.1v-1.56h5.97v1.56H93.3z"></path>
            <path class="st1" d="M96.15,68.61v-7.83h4.92v1.56h-3.16v1.43h2.91v1.56h-2.91v1.7h3.16v1.56H96.15z"></path>
            <path class="st1" d="M104.87,66.18h-1.03v2.43h-1.76v-7.83h3.25c1.9,0,2.61,0.75,2.61,2.22v0.96c0,0.97-0.35,1.63-1.14,1.96
                l1.89,2.68h-2.09L104.87,66.18z M106.18,63.17c0-0.59-0.22-0.82-0.94-0.82h-1.4v2.3h1.4c0.75,0,0.94-0.27,0.94-0.86V63.17z"></path>
            <path class="st1" d="M116.27,68.61h-1.83l-0.42-1.53h-2.62l-0.42,1.53h-1.83l2.39-7.83h2.35L116.27,68.61z M111.8,65.62h1.8
                l-0.89-3.28L111.8,65.62z"></path>
            <path class="st1" d="M118.7,63.47v5.15h-1.68v-7.83h2.16l2.57,5.39v-5.39h1.68v7.83h-2.17L118.7,63.47z"></path>
            <path class="st1" d="M126.78,68.73c-0.9,0-1.86-0.2-2.53-0.5l0.29-1.36c0.72,0.22,1.45,0.38,2.26,0.38c0.91,0,1.08-0.18,1.08-0.83
                c0-0.71-0.04-0.79-1.32-1.07c-1.89-0.41-2.17-0.79-2.17-2.48c0-1.56,0.55-2.19,2.7-2.19c0.68,0,1.5,0.07,2.37,0.26l-0.18,1.48
                c-0.89-0.15-1.47-0.22-2.17-0.22c-0.79,0-0.96,0.14-0.96,0.72c0,0.75,0.04,0.76,1.27,1.06c2.11,0.5,2.22,0.92,2.22,2.46
                C129.65,67.97,129.15,68.73,126.78,68.73z"></path>
        </g>
        <path class="st0" d="M0,46.99h17.62V0H0V46.99z M20.56,0v14.36h3.91v20.88h-3.91v11.75h14.68l8.81-8.81V8.81L35.24,0H20.56z"></path>
        <path class="st0" d="M55.8,0l-8.81,8.81v38.18h16.8V0H55.8z M66.73,0v14.36h3.92v11.09h-3.92v9.79h3.92v11.75H88.1V25.87L78.68,0
            H66.73z"></path>
        <path class="st1" d="M99.23,0H81.76l17.1,46.99h17.47L99.23,0z M129.68,12.13V0h-13.21l-7.06,19.4l8.81,24.2L129.68,12.13z"></path>
        <g>
            <path class="st0" d="M134.66,2.13V1.84c0-0.35-0.19-0.55-0.65-0.55h-0.81v2.07h0.35V2.67h0.42l0.51,0.69h0.42l-0.55-0.75
                C134.6,2.49,134.66,2.33,134.66,2.13z M134.3,2.11c0,0.15-0.07,0.24-0.3,0.24h-0.45V1.62H134c0.21,0,0.3,0.05,0.3,0.25V2.11z"></path>
            <path class="st0" d="M133.91,0.22c-1.22,0-2.1,0.88-2.1,2.1c0,1.22,0.88,2.1,2.1,2.1c1.23,0,2.09-0.86,2.09-2.1
                C136,1.09,135.14,0.22,133.91,0.22z M133.91,4.05c-1.03,0-1.7-0.68-1.7-1.73c0-1.05,0.67-1.72,1.7-1.72
                c1.17,0,1.69,0.87,1.69,1.72C135.6,3.18,135.08,4.05,133.91,4.05z"></path>
        </g>
    </g>
    <g id="Guides" class="st2">
</g></svg>