<svg xmlns="http://www.w3.org/2000/svg" width="429.976" height="68.677" viewBox="0 0 429.976 68.677"><g transform="translate(0.1)"><g transform="translate(-0.1)"><path d="M187.813,7.1a5.589,5.589,0,0,0-5.513,5.513,5.512,5.512,0,1,0,11.025,0h0A5.589,5.589,0,0,0,187.813,7.1Zm0,9.877a3.871,3.871,0,0,1-3.9-3.9v-.459a4.034,4.034,0,1,1,8.039-.689v.919a4.055,4.055,0,0,1-3.445,4.364c-.23-.459-.459-.23-.689-.23Z" transform="translate(236.651 9.208)" fill="#231f20"/><path d="M79.3,41.583l2.986-6.661h6.2l9.188-21.131H91.7L94.459,6.9h21.131l10.566,21.361,6.431-14.47h-6.2L129.372,6.9h20.9l-2.986,6.891h-5.972l-12.4,27.792h-14.7l-10.8-21.131-6.2,14.47h6.2L100.2,41.583Z" transform="translate(103.072 8.948)" fill="#231f20"/><path d="M92.944,13.661,95.93,7h21.131l-2.986,6.661h-6.2l-8.5,19.523h0c-1.608,3.675-5.972,8.958-17.916,8.958h-12.4c-4.134,0-14.241-2.067-10.106-11.255h0l7.58-17.227h-6.2L63.314,7H93.633l-2.986,6.661h-6.2l-6.431,14.7h0c-.919,1.838-2.3,7.12,4.823,7.12s8.5-3.445,9.417-5.513h0l7.12-16.308Z" transform="translate(75.417 9.078)" fill="#231f20"/><path d="M118.6,13.791,121.589,6.9h30.319l-2.986,6.891h-6.431l-8.958,21.131h9.647l9.877-10.336h5.972l-7.35,17H106.2l2.986-6.661h6.2L124.8,13.791Z" transform="translate(137.958 8.948)" fill="#231f20"/><path d="M59.389,33.764,1.278,0,18.964,15.619h-.689a18.261,18.261,0,0,0-.23,36.52h2.3L1.967,68.677,59.389,33.764Zm-54.666.23a16.622,16.622,0,0,1,17-16.767c9.417.23,17,7.58,16.767,17a17.106,17.106,0,0,1-17,17A17.418,17.418,0,0,1,4.723,33.994Z" transform="translate(0.1)" fill="#ed3336"/><path d="M22.894,11.805H7.045L5.9,15.94H8.883L6.816,21.911H4.978L3.6,26.046H21.286c4.134,0,9.188-1.148,10.336-6.661.689-3.675-.459-7.809-8.728-7.58Zm-.23,7.809a5.132,5.132,0,0,1-4.134,2.3H15.314l2.067-6.2h3.675c1.608.23,2.3,2.067,1.608,3.9Z" transform="translate(4.898 15.298)" fill="#231f20"/><path d="M172.065,6.7h-14.93c-18.375,0-21.82,11.025-23.658,15.389-10.8,22.28,6.431,20.442,10.566,20.442h14.47c9.647,0,19.753-1.838,26.184-16.538C190.9,11.983,190.44,6.7,172.065,6.7ZM168.39,21.17l-3.675,8.5h0a8.7,8.7,0,0,1-8.728,5.972h-4.134c-2.3,0-5.513-2.3-3.445-7.35h0l4.134-9.647h0a9.329,9.329,0,0,1,7.12-5.283h5.053c6.2,0,5.053,4.823,3.675,7.809Z" transform="translate(168.792 8.689)" fill="#231f20"/><path d="M213.078,6.9H168.059l-2.986,6.661h6.2l-9.188,21.131h-6.2L152.9,41.353h30.319l2.986-6.661H180l2.756-6.891h19.064c10.8,0,12.863-5.972,14.011-8.728h0l1.378-3.216h0c3.216-7.35-1.378-8.958-4.134-8.958Zm-14.47,10.8c-1.148,2.527-2.067,3.675-4.823,3.675h-7.809l3.216-7.58h6.2c2.986,0,4.364,1.378,3.216,3.9Z" transform="translate(198.523 8.948)" fill="#231f20"/><path d="M76.935,6.9H43.63l-2.756,6.891h6.2L37.888,34.925h-6.2L28.7,41.586H63.842c16.078,0,19.753-1.148,26.184-16.078C94.62,14.482,95.31,6.673,76.935,6.9ZM73.489,20.914l-3.675,8.5h0c-1.148,2.527-1.608,5.513-7.12,5.513h-7.12l9.188-21.131h5.053c6.2,0,4.823,4.134,3.675,7.12Z" transform="translate(37.45 8.946)" fill="#231f20"/><path d="M186.786,11.545a1.536,1.536,0,0,0,1.608-1.378v-.23c0-1.378-.919-1.838-2.3-1.838h-2.3v5.972h1.148v-2.3h.689l1.378,2.527h1.378Zm-1.838-.689V9.248h.919c.459,0,1.148,0,1.148.689s-.459.919-1.148.919Z" transform="translate(238.596 10.505)" fill="#231f20"/></g></g></svg>