<svg xmlns="http://www.w3.org/2000/svg" width="100" height="100" viewBox="0 0 100 100"><g transform="translate(1826 999)"><rect width="100" height="100" transform="translate(-1826 -999)" fill="none"/><g transform="translate(-1827 -1001.5)"><path d="M94,34.924V15.707H79.033V10.717H55.38v4.989H30.989V8.5H11.957v7.207H9v19.4h2.772V70.772H9v19.4H23.967v5.174H39.674V90.174H63.326v5.174H79.033V90.174H94v-19.4H91.228V34.924Zm-76.5-20.7h7.946v4.25H17.5ZM88.272,84.446H14.728v-8.13H88.272Zm-64.3-13.489a1.457,1.457,0,0,0,1.478-1.478V32.152H38.38V69.478a1.478,1.478,0,0,0,2.957,0V32.152H54.272V69.478a1.457,1.457,0,0,0,1.478,1.478,1.36,1.36,0,0,0,1.478-1.478V32.152H70.163V69.478a1.457,1.457,0,0,0,1.478,1.478,1.36,1.36,0,0,0,1.478-1.478V32.152H86.054V73.543H81.065V36.4a1.478,1.478,0,1,0-2.957,0V73.543H65.174V36.4A1.457,1.457,0,0,0,63.7,34.924,1.36,1.36,0,0,0,62.217,36.4V73.543H49.283V36.4a1.478,1.478,0,1,0-2.957,0V73.543H33.391V36.4a1.478,1.478,0,1,0-2.957,0V73.543H17.5V32.152h4.989V69.478A1.59,1.59,0,0,0,23.967,70.957Zm64.3-41.576H14.728V21.25H88.272Z" fill="#004990"/></g></g></svg>