<svg xmlns="http://www.w3.org/2000/svg" width="878.05" height="125.276" viewBox="0 0 878.05 125.276"><g transform="translate(-166.52 -318.99)"><path d="M190.73,444.15c19.26,1.24,46-7,39.75-47.52,5.74-5,14-3.18,18.9,1.06l10.16-22.52c-10.34-8.48-22-5.83-32.6,3.18-3.18-8.75-4-18,1.59-23.85,27.56,3.71,51.94-3.18,51.67-35.51-19.07,13-33.38,8.48-53,4.24-29.41-6.36-55.12-3.71-60.68,37.36,13.78-9.27,29.94-10.33,37.36-7.94-10.33,15.63-16.65,25.35-8.21,57.23C198.06,418.89,201.77,430.55,190.73,444.15Z" fill="#ed1c2e"/><path d="M278,354.41l34.27-12.1c9.27,7.42,9.8,13.25,9.53,31s-2.91,29.95,9.81,36.57l-32.33,11.39c-13.69-7.33-12.46-15.09-12.19-35.24C287.36,366.25,288.59,361,278,354.41Z" fill="#ed1c2e"/><path d="M383.74,374.38c-.46,16-3.82,30.55,9.87,35.5l-30.73,11.39c-13.69-7.33-12.46-15.09-12.19-35.24.26-19.78,1.5-25-9.1-31.62l32.68-12.1c5,4,7.43,7.5,8.6,12.64L410,343.28l17.31,29.15-26,14.84L391.05,371.9Z" fill="#ed1c2e"/><path d="M480.61,395.75l45-20.49-26.15-32c-14.83-.17-55.29,5.13-61.82,32-7.42,30.47,24.9,58.29,71.72,42.75l13.78-23C514.53,400.69,488.92,406.52,480.61,395.75Zm-3.35-32.86,11.13,13.43-18,8.48c-4.39-9.54-1.39-19.61,6.87-21.91Z" fill="#ed1c2e"/><path d="M580.17,400.4l-29.6-18.08c-15.9-9.89-7-15.4-1.24-18.9l35.15-20.67,39.22,21.91-9.54,8.65-21.55-12.54c-4.59-3.18-10.87,2.21-3.71,7.42l28.26,17.49c13.07,7.06,9,15.72,1.42,20.31l-36.39,20-40.1-22.78,10.14-9.07,23.42,14C581.66,412,587.48,406,580.17,400.4Z" fill="#ed1c2e"/><path d="M681.12,327.27l-50.81,37.49h17.22v36.7c.53,9.54,2.39,15.37,11.13,20.14l33.92-12.45c-8-4.24-11.46-6.89-11.46-16.17V364.76h19.41V346.08H681.12Z" fill="#ed1c2e"/><path d="M806,378.67c-1.06-20.67-28.35-30.73-45.31-36.56-44.52,12.19-50.35,25.7-48,42.92,2.9,20.94,21.46,32.33,50.61,37.89C796.45,410.74,807.19,402,806,378.67Zm-38.42,23.06c-15.37-1.86-25.84-26.9-15.64-41.07,19.6,7.28,22.78,30.6,15.63,41.07Z" fill="#ed1c2e"/><path d="M984.76,396.25l45-20.49-26.14-32c-14.84-.18-55.29,5.12-61.83,32-7.42,30.48,24.91,58.29,71.72,42.75l13.78-23C1018.67,401.2,993.06,407,984.76,396.25Zm-3.36-32.86,11.13,13.43-18,8.48C970.09,375.76,973.1,365.69,981.4,363.39Z" fill="#ed1c2e"/><path d="M1036.68,345a7.79,7.79,0,1,0,5.57,2.242,7.81,7.81,0,0,0-5.57-2.242Zm0,14.31a6.51,6.51,0,1,1,6.32-6.53,6.31,6.31,0,0,1-6.32,6.52Z" fill="#ed1c2e"/><path d="M1037.94,353.33a2.34,2.34,0,0,0,2.33-2.48c0-1.77-1-2.56-3.18-2.56h-3.43v9H1035v-3.91h1.56l2.38,3.91h1.53Zm-2.91-1.09v-2.79h1.85c.95,0,2,.21,2,1.32,0,1.38-1,1.47-2.19,1.47Z" fill="#ed1c2e"/><path d="M916,371v26.32c0,7.77,2.83,11.31,10.07,14l-31.8,11.48c-8.48-5.13-11-10.07-11-18.37V382.12c0-9.54-4.06-13.25-7.77-14.84L864,370.81v27.56c0,8.3,3.23,10.07,8.15,13.07l-31.62,10.95c-11.3-7.06-9.82-14.82-9.55-35,.26-19.78,1-25-9.63-31.62L854,343.69c5,4,6.53,7.32,7.7,12.46l26.5-9.54c16.6-7.06,27.56,9,27.56,23.85" fill="#ed1c2e"/></g></svg>