<svg xmlns="http://www.w3.org/2000/svg" width="435.878" height="56.092" viewBox="0 0 435.878 56.092"><g transform="translate(148.903 -161.365)"><g transform="translate(-533.168 -376.13)"><path d="M432.539,571.521h11.642l2.43-6.679H434.97l.978-2.688h13.875l2.894-7.948H427.994l.012-.032h-3.175l-2.9,7.97h1.862l-7.334,20.151h26.6l2.893-7.948H431.512l1.028-2.826" fill="#c4122e" fill-rule="evenodd"/><path d="M475.873,554.206l-5.07,13.928a22.592,22.592,0,0,0-.316-3.609L468.7,554.206h-11.07l.012-.032h-3.175l-2.9,7.97h1.862l-7.334,20.151h10.192l5.119-14.065a27.375,27.375,0,0,0,.369,3.609l1.825,10.456h12.245l10.223-28.088H475.873" fill="#c4122e" fill-rule="evenodd"/><path d="M496.018,571.521H507.66l2.431-6.679H498.449l.978-2.688H513.3l2.893-7.948h-24.7l.012-.032h-3.175l-2.9,7.97h1.851l-7.334,20.151h26.586l2.893-7.948H494.99l1.028-2.826" fill="#c4122e" fill-rule="evenodd"/><path d="M536.2,563.888c-.814,2.234-2.34,2.965-5.217,2.965h-3.493l2.161-5.938h4.137c2.191,0,3.157.921,2.411,2.973Zm3.184,7.768c3.683-1.28,6.885-3.566,8.45-7.863,2.31-6.35.04-9.588-9.741-9.588H521.128l.012-.032h-3.175l-2.9,7.97h1.979l-7.334,20.151h12.159l3.409-9.366h1.864c1.576,0,2.127.55,2.17,1.831l.327,7.535h12.3l-.4-7.08c-.1-2.053-.941-3.059-2.156-3.557" fill="#c4122e" fill-rule="evenodd"/><path d="M566.64,566.578l-.344,4.668h-4.888l3.1-4.668c1.139-1.737,2.629-4.287,2.629-4.287S566.764,564.841,566.64,566.578Zm-3.179-12.372.012-.032H560.3l-2.754,7.566-15.017,20.554h11.6l2.628-4.022h9.082l-.258,4.022h12.805l-.062-28.088H563.461" fill="#c4122e" fill-rule="evenodd"/><path d="M602.979,554.206H590.818L580.6,582.294h23.746l2.9-7.948H595.647l7.332-20.14" fill="#c4122e" fill-rule="evenodd"/><path d="M417.286,572l2.357-6.476h-3.175l0,.011H403.2l-2.346,6.445h3.768l-1.013,2.784h-3.3c-4.149,0-4.2-1.779-2.47-6.53,1.679-4.615,3.348-6.117,7.867-6.117h11.451l2.877-7.905h-12.52c-11.461,0-18.587,4.751-21.962,14.023-3.358,9.228-.188,14.065,10.015,14.065h16.392l3.749-10.3h1.578" fill="#c4122e" fill-rule="evenodd"/><path d="M646.759,553.951H618.947l-2.888,7.927h7.971l-7.306,20.066H628.6l7.3-20.066h7.971l2.885-7.927" fill="#c4122e" fill-rule="evenodd"/><path d="M649.572,553.951l-10.188,27.993h11.873l10.19-27.993H649.572" fill="#c4122e" fill-rule="evenodd"/><path d="M682.191,563.6c-.811,2.232-2.307,2.964-5.12,2.964h-3.418l2.153-5.917h4.053C682,560.651,682.936,561.562,682.191,563.6Zm3.059,7.737a12.731,12.731,0,0,0,8.305-7.822c2.305-6.329.118-9.567-9.438-9.567H666.369l0,.007h-2.276l-2.9,7.97h2.275l-7.284,20.016h11.872l3.4-9.335h1.821c1.544,0,2.073.551,2.117,1.831l.262,7.5h12.025l-.354-7.049c-.07-2.053-.89-3.058-2.073-3.556" fill="#c4122e" fill-rule="evenodd"/><path d="M722.657,561.879l2.885-7.927H700.1l0,.007h-2.14l-2.9,7.97h2.137l-7.288,20.016H715.89l2.883-7.917H704.666l1.029-2.826h11.377l2.417-6.646H708.112l.975-2.678h13.57" fill="#c4122e" fill-rule="evenodd"/><path d="M804.987,582.759,769,593.586,733.02,582.759V537.494L769,548.321l35.983-10.827v45.265" fill="#c4122e" fill-rule="evenodd"/><path d="M786.995,581.775H777v-9.747l9.991,9.747m-12.143,0H757.721c-7.916-.19-15.706-5.577-15.706-14.267,0-8.53,7.789-14.075,15.706-14.266l8.255,8.044h-8.255a6.227,6.227,0,0,0,0,12.446h7.853v-2.391h-7.292a3.842,3.842,0,1,1,0-7.663h16.57v18.1m12.143-2.783L777,569.245v-4.868l9.991,9.746v4.869m0-7.651L777,561.593l-8.573-8.35h28.554v8.35h-9.991v9.748m-13.166-10.055h-5l-8.255-8.044h5l8.255,8.044" fill="#fff"/><path d="M786.995,581.775H777v-9.747l9.991,9.747m-12.143,0H757.721c-7.916-.19-15.706-5.577-15.706-14.267,0-8.53,7.789-14.075,15.706-14.266l8.255,8.044h-8.255a6.227,6.227,0,0,0,0,12.446h7.853v-2.391h-7.292a3.842,3.842,0,1,1,0-7.663h16.57v18.1m12.143-2.783L777,569.245v-4.868l9.991,9.746v4.869m0-7.651L777,561.593l-8.573-8.35h28.554v8.35h-9.991v9.748m-13.166-10.055h-5l-8.255-8.044h5l8.255,8.044" fill="#fff"/><path d="M811.563,557.646h1.376V554.2h1.333v-.958h-4.039v.958h1.33v3.446" fill="#c4122e" fill-rule="evenodd"/><path d="M814.724,557.646h1.21v-1.959c0-.452-.021-1-.021-1s.155.572.275.979l.67,1.982h1.072l.67-1.982c.12-.4.272-.979.272-.979s-.032.593-.032,1v1.959h1.3v-4.4H818.4l-.758,2.411c-.109.32-.208.794-.208.794s-.113-.473-.212-.794l-.758-2.411h-1.739v4.4" fill="#c4122e" fill-rule="evenodd"/></g></g></svg>