<svg xmlns="http://www.w3.org/2000/svg" width="420.66" height="74.9" viewBox="0 0 420.66 74.9"><path d="M0,8.29H11.4V26.44l11-18.15H33.23l-10,16,12.4,27.9H22.3L15.53,35.61,11.42,42V52.18H0Z" fill="#3a9144"/><path d="M37.3,8.29H66.93V18.42H49.11v6.36H63.54V34.6H49.11v7.1H66.93V52.17H37.3Z" fill="#3a9144"/><path d="M71.54,8.29H83.76V41.44H99.28V52.19H71.54Z" fill="#3a9144"/><path d="M134,33.66,120.74,8.29H134l6.92,14.47,6.62-14.48h10.62L145.79,33.6V52.2H134Z" fill="#3a9144"/><path d="M277.1,18.88h-8.3V8.28h27.93v10.6h-8.11V52.19H277.1Z" fill="#3a9144"/><path d="M299.88,8.29h12.21V52.2H299.88Z" fill="#3a9144"/><path d="M328.26,17.61h6.32a3.86,3.86,0,0,1,3.93,4.06c0,2.84-1.66,4.12-4.4,4.32h-5.85ZM316,52.2h12.28V35.44H332l5.79,16.77h13.48L344.13,33c5.09-2.44,7.06-6.36,7-11.81-.06-5.66-2.84-13.38-16.28-13H316Z" fill="#3a9144"/><path d="M409.57,21.74c-1.12-2.62-2.55-4.37-6-4.37-2.82,0-4.23.73-4.37,2.75-.44,6.13,21.46.35,21.46,18.21,0,7.25-5.73,14.48-17.27,14.48-7,0-15.44-2.15-18.19-13.33l11.25-2.27a6.61,6.61,0,0,0,6.81,5.35c4.33,0,5.06-1.5,5-2.75.69-6.28-20.78-.94-21-17.81.19-8.75,6.25-14.63,16.62-14.38,5.53.13,12.37,2.19,15.69,10.69Z" fill="#3a9144"/><path d="M102.68,8.3H114.9V41.45h15.52V52.2H102.68Z" fill="#3a9144"/><path d="M354.18,8.29h29.63V18.42H366v6.36h14.43V34.6H366v7.1h17.82V52.17H354.18Z" fill="#3a9144"/><path d="M189.13,38.53V52.15H167V8.27h22.1v16L207.1.13h24.48l-18,24.82a7.3,7.3,0,0,0,.34,8.84L224.49,45a5.59,5.59,0,0,1,.68,7.48c-2.49,3.32-9.52,12.92-9.52,12.92Z" fill="#3a9144" fill-rule="evenodd"/><path d="M262.94,0H235.06l-19,25.78a5,5,0,0,0,.59,6.8l9.09,9.18c7.14,7.14,2.55,10.37.85,13.26L211.74,74.9h28.52L255.7,53.15c4.25-5.95,1.53-7.82-1.7-11.39l-7.65-7.82c-4.93-4.93-2.38-7.31-1.87-8.67Z" fill="#3a9144" fill-rule="evenodd"/></svg>