<?xml version="1.0" encoding="UTF-8"?><svg id="Layer_6" xmlns="http://www.w3.org/2000/svg" width="543.7" height="158.32" viewBox="0 0 543.7 158.32"><path d="M3.91,88.44S133.88,3.91,336.67,3.91c191.05,0,193.38,46.37,193.01,54.73-2.93,65.97-196.92,99.68-196.92,99.68,0,0,162.23-37.62,162.23-93.82,0-24.43-98.69-33.88-158.8-33.72C152.94,31.27,3.91,88.44,3.91,88.44Z" fill="#00498f"/><path d="M0,84.53S129.98,0,332.76,0c191.05,0,193.38,46.37,193.01,54.73-2.93,65.96-196.92,99.68-196.92,99.68,0,0,162.22-37.62,162.22-93.82,0-24.43-98.68-33.88-158.8-33.71C149.03,27.36,0,84.53,0,84.53Z" fill="#fd0"/><g><path d="M380.39,77.13c0-6.98-3.77-12.32-10.34-14.66-4.39-1.56-9.28-1.56-12.86-1.56-3.01,0-6.07,.01-9.02,.41h-74.39l.06,.31c-2.53-.49-5.38-.72-8.59-.72-8.9,0-14.75,1.91-18.53,5.31-3.25-3.43-8.07-5.31-14.17-5.31-.9,0-2.28,0-3.89,.22v-15.2h-26.43v15.39h-2.92v-7.59h-26.42v7.59h-4.36v-7.59h-26.43v7.59h-4.38v.89c-3.75-1.09-7.97-1.3-12.1-1.3h-.15c-4.8,0-9.85,0-14.34,2.03v-17.01h-35.07l-4.2,14.55-4.42-14.55H33V111.9H111.14v-.98c2.68,.91,5.83,1.39,9.5,1.39,1.86,0,3.53-.15,5.02-.41h24.41v-2.07c4.76,2.48,10.4,2.48,13.12,2.48,5.29,0,11.01-.68,15.06-4.18,5.1,4.17,12.47,4.18,15.72,4.18,2.74,0,5.59-.18,8.27-.84v.43h49.21v-1.96c3.61,1.61,8.18,2.37,13.81,2.37,5.31,0,11.39-.36,16.21-3.04l.11-.06c.28-.16,.52-.34,.78-.51l.58,3.21h56.68l.45-2.57c.54,.33,1.08,.61,1.61,.86,4.47,2.07,9.6,2.13,14.59,2.13h.93c4.75,0,10.84-.34,15.77-2.96,4.17-2.22,9.14-6.88,9.14-16.48,0-3.72-.62-6.67-1.71-9.02v-6.71Zm-256.04,14.54l.35,1.12-.42,2.3c-.35-.59-.59-1.24-.63-1.89,.08-.49,.34-1.03,.7-1.52Z" fill="#00498f"/><path d="M521.28,85.27c-.34-17.5-7.4-24.35-24.83-24.35-7.83,0-13.3,1.48-17.08,4.15-2.77-2.7-6.59-4.15-11.16-4.15-1.56,0-2.97,.15-4.25,.41h-13.52v-15.39h-69.79v26.56h13.13v39.4h28.34v-39.4h1.9v39.4h42.36v-20.25h5.37c1.29,14.59,8.73,20.66,24.7,20.66,5.31,0,11.39-.36,16.21-3.04l.11-.06c4.8-2.77,7.59-7.22,8.33-13.25h.2v-10.69h-.01Z" fill="#00498f"/></g><g><path d="M377.95,83.73v-6.6c0-13.78-14.55-13.78-20.76-13.78-3.57,0-7.86,0-11.74,1.06l.11-.65h-21.11l-1,6.74-1.43-6.74h-21.67l-1.36,6.4-.91-6.4h-21.38l.23,1.28c-3.11-1.16-6.97-1.69-11.69-1.69-9.76,0-15.43,2.31-18.64,6.59-2.64-4.3-7.41-6.59-14.06-6.59-1.94,0-4.16,.15-6.33,.82v-15.8h-21.54v15.39h-7.81v-7.59h-21.54v7.59h-9.24v-7.59h-21.54v7.59h-4.38v2.02c-3.96-2.11-9.12-2.43-14.54-2.43h-.15c-4.56-.02-9.34,0-13.35,1.82-1.13,.51-2.32,1.23-3.43,2.24v-19.04h-30.79l-5.98,20.71-6.29-20.71h-30.19v61.08h23.63l-.42-12.03,4.02,12.03h18.89l3.93-11.9-.41,11.9h23.63v-2.28c4.09,2.69,9.25,2.69,11.94,2.69,1.91,0,3.59-.17,5.06-.46v.05h21.93v-4.7c4.3,5.1,12,5.11,15.57,5.11,6,0,11.71-.84,15.05-5.3,4.27,5.29,12.12,5.3,15.73,5.3,3.88,0,7.63-.35,10.71-1.8v1.39h44.32v-3.99c3.42,2.82,8.58,4.4,16.25,4.4,5,0,10.69-.33,15.1-2.78,1.43-.83,2.63-1.86,3.65-3.05l.98,5.41h25.22l1.16-6.02,1.19,6.02h25.02l.82-4.66c1.17,1.31,2.6,2.37,4.32,3.17,3.99,1.85,8.63,1.9,13.55,1.9,.16,0,.32,0,.48,0h.47c5.56,0,22.47,0,22.47-17,0-3.96-.75-6.92-2.06-9.14h.35Z" fill="#fff"/><path d="M496.45,63.36c-8.61,0-14.03,1.8-17.4,5.15-1.98-2.94-5.29-5.15-10.84-5.15-1.74,0-3.27,.2-4.62,.56v-.15h-15.6v-15.39h-64.91v21.67h13.13v39.4h23.45v-39.4h6.78v39.4h37.48v-20.25h10.1c.49,12.5,4.94,20.66,22.42,20.66,5,0,10.69-.33,15.1-2.78,4.62-2.67,7.07-7.23,7.29-13.57l.02-6.87c0-16.98-6.07-23.29-22.4-23.29Z" fill="#fff"/></g><path d="M54.01,104.72h-13.68V53.41h21.69l9.78,32.22h.48l9.3-32.22h22.23v51.31h-13.68l1.37-39.33h-.48l-13,39.33h-11.83l-13.13-39.33h-.41l1.37,39.33Z" fill="#00498f"/><path d="M131.38,99.38h-.41c-.89,4.93-6.22,5.75-10.33,5.75-8.21,0-13-1.98-13-11.15,0-8.62,4.52-11.29,13-11.29,3.35,0,8.48-.07,9.78,4.04h.55v-5.68c0-3.35-.2-5.47-5.34-5.47-2.94,0-4.79,.68-4.79,3.9h-11.77c0-11.15,8.14-11.08,16.55-11.08,12.04,0,17.1,1.51,17.1,13.89v22.44h-11.77l.41-5.34Zm-11.97-5.75c0,3.9,3.35,3.9,5.13,3.9,4.92,0,6.43-.62,6.43-4.38,0-3.01-2.6-3.28-6.43-3.28-2.87,0-5.13,.48-5.13,3.76Z" fill="#00498f"/><path d="M174.82,77.43h-13.61v16.08c.07,2.12,.48,3.01,2.67,3.01,3.08,0,2.94-2.19,3.08-4.65l.07-1.92h9.37v3.21c0,9.78-3.63,11.97-13.2,11.97-7.53,0-13.75-.96-13.75-9.99v-17.72h-4.38v-8.62h4.38v-7.59h11.77v7.59h13.61v8.62Z" fill="#00498f"/><path d="M205.6,77.43h-13.61v16.08c.07,2.12,.48,3.01,2.67,3.01,3.08,0,2.94-2.19,3.08-4.65l.07-1.92h9.37v3.21c0,9.78-3.63,11.97-13.2,11.97-7.52,0-13.75-.96-13.75-9.99v-17.72h-4.38v-8.62h4.38v-7.59h11.77v7.59h13.61v8.62Z" fill="#00498f"/><path d="M221.34,75.51h.48c1.71-5.68,5.2-7.12,10.74-7.12,7.94,0,11.56,3.76,11.56,11.49v24.83h-11.77v-22.1c-.07-3.49-1.03-5.2-4.86-5.2-5.27,0-6.16,3.15-6.16,7.52v19.77h-11.77V53.41h11.77v22.1Z" fill="#00498f"/><path d="M282.77,92.75c0,5.4-1.78,8.48-4.86,10.26-3.08,1.71-7.46,2.12-12.66,2.12-14.16,0-17.58-4.92-17.58-18.33s3.15-18.4,17.58-18.4c13.48,0,17.51,3.76,17.51,18.4v1.98h-23.33c0,6.29,.96,8.14,5.81,8.14,3.63,0,5.95-.41,5.95-4.17h11.56Zm-11.77-10.46c0-5.34-1.99-5.68-5.95-5.68-4.17,0-5.47,.96-5.61,5.68h11.56Z" fill="#00498f"/><path d="M333.46,104.72h-16.9l-5.06-25.58h-.41l-4.93,25.58h-17.1l-6.5-35.92h11.29l3.97,28.05h.55l5.95-28.05h13.75l5.95,28.05h.48l4.17-28.05h11.08l-6.29,35.92Z" fill="#00498f"/><path d="M361.98,79c-.41-3.01-2.94-3.01-4.79-3.01-6.16,0-6.16,.75-6.16,2.87,0,1.78,.14,3.01,6.16,3.15,12.18,.27,17.58,.96,17.58,11.01s-8.14,12.11-17.58,12.11-17.58,.21-17.58-11.63h11.77c0,4.04,2.94,4.04,5.81,4.04,5.34,0,6.16-.34,6.16-3.15,0-3.56-2.05-3.56-6.16-3.56-14.91,0-17.58-3.35-17.58-10.67,0-11.56,7.59-11.77,17.58-11.77,6.57,0,15.87,.07,15.87,8.89v1.71h-11.08Z" fill="#00498f"/><path d="M414.79,104.72h-13.68v-39.4h-13.13v-11.9h40.63v11.9h-13.82v39.4Z" fill="#00498f"/><path d="M443.11,62.44h-11.77v-9.03h11.77v9.03Zm0,42.28h-11.77v-35.92h11.77v35.92Z" fill="#00498f"/><path d="M466.5,82.76c0-2.53,.14-5.34-3.08-5.34-3.56,0-4.38,2.8-4.38,5.75v21.55h-11.77v-35.92h11.42v5.27h.48c1.57-4.1,4.65-5.68,9.03-5.68,8.21,0,8.89,6.7,8.89,13.27v2.8h-10.6v-1.71Z" fill="#00498f"/><path d="M513.96,92.75c0,5.4-1.78,8.48-4.86,10.26-3.08,1.71-7.46,2.12-12.66,2.12-14.16,0-17.58-4.92-17.58-18.33s3.15-18.4,17.58-18.4c13.48,0,17.51,3.76,17.51,18.4v1.98h-23.33c0,6.29,.96,8.14,5.81,8.14,3.63,0,5.95-.41,5.95-4.17h11.56Zm-11.76-10.46c0-5.34-1.98-5.68-5.95-5.68-4.17,0-5.47,.96-5.61,5.68h11.56Z" fill="#00498f"/><path d="M531.26,101.53v1.78h-2.86v8.48h-2.2v-8.48h-2.89v-1.78h7.95Zm4.88,0l2.41,6.82,2.27-6.82h2.89v10.26h-1.95v-8.09l-2.72,8.09h-1.01l-2.82-8.09v8.09h-1.95v-10.26h2.89Z" fill="#00498f"/></svg>