<svg xmlns="http://www.w3.org/2000/svg" width="5189" height="1463" viewBox="0 0 5189 1463" fill="none">
<path d="M370.075 680.668C137.66 750.686 6.021 800.903 6.021 800.903C6.021 800.903 133.564 718.377 370.742 606.291L370.075 680.668Z" fill="white"/>
<path d="M4611.47 989.735C4060.15 1303.54 3138.39 1462.91 3138.39 1462.91C3138.39 1462.91 4175.5 1223.67 4550.41 844.487C4550.41 844.487 4558.32 966.901 4611.56 989.735H4611.47Z" fill="white"/>
<path d="M4926.37 737.422C4979.04 669.203 5010.67 596.248 5014.1 518.554C5017.62 439.44 4995.52 0 3175.63 0C2058.04 0 1172.67 268.136 624.875 494.11L646.973 602.027C676.596 594.068 707.077 586.11 738.415 577.961L767.943 478.571H1019.6L1015.12 510.69C1580.64 381.265 2338.75 256.956 3170.97 254.777C3743.62 253.261 4683.57 342.703 4683.57 574.171C4683.57 590.089 4682.14 605.912 4679.48 621.545C4679.48 621.545 4894.27 574.929 4926.27 737.516L4926.37 737.422Z" fill="white"/>
<path d="M1197.05 845.339C1169.72 845.339 1148.19 849.887 1148.19 880.965C1148.19 917.916 1180.1 917.916 1197.05 917.916C1243.92 917.916 1258.3 912.042 1258.3 876.417C1258.3 847.898 1233.54 845.339 1197.05 845.339V845.339Z" fill="white"/>
<path d="M2535.44 719.609C2495.72 719.609 2483.34 728.705 2482.01 773.426H2592.12C2592.12 722.831 2573.16 719.609 2535.44 719.609V719.609Z" fill="white"/>
<path d="M3610.84 788.585V726.052C3610.84 595.489 3472.25 595.489 3413.1 595.489C3379.09 595.489 3338.23 595.49 3301.27 605.533L3302.32 599.374H3101.24L3091.72 663.234L3078.1 599.374H2871.68L2858.73 660.013L2850.06 599.374H2646.41L2648.6 611.502C2618.98 600.511 2582.21 595.489 2537.25 595.489C2444.29 595.489 2390.28 617.376 2359.7 657.928C2334.56 617.187 2289.12 595.489 2225.78 595.489C2207.3 595.489 2186.15 596.911 2165.48 603.259V453.557H1960.31V599.374H1885.92V527.461H1680.75V599.374H1592.73V527.461H1387.56V599.374H1345.84V618.513C1308.12 598.521 1258.97 595.489 1207.34 595.489H1205.91C1162.38 595.205 1116.95 595.489 1078.75 612.734C1067.99 617.566 1056.65 624.388 1046.08 633.957V453.557H752.798L695.837 649.78L635.924 453.557H348.357V1032.28H573.438L569.438 918.295L607.729 1032.28H787.661L825.095 919.527L821.189 1032.28H1046.27V1010.67C1085.23 1036.16 1134.38 1036.16 1160 1036.16C1178.19 1036.16 1194.2 1034.55 1208.2 1031.8V1032.28H1417.09V987.745C1458.05 1036.07 1531.39 1036.16 1565.39 1036.16C1622.55 1036.16 1676.94 1028.2 1708.75 985.945C1749.42 1036.07 1824.2 1036.16 1858.58 1036.16C1895.54 1036.16 1931.26 1032.85 1960.6 1019.11V1032.28H2165.77V798.629C2165.77 784.038 2167.1 777.31 2167.96 774.468C2169.58 774.089 2172.63 773.615 2177.49 773.615C2177.49 774.468 2177.49 775.51 2177.58 776.552V1032.18H2382.75V994.851C2426.47 1030.95 2487.53 1036.07 2537.54 1036.07C2587.55 1036.07 2639.36 1032.94 2681.37 1009.73C2694.99 1001.86 2706.42 992.104 2716.14 980.829L2725.47 1032.09H2965.7L2976.75 975.049L2988.08 1032.09H3226.4L3234.21 987.935C3245.36 1000.35 3258.98 1010.39 3275.36 1017.97C3313.37 1035.5 3357.57 1035.97 3404.43 1035.97H3413.48C3466.44 1035.97 3627.51 1035.97 3627.51 874.901C3627.51 837.38 3620.37 809.335 3607.89 788.396H3611.22L3610.84 788.585ZM999.597 986.04H869.292L882.341 613.397H877.769L753.941 986.04H641.258L516.192 613.397H512.287L525.336 986.04H395.031V499.889H601.633L694.79 805.166H699.362L787.946 499.889H999.692V986.04H999.597ZM1370.32 986.04H1258.21L1262.11 935.444H1258.21C1249.73 982.155 1198.96 989.924 1159.81 989.924C1081.61 989.924 1035.98 971.164 1035.98 884.281C1035.98 802.608 1079.04 777.31 1159.81 777.31C1191.72 777.31 1240.58 776.647 1252.97 815.589H1258.21V761.772C1258.21 730.031 1256.3 709.945 1207.34 709.945C1179.34 709.945 1161.72 716.388 1161.72 746.896H1049.6C1049.6 641.253 1127.14 641.916 1207.25 641.916C1321.93 641.916 1370.13 656.223 1370.13 773.521V986.134L1370.32 986.04ZM1690.94 876.511C1690.94 969.175 1656.36 989.924 1565.2 989.924C1493.48 989.924 1434.23 980.829 1434.23 895.271V727.378H1392.51V645.706H1434.23V573.792H1546.34V645.706H1675.98V727.378H1546.34V879.733C1547.01 899.819 1550.92 908.252 1571.78 908.252C1601.11 908.252 1599.78 887.502 1601.11 864.194L1601.78 846.003H1691.03V876.417L1690.94 876.511ZM1680.84 773.71V799.766H1592.83V773.71H1680.84ZM1984.12 876.511C1984.12 969.175 1949.55 989.924 1858.39 989.924C1786.76 989.924 1727.42 980.829 1727.42 895.271V727.378H1685.7V645.706H1727.42V573.792H1839.53V645.706H1969.17V727.378H1839.53V879.733C1840.2 899.819 1844.1 908.252 1864.96 908.252C1894.3 908.252 1892.97 887.502 1894.3 864.194L1894.97 846.003H1984.22V876.417L1984.12 876.511ZM1960.41 773.71V799.766H1886.01V773.71H1960.41ZM2335.99 986.04H2223.87V776.647C2223.21 743.58 2214.06 727.378 2177.58 727.378C2127.38 727.378 2118.91 757.224 2118.91 798.629V985.945H2006.79V499.889H2118.91V709.282H2123.48C2139.77 655.465 2173.01 641.821 2225.78 641.821C2301.41 641.821 2335.89 677.446 2335.89 750.686V985.945L2335.99 986.04ZM2704.14 835.012H2481.91C2481.91 894.608 2491.06 912.136 2537.25 912.136C2571.83 912.136 2593.93 908.252 2593.93 872.627H2704.04C2704.04 923.79 2687.09 952.973 2657.75 969.838C2628.41 986.04 2586.69 989.924 2537.16 989.924C2402.28 989.924 2369.7 943.308 2369.7 816.252C2369.7 689.195 2399.71 641.916 2537.16 641.916C2665.56 641.916 2703.94 677.541 2703.94 816.252V835.012H2704.14ZM3186.97 986.04H3025.99L2977.79 743.675H2973.89L2926.93 986.04H2764.05L2702.13 645.801H2809.67L2847.49 911.568H2852.73L2909.4 645.801H3040.38L3097.05 911.568H3101.62L3141.34 645.801H3246.88L3186.97 986.04ZM3413.1 989.924C3324.51 989.924 3245.64 991.914 3245.64 879.733H3357.76C3357.76 918.011 3385.76 918.011 3413.1 918.011C3463.96 918.011 3471.77 914.789 3471.77 888.165C3471.77 854.435 3452.25 854.435 3413.1 854.435C3271.08 854.435 3245.64 822.695 3245.64 753.339C3245.64 643.811 3317.94 641.821 3413.1 641.821C3475.68 641.821 3564.26 642.484 3564.26 726.052V742.254H3458.72C3454.82 713.735 3430.72 713.735 3413.1 713.735C3354.42 713.735 3354.42 720.841 3354.42 740.927C3354.42 757.792 3355.76 769.446 3413.1 770.773C3529.11 773.331 3580.55 779.869 3580.55 875.09C3580.55 970.312 3503.02 989.83 3413.1 989.83V989.924Z" fill="white"/>
<path d="M4737.67 719.609C4697.95 719.609 4685.57 728.705 4684.24 773.426H4794.35C4794.35 722.83 4775.49 719.609 4737.67 719.609V719.609Z" fill="white"/>
<path d="M4739.58 595.584C4657.57 595.584 4605.94 612.639 4573.84 644.379C4554.98 616.523 4523.45 595.584 4470.59 595.584C4454.01 595.584 4439.44 597.479 4426.58 600.89V599.469H4277.99V453.652H3659.71V658.97H3784.77V1032.28H4008.14V658.97H4072.72V1032.28H4429.72V840.412H4525.83C4527.64 890.913 4536.31 943.972 4570.6 981.681C4614.42 1030 4683.86 1036.16 4739.48 1036.16C4787.11 1036.16 4841.31 1033.03 4883.31 1009.82C4927.32 984.524 4950.66 941.319 4952.75 881.249L4952.94 816.157C4952.94 655.275 4895.13 595.489 4739.58 595.489V595.584ZM4093.39 612.734H3961.75V986.04H3831.44V612.734H3706.38V499.984H4093.39V612.734V612.734ZM4231.5 986.04H4119.39V645.801H4231.5V986.04ZM4231.5 585.446H4119.39V499.889H4231.5V585.446ZM4555.36 794.176H4454.39V777.974C4454.39 754.002 4455.73 727.378 4425.06 727.378C4391.15 727.378 4383.34 753.908 4383.34 781.858V986.04H4271.22V645.801H4380V695.733H4384.57C4399.53 656.886 4428.87 641.916 4470.59 641.916C4548.79 641.916 4555.27 705.397 4555.27 767.646V794.176H4555.36ZM4906.46 835.012H4684.24C4684.24 894.608 4693.38 912.136 4739.58 912.136C4774.16 912.136 4796.25 908.252 4796.25 872.627H4906.37C4906.37 923.79 4889.41 952.973 4860.07 969.838C4830.74 986.04 4789.02 989.924 4739.48 989.924C4604.61 989.924 4572.03 943.308 4572.03 816.252C4572.03 689.195 4602.04 641.916 4739.48 641.916C4867.88 641.916 4906.27 677.541 4906.27 816.252V835.012H4906.46Z" fill="white"/>
<path d="M5064.48 938.95V955.815H5037.24V1036.16H5016.29V955.815H4988.76V938.95H5064.48ZM5110.97 938.95L5133.92 1003.57L5155.55 938.95H5183.07V1036.16H5164.5V959.51L5138.59 1036.16H5128.97L5102.11 959.51V1036.16H5083.54V938.95H5111.06H5110.97Z" fill="white"/>
<div xmlns="" id="divScriptsUsed" style="display: none"/><script xmlns="" id="globalVarsDetection" src="chrome-extension://cmkdbmfndkfgebldhnkbfhlneefdaaip/js/wrs_env.js"/></svg>