<svg xmlns="http://www.w3.org/2000/svg" width="99" height="94" viewBox="0 0 99 94"><g transform="translate(2087 406)"><path d="M87.748,37.857l3.307,2.484,2.612-2.721L89.42,34.075,68.949,40.956c-6.044,2.031-13.37,1.7-18.779,1.374l-29.755-.15L26.1,67.072h34.28l8.6-12.525a51.4,51.4,0,0,1,16-15.036ZM10.878,45.1,17.6,47.01l-1.323-5.659a6.635,6.635,0,0,0-4.348-4.781L7.453,35.063a2.466,2.466,0,0,0-.472-.046,2.374,2.374,0,0,0-1.778.807,2.481,2.481,0,0,0-.54,2.183S4.815,43.021,10.878,45.1Zm88.088-7.776-7.521,7.836L87.52,42.211A51.409,51.409,0,0,0,71.513,57.248L62.289,70.691H23.216L18.735,51.079l-8.128-2.267c-4.2-1.4-6.94-2.462-8.718-6.469l-.738-3.45a6.253,6.253,0,0,1,1.17-5.265,6.011,6.011,0,0,1,6.01-2.079l.177.05L15,33.782a6.638,6.638,0,0,1,4.347,4.781l17.982.016V35.4H32.243a2.347,2.347,0,1,1,0-4.695H46.03a2.347,2.347,0,1,1,0,4.695H40.946v3.186L49.9,38.6c6.314.074,12.734.657,18.778-1.374L90.185,30Zm-3.63,9.262c1.094,1.4,4.664,6.185,4.664,8.956a6.09,6.09,0,1,1-12.18,0c0-2.771,3.57-7.556,4.664-8.956l1.426-1.825Z" transform="translate(-2088 -409)" fill="#004990" fill-rule="evenodd"/><rect width="45" height="94" transform="translate(-2060 -406)" fill="none"/></g></svg>