<svg xmlns="http://www.w3.org/2000/svg" width="175.748" height="49.906" viewBox="0 0 175.748 49.906"><g transform="translate(-8.504 -71.425)"><path d="M8.5,71.425H184.252v49.906H8.5Z" fill="#fff22d" fill-rule="evenodd"/><path d="M163.377,81.269a5.774,5.774,0,0,1,5.639,5.561c0,1.753-1.246,5.719-5.67,5.7L40.681,92.5l.047,18.988H25.863V81.268H163.377Zm-17.313,3.665a1.959,1.959,0,0,1,1.957,1.722,2.143,2.143,0,0,1-1.975,1.927H40.728l.016-3.664ZM80.237,95.549c3.1,0,5.26,2.118,5.26,5.75a5.522,5.522,0,0,1-3.333,4.55l3.981,5.639H75.608l-2.622-4.849H70.537l-.016,4.849H61.564l-.031-15.939h18.7ZM74.96,99.2a1.829,1.829,0,0,1,1.77,1.753,1.71,1.71,0,0,1-1.77,1.771H70.521V99.2H74.96Zm35.212-3.649-.031,3.666-10.3-.017v2.512l9.967.016v3.665H99.842v2.5H110.8l-.016,3.6H90.5V95.549Zm14.8,0v12.336h8.893l-.016,3.6H115.844V95.549h9.131Zm20.662,0v12.336H154.5v3.6H136.506V95.549Zm-90.044,0v15.939H46.7V95.549Zm101.733,0h8.9v15.939h-8.9Z" fill="#cc2229" fill-rule="evenodd"/></g></svg>