<svg width="14" height="13" viewBox="0 0 14 13" fill="none" xmlns="http://www.w3.org/2000/svg">
<path fill-rule="evenodd" clip-rule="evenodd" d="M9.18164 4.19995C8.16406 5.5697 7.6543 7.07275 7.6543 8.70911C7.6543 10.103 7.96387 11.1455 8.58203 11.8363C9.21191 12.5272 9.93945 12.8727 10.7637 12.8727C11.5156 12.8727 12.127 12.6302 12.5996 12.1455C13.0723 11.6484 13.3096 11.0425 13.3096 10.3273C13.3096 9.72119 13.1572 9.23035 12.8545 8.85449C12.5518 8.46667 12.2305 8.16968 11.8906 7.96362C11.6123 7.80603 11.3818 7.64844 11.2002 7.49097C11.1172 7.4137 11.0537 7.30139 11.0107 7.15417C10.9668 7.0011 10.9453 6.8103 10.9453 6.58179C10.9453 5.78186 11.248 4.98181 11.8545 4.18176C12.4727 3.38184 13.1875 2.65454 14 2L13.1094 0.872681C11.5215 1.70911 10.2119 2.81824 9.18164 4.19995ZM1.52734 4.19995C0.508789 5.5697 0 7.07275 0 8.70911C0 9.4093 0.078125 10.0209 0.234375 10.5437C0.388672 11.0616 0.620117 11.4926 0.927734 11.8363C1.55762 12.5272 2.28516 12.8727 3.10938 12.8727C3.86035 12.8727 4.47266 12.6302 4.94531 12.1455C5.21973 11.8569 5.41504 11.5316 5.53027 11.1694C5.61328 10.908 5.6543 10.6272 5.6543 10.3273C5.6543 9.72119 5.50293 9.23035 5.2002 8.85449C4.89648 8.46667 4.57617 8.16968 4.23633 7.96362C3.95801 7.80603 3.72754 7.64844 3.5459 7.49097C3.43945 7.39185 3.36621 7.23511 3.32617 7.02087C3.30273 6.89453 3.29102 6.74817 3.29102 6.58179C3.29102 5.78186 3.59375 4.98181 4.2002 4.18176C4.81836 3.38184 5.5332 2.65454 6.3457 2L5.4541 0.872681C3.86621 1.70911 2.55762 2.81824 1.52734 4.19995Z" fill="#9F8A58"/>
</svg>
